if (_typeface_js && _typeface_js.loadFace) _typeface_js.loadFace({"glyphs":{"⌐":{"x_min":0,"x_max":0,"ha":386},"¦":{"x_min":0,"x_max":0,"ha":386},"♀":{"x_min":0,"x_max":0,"ha":386},"▒":{"x_min":0,"x_max":0,"ha":386},"Ő":{"x_min":0,"x_max":0,"ha":386},"Ž":{"x_min":0,"x_max":0,"ha":386},"Á":{"x_min":6.9375,"x_max":838.890625,"ha":846,"o":"m 656 196 l 188 196 l 118 0 l 6 0 l 344 926 l 493 926 l 838 0 l 729 0 l 656 196 l 656 196 m 626 281 l 420 850 l 216 281 l 626 281 l 626 281 m 490 1175 l 538 1108 l 340 986 l 306 1036 l 490 1175 l 490 1175 "},"Î":{"x_min":-75.5,"x_max":355.5,"ha":279,"o":"m 193 926 l 193 0 l 87 0 l 87 926 l 193 926 l 193 926 m 142 1167 l 355 1035 l 326 982 l 142 1067 l -49 982 l -75 1035 l 142 1167 l 142 1167 "},"e":{"x_min":67,"x_max":634,"ha":698,"o":"m 534 198 l 634 198 q 614 80 634 124 q 557 21 595 36 q 468 -1 518 5 q 357 -8 418 -8 q 207 8 265 -8 q 121 60 148 25 q 80 155 94 94 q 67 305 67 217 q 77 455 67 390 q 108 565 87 519 q 187 633 129 610 q 343 656 246 656 q 492 640 433 656 q 577 594 551 625 q 618 503 605 564 q 632 352 632 443 l 632 307 l 167 307 q 172 206 167 250 q 189 131 178 163 q 239 81 200 97 q 343 66 278 66 l 369 68 q 383 66 376 66 q 398 66 390 66 q 415 66 407 66 q 433 68 423 67 q 443 69 439 68 q 454 70 448 70 q 463 72 458 71 q 473 75 468 74 q 491 81 483 78 q 507 90 500 85 q 518 101 513 95 q 525 115 523 107 q 529 132 527 124 q 532 149 530 140 q 532 152 532 150 q 534 154 532 153 q 534 158 534 156 q 534 161 534 160 q 534 168 534 164 q 534 174 534 171 l 534 198 l 534 198 m 536 382 q 529 480 536 440 q 506 540 522 519 q 454 570 493 560 q 351 581 415 581 q 258 570 296 581 q 203 539 221 560 q 176 478 185 518 q 168 381 168 438 l 536 381 l 536 382 "},"»":{"x_min":69.4375,"x_max":551.390625,"ha":621,"o":"m 156 709 l 323 356 l 136 0 l 69 44 l 230 356 l 84 666 l 156 709 l 156 709 m 384 709 l 551 356 l 363 0 l 297 44 l 458 356 l 312 666 l 384 709 l 384 709 "},"∆":{"x_min":0,"x_max":0,"ha":386},"♥":{"x_min":0,"x_max":0,"ha":386},"ò":{"x_min":75,"x_max":649,"ha":705,"o":"m 75 341 q 86 482 75 422 q 123 580 98 541 q 205 637 148 618 q 351 657 262 657 q 505 640 444 657 q 593 591 565 623 q 635 498 621 559 q 649 344 649 436 q 639 199 649 264 q 614 86 630 134 q 539 12 597 36 q 380 -11 480 -11 q 233 2 293 -11 q 140 41 173 15 q 90 127 106 69 q 75 277 75 186 l 75 341 l 75 341 m 175 343 l 175 289 q 175 279 175 283 q 175 272 175 275 q 175 264 175 268 q 175 255 175 259 q 175 239 175 247 q 176 225 175 232 q 179 185 176 204 q 186 148 182 166 q 196 116 190 130 q 212 93 203 102 q 229 81 219 86 q 250 73 239 76 q 273 68 262 70 q 298 66 285 66 q 301 66 299 66 q 304 66 302 66 q 305 68 304 68 q 308 68 306 68 q 313 68 311 68 q 319 68 316 68 l 363 68 q 367 68 365 68 q 370 68 369 68 q 374 68 372 68 q 377 68 376 68 q 443 73 413 68 q 493 90 472 79 q 529 130 516 101 q 543 205 543 159 q 543 214 543 209 q 546 225 543 219 q 546 234 546 229 q 546 243 546 239 q 546 251 546 247 q 547 261 546 255 q 547 270 547 265 q 547 280 547 275 q 547 289 547 284 q 549 298 547 293 q 549 307 549 302 q 549 316 549 312 q 549 335 549 326 q 549 354 549 344 q 543 456 549 414 q 526 525 537 498 q 479 563 515 550 q 384 576 444 576 l 363 578 q 260 568 299 578 q 205 538 220 558 q 182 475 190 519 q 175 361 175 431 l 175 343 l 175 343 m 294 916 l 477 778 l 445 728 l 245 850 l 294 916 l 294 916 "},"ţ":{"x_min":0,"x_max":0,"ha":386},"^":{"x_min":44.4375,"x_max":651.390625,"ha":694,"o":"m 145 519 l 44 519 l 286 927 l 409 927 l 651 519 l 548 519 l 347 853 l 145 519 l 145 519 "},"«":{"x_min":69.4375,"x_max":551.390625,"ha":621,"o":"m 236 709 l 306 666 l 161 356 l 323 44 l 255 0 l 69 356 l 236 709 l 236 709 m 463 709 l 534 666 l 388 356 l 551 44 l 483 0 l 297 356 l 463 709 l 463 709 "},"∙":{"x_min":371,"x_max":481,"ha":852,"o":"m 481 401 l 481 275 l 371 275 l 371 401 l 481 401 l 481 401 "},"ⁿ":{"x_min":0,"x_max":0,"ha":386},"í":{"x_min":16.34375,"x_max":248.671875,"ha":265,"o":"m 182 649 l 182 0 l 83 0 l 83 649 l 182 649 l 182 649 m 200 917 l 248 850 l 49 728 l 16 778 l 200 917 l 200 917 "},"ˆ":{"x_min":137.0625,"x_max":557,"ha":695,"o":"m 504 850 l 557 816 q 557 813 557 813 q 557 812 557 812 q 555 811 555 811 q 555 811 555 811 q 555 811 555 811 q 555 811 555 811 q 554 809 554 809 q 554 809 554 809 q 531 777 544 793 q 502 748 517 762 q 468 727 487 734 q 428 721 449 721 q 405 723 416 721 q 382 729 393 725 q 361 737 371 733 q 339 747 350 741 q 337 747 338 747 q 336 747 336 747 q 334 747 335 747 q 334 749 334 748 q 323 754 328 752 q 313 758 318 755 q 302 761 307 759 q 292 765 297 764 q 272 771 282 769 q 250 774 261 774 q 232 770 241 774 q 217 759 224 766 q 206 746 212 754 q 196 730 200 738 q 194 728 195 729 q 194 726 194 727 q 194 725 194 726 q 194 725 194 725 q 192 723 192 723 q 192 723 192 723 l 137 756 q 156 786 145 770 q 180 815 167 801 q 209 838 192 830 q 248 846 227 846 q 272 844 260 846 q 295 839 284 843 q 306 834 300 837 q 317 830 311 832 q 328 825 322 827 q 339 820 334 823 q 361 810 350 815 q 382 801 371 805 q 405 795 393 797 q 430 793 417 793 q 450 796 441 793 q 468 806 460 799 q 484 821 477 813 q 496 837 491 829 q 498 839 498 839 q 501 841 499 840 q 501 844 501 843 q 504 847 502 846 l 504 850 l 504 850 "},"◘":{"x_min":0,"x_max":0,"ha":386},"⌂":{"x_min":0,"x_max":0,"ha":386},"µ":{"x_min":86,"x_max":655,"ha":743,"o":"m 86 -231 l 86 664 l 187 664 l 187 288 q 187 240 187 263 q 192 195 187 217 q 205 153 195 173 q 231 117 214 134 q 259 92 244 103 q 292 74 274 81 q 328 62 309 65 q 366 59 347 59 q 440 74 408 59 q 495 121 473 90 q 533 187 519 153 q 553 259 547 221 q 553 264 553 262 q 553 269 553 266 q 553 273 553 270 q 553 278 553 275 q 553 283 553 281 q 555 288 553 285 q 555 292 555 289 q 555 298 555 295 l 555 664 l 655 664 l 655 0 l 555 0 l 555 128 q 525 68 543 95 q 482 21 507 42 q 427 -7 456 2 q 363 -17 398 -17 q 306 -10 333 -17 q 259 6 280 -4 q 219 37 238 19 q 185 81 200 56 l 185 -231 l 86 -231 l 86 -231 "},"č":{"x_min":0,"x_max":0,"ha":386},"’":{"x_min":58,"x_max":182,"ha":249,"o":"m 182 943 l 182 806 q 177 753 182 776 q 163 712 172 730 q 136 685 155 694 q 85 677 116 677 q 82 677 84 677 q 77 677 80 677 q 74 677 76 677 q 72 679 73 677 q 69 679 70 679 q 69 679 69 679 q 67 679 67 679 q 65 679 66 679 q 62 679 63 679 q 62 679 62 679 q 60 679 60 679 q 58 679 59 679 l 58 732 q 88 736 76 732 q 106 747 101 740 q 116 766 113 754 q 119 797 119 779 q 119 801 119 799 q 119 805 119 803 q 119 807 119 806 q 119 809 119 808 q 118 811 118 810 q 118 815 118 812 l 72 815 l 72 943 l 182 943 l 182 943 "},"-":{"x_min":28,"x_max":295,"ha":323,"o":"m 28 383 l 295 383 l 295 293 l 28 293 l 28 383 l 28 383 "},"Q":{"x_min":57,"x_max":898.71875,"ha":910,"o":"m 898 112 l 855 41 l 786 88 q 735 39 764 58 q 675 11 707 20 q 609 -1 643 2 q 541 -5 576 -5 q 533 -5 537 -5 q 526 -7 529 -5 q 518 -7 522 -7 q 509 -7 513 -7 q 492 -7 501 -7 q 475 -7 484 -7 q 307 2 382 -7 q 176 30 233 11 q 88 115 120 49 q 57 292 57 181 q 57 336 57 315 q 57 380 57 358 q 57 424 57 402 q 57 469 57 447 q 71 696 57 605 q 115 835 86 788 q 233 905 147 881 q 461 929 319 929 l 484 931 q 502 929 493 929 q 522 929 512 929 q 531 929 526 929 q 541 929 536 929 q 550 927 545 927 q 561 927 555 927 q 577 926 569 927 q 594 924 586 926 q 609 922 601 923 q 626 920 618 922 q 658 915 643 919 q 687 906 673 910 q 750 871 723 894 q 793 816 776 848 q 820 750 809 784 q 834 680 830 716 q 836 661 836 670 q 836 644 836 652 q 836 635 836 640 q 839 627 836 631 q 839 619 839 623 q 839 610 839 615 l 839 465 l 839 334 q 839 321 839 327 q 839 309 839 315 q 839 299 839 304 q 839 288 839 294 q 838 256 838 272 q 834 225 838 240 q 829 193 833 208 q 820 162 824 177 l 898 112 l 898 112 m 461 402 l 728 226 q 728 233 728 229 q 731 241 729 237 q 731 246 731 244 q 732 251 731 248 q 732 255 732 252 q 732 261 732 258 q 732 265 732 263 q 733 269 732 268 q 733 274 733 272 q 733 277 733 276 q 733 286 733 281 q 733 297 733 291 q 733 311 733 304 q 733 327 733 319 q 733 342 733 334 q 733 356 733 349 q 733 387 733 372 q 735 417 733 402 q 735 432 735 424 q 735 448 735 440 q 735 463 735 455 q 735 477 735 470 q 735 508 735 492 q 735 538 735 523 q 735 555 735 547 q 735 572 735 563 q 733 588 733 580 q 733 605 733 597 q 733 622 733 613 q 732 638 733 630 q 731 653 732 645 q 731 670 731 662 q 708 765 725 729 q 665 813 692 800 q 604 833 639 826 q 526 840 569 840 l 422 840 q 303 832 354 840 q 220 809 252 824 q 172 743 188 794 q 156 608 156 693 q 156 573 156 590 q 156 537 156 555 q 156 502 156 519 q 158 467 156 484 l 158 323 q 173 182 158 234 q 219 114 188 130 q 304 89 250 97 q 438 81 359 81 q 447 81 443 81 q 455 81 451 81 q 464 81 459 81 q 474 81 469 81 q 479 80 477 81 q 484 79 481 79 q 488 79 486 79 q 493 79 491 79 q 502 79 497 79 q 512 79 506 79 q 526 79 519 79 q 541 79 533 79 q 556 80 548 79 q 572 82 563 81 q 607 86 590 82 q 643 97 625 91 q 674 115 659 104 q 701 140 689 126 l 412 330 l 461 402 l 461 402 "},"M":{"x_min":89,"x_max":1104,"ha":1192,"o":"m 1104 926 l 1104 0 l 998 0 l 998 851 l 648 0 l 542 0 l 190 842 l 190 0 l 89 0 l 89 926 l 267 926 l 594 133 l 921 926 l 1104 926 l 1104 926 "},"▼":{"x_min":0,"x_max":0,"ha":386},"╗":{"x_min":0,"x_max":0,"ha":386},"œ":{"x_min":65,"x_max":1097,"ha":1162,"o":"m 1096 314 l 637 314 q 637 307 637 309 q 637 301 637 304 q 637 298 637 300 q 637 293 637 295 q 636 290 637 291 q 636 289 636 289 q 636 286 636 287 q 636 283 636 284 q 636 280 636 282 q 636 275 636 277 q 642 184 636 223 q 661 119 648 144 q 708 81 673 93 q 802 70 744 70 l 838 70 q 844 70 841 70 q 851 70 848 70 q 912 74 885 70 q 958 89 939 79 q 989 126 978 100 q 1001 196 1001 151 l 1097 196 q 1080 84 1097 127 q 1031 25 1063 41 q 950 0 998 7 q 838 -8 902 -8 l 830 -8 q 822 -8 826 -8 q 813 -8 817 -8 q 803 -8 808 -8 q 795 -8 799 -8 q 787 -8 791 -8 q 779 -8 783 -8 q 769 -6 773 -6 q 760 -6 765 -6 q 708 -1 734 -6 q 659 11 683 3 q 615 36 634 19 q 584 79 596 52 q 553 34 571 52 q 512 7 535 15 q 463 -5 488 -1 q 412 -9 438 -9 q 404 -9 408 -9 q 398 -11 401 -9 q 390 -11 394 -11 q 384 -11 387 -11 q 370 -11 377 -11 q 356 -11 363 -11 q 260 -4 306 -11 q 174 15 214 1 q 109 65 134 29 q 74 160 84 101 q 71 181 73 171 q 69 202 70 191 q 67 223 69 212 q 65 244 65 234 q 65 286 65 265 q 65 330 65 308 q 77 482 65 419 q 114 581 89 545 q 199 636 139 617 q 352 655 258 655 q 367 655 359 655 q 384 655 376 655 q 392 655 388 655 q 401 655 396 655 q 409 653 405 653 q 417 653 413 653 q 431 652 424 653 q 446 650 438 651 q 460 648 453 648 q 474 645 467 647 q 501 639 488 643 q 528 629 514 634 q 549 616 539 623 q 564 601 559 609 q 576 582 571 593 q 584 561 581 572 q 612 602 595 586 q 652 629 630 619 q 699 645 676 639 q 748 651 723 651 q 756 651 752 651 q 766 655 760 651 q 774 655 770 655 q 783 655 779 655 q 791 655 787 655 q 799 656 795 655 q 808 656 804 656 q 816 656 812 656 q 945 642 891 656 q 1031 601 999 629 q 1079 521 1063 575 q 1096 390 1096 468 l 1096 314 l 1096 314 m 165 332 l 165 290 q 171 181 165 225 q 190 112 177 137 q 242 75 202 87 q 346 64 281 64 l 359 67 q 373 64 366 64 q 388 64 380 64 q 405 64 396 64 q 424 67 414 64 q 447 72 435 70 q 469 78 459 74 q 488 86 480 81 q 502 99 496 92 q 514 119 509 107 q 524 148 520 132 q 530 182 527 165 q 533 218 533 200 q 533 226 533 222 q 536 236 533 230 q 536 244 536 240 q 536 252 536 248 q 536 269 536 261 q 536 286 536 277 l 536 337 q 536 344 536 340 q 536 354 536 348 q 534 365 534 359 q 534 376 534 370 q 534 389 534 383 q 534 401 534 395 q 533 414 533 408 q 533 426 533 420 q 529 459 531 443 q 522 493 526 476 q 512 522 517 509 q 499 543 506 534 q 484 555 494 550 q 463 564 474 561 q 440 568 452 566 q 416 571 428 569 q 412 571 414 571 q 408 574 410 571 q 404 574 406 574 q 399 574 402 574 q 391 574 395 574 q 383 574 387 574 l 321 574 q 311 572 316 572 q 301 572 306 572 q 295 572 298 572 q 291 572 292 572 q 286 571 288 571 q 281 571 284 571 q 255 567 267 569 q 231 561 242 565 q 210 550 219 557 q 195 536 202 544 q 184 516 190 527 q 176 489 178 504 q 171 459 173 475 q 167 427 169 443 q 165 404 165 415 q 165 382 165 393 q 165 361 165 370 q 165 343 165 351 l 165 332 l 165 332 m 997 394 q 989 484 997 447 q 969 540 981 522 q 918 568 956 559 q 817 578 880 578 q 723 568 760 578 q 669 540 685 559 q 643 485 652 522 q 634 393 634 448 l 998 393 l 997 394 "},"ě":{"x_min":0,"x_max":0,"ha":386},"{":{"x_min":190,"x_max":509,"ha":695,"o":"m 300 341 q 339 308 323 326 q 363 270 356 291 q 373 225 369 249 q 377 177 377 202 l 377 -35 q 383 -100 377 -74 q 404 -141 390 -127 q 444 -162 418 -155 q 509 -170 470 -170 l 509 -260 q 403 -251 449 -260 q 329 -226 358 -243 q 285 -166 300 -210 q 271 -53 271 -122 l 271 169 q 266 211 271 191 q 255 249 262 231 q 231 278 248 266 q 190 299 215 291 l 190 384 q 229 401 213 389 q 254 428 245 412 q 266 466 262 445 q 271 509 271 487 l 271 755 q 285 848 271 810 q 329 905 300 887 q 398 932 358 923 q 489 941 438 941 q 494 941 492 941 q 497 941 496 941 q 500 941 499 941 q 503 941 502 941 q 506 940 504 940 q 509 940 507 940 l 509 847 q 448 838 474 847 q 407 817 422 830 q 384 778 392 803 q 377 716 377 753 l 377 496 q 373 445 377 469 q 363 402 370 421 q 341 367 357 384 q 300 338 325 351 l 300 341 l 300 341 "},"¼":{"x_min":0,"x_max":0,"ha":386},"#":{"x_min":86.109375,"x_max":752.78125,"ha":840,"o":"m 537 322 l 498 45 l 441 45 l 480 322 l 316 322 l 277 45 l 219 45 l 258 322 l 86 322 l 94 378 l 266 378 l 288 533 l 115 533 l 123 590 l 295 590 l 331 844 l 390 844 l 354 590 l 518 590 l 552 844 l 611 844 l 575 590 l 752 590 l 744 533 l 568 533 l 545 378 l 722 378 l 715 322 l 537 322 l 537 322 m 509 533 l 345 533 l 325 378 l 487 378 l 509 533 l 509 533 "},"▄":{"x_min":0,"x_max":0,"ha":386},"Ê":{"x_min":51,"x_max":645.046875,"ha":691,"o":"m 152 833 l 152 520 l 624 520 l 624 432 l 152 432 l 152 89 l 645 89 l 645 0 l 51 0 l 51 926 l 645 926 l 645 833 l 152 833 l 152 833 m 347 1167 l 560 1035 l 531 982 l 347 1067 l 156 982 l 129 1035 l 347 1167 l 347 1167 "},")":{"x_min":69,"x_max":315,"ha":384,"o":"m 69 -149 l 69 -61 q 124 -56 100 -61 q 163 -40 148 -51 q 188 -9 178 -30 q 201 44 198 11 q 201 50 201 47 q 203 58 201 54 q 203 64 203 61 q 203 72 203 68 q 203 86 203 79 q 205 100 204 93 q 205 113 205 106 q 205 126 205 119 q 205 140 205 133 q 205 154 205 147 q 205 170 205 162 q 204 187 205 179 q 204 204 204 195 q 204 220 204 212 q 204 254 204 237 q 204 288 204 270 l 204 667 q 199 732 204 702 q 187 789 194 763 q 155 830 180 817 q 87 844 130 844 l 69 844 l 69 933 q 71 931 70 932 q 73 930 71 930 q 73 930 73 930 q 75 930 74 930 q 80 930 78 930 q 84 932 82 930 q 87 932 85 932 q 89 932 88 932 q 94 932 92 932 q 98 932 96 932 q 216 910 171 932 q 274 844 260 888 q 299 748 289 800 q 309 634 309 695 q 309 632 309 633 q 309 630 309 631 q 309 628 309 628 q 312 627 309 627 q 312 605 312 616 q 313 584 312 594 q 313 562 313 573 q 313 541 313 552 q 313 521 313 531 q 315 499 313 510 q 315 479 315 490 q 315 458 315 469 q 315 414 315 435 q 315 372 315 392 q 315 351 315 362 q 315 330 315 340 q 315 308 315 319 q 315 287 315 298 l 315 197 q 315 193 315 194 q 315 191 315 191 q 315 191 315 191 q 315 191 315 191 q 315 190 315 190 q 315 190 315 190 q 308 68 315 126 q 285 -41 301 9 q 223 -121 271 -94 q 94 -149 175 -149 l 69 -149 l 69 -149 "},"ε":{"x_min":0,"x_max":0,"ha":386},"Å":{"x_min":7.265625,"x_max":839.71875,"ha":847,"o":"m 657 196 l 189 196 l 118 0 l 7 0 l 344 926 l 493 926 l 839 0 l 730 0 l 657 196 l 657 196 m 627 281 l 421 850 l 217 281 l 627 281 l 627 281 m 424 978 q 421 977 422 977 q 421 977 421 977 q 419 977 419 977 q 417 977 418 977 q 381 984 397 977 q 349 1007 364 992 q 324 1040 332 1022 q 317 1082 317 1059 q 324 1121 317 1102 q 349 1155 332 1140 q 383 1179 364 1171 q 424 1188 401 1188 q 463 1179 445 1188 q 497 1155 482 1171 q 521 1121 513 1140 q 530 1081 530 1102 q 521 1040 530 1059 q 497 1007 513 1022 q 463 982 482 990 q 424 975 444 975 l 424 978 l 424 978 m 424 1023 q 426 1022 425 1022 q 429 1022 428 1022 q 448 1026 439 1022 q 465 1038 457 1030 q 479 1058 474 1047 q 484 1082 484 1069 q 479 1103 484 1093 q 465 1123 474 1114 q 445 1137 456 1132 q 424 1142 435 1142 q 400 1137 411 1142 q 381 1123 389 1132 q 367 1103 371 1114 q 363 1081 363 1093 q 367 1058 363 1069 q 381 1038 371 1047 q 400 1025 389 1028 q 424 1021 411 1021 l 424 1023 l 424 1023 "},"▀":{"x_min":0,"x_max":0,"ha":386},"¸":{"x_min":262.5,"x_max":433.328125,"ha":694,"o":"m 356 -48 l 433 -91 l 323 -243 l 262 -211 l 356 -48 l 356 -48 "},"a":{"x_min":60,"x_max":620,"ha":705,"o":"m 182 461 l 82 461 q 100 565 82 526 q 155 619 118 605 q 237 640 191 633 q 339 647 283 647 q 458 637 405 647 q 546 609 510 628 q 601 543 582 591 q 620 419 620 495 l 620 0 l 531 0 l 531 66 q 488 22 513 38 q 435 0 462 5 q 377 -8 407 -5 q 315 -11 347 -11 q 208 -3 255 -11 q 127 22 161 4 q 76 82 93 40 q 60 191 60 125 q 78 297 60 257 q 130 354 96 337 q 212 379 166 371 q 312 388 257 388 q 320 388 316 388 q 328 388 323 388 q 336 386 332 386 q 344 386 340 386 q 353 386 348 386 q 361 386 357 386 q 369 385 365 385 q 378 385 373 385 q 390 384 385 385 q 403 382 396 383 q 414 380 408 380 q 426 378 421 379 q 451 373 439 376 q 474 365 462 369 q 488 358 481 362 q 500 347 494 354 q 510 335 506 342 q 520 321 515 328 l 520 401 q 511 496 520 458 q 486 547 503 533 q 431 569 469 562 q 333 576 393 576 q 327 576 330 576 q 321 576 323 576 q 314 574 318 574 q 307 574 311 574 q 298 574 303 574 q 291 574 294 574 q 284 574 287 574 q 277 574 280 574 q 257 571 268 572 q 239 567 247 569 q 222 560 229 564 q 208 551 215 555 q 196 539 201 546 q 188 526 191 533 q 184 511 186 519 q 182 495 182 504 q 181 493 182 494 q 181 491 181 491 q 181 488 181 490 q 181 486 181 487 q 181 482 181 484 q 181 477 181 480 q 181 474 181 476 q 181 473 181 473 q 181 470 181 472 q 181 467 181 469 q 181 465 181 466 q 181 463 181 463 q 181 461 181 462 q 182 458 182 459 l 182 461 l 182 461 m 160 205 q 168 132 160 160 q 194 90 176 103 q 240 70 211 76 q 309 64 269 64 q 323 64 316 64 q 339 64 330 64 q 353 64 346 64 q 369 65 361 64 q 425 71 398 65 q 476 90 451 78 q 513 125 500 101 q 525 186 525 149 q 512 257 525 230 q 472 293 499 283 q 414 308 446 303 q 346 313 382 313 l 322 315 q 316 313 319 314 q 309 313 312 313 q 302 313 305 313 q 296 313 298 313 q 288 313 291 313 q 282 313 284 313 q 274 311 277 311 q 268 311 271 311 q 243 306 255 309 q 220 301 232 304 q 200 293 209 298 q 183 281 190 288 q 173 272 178 277 q 166 259 169 266 q 163 244 165 252 q 161 230 161 237 q 160 222 160 226 q 160 216 160 219 q 160 208 160 212 q 160 202 160 205 l 160 205 l 160 205 "},"Ę":{"x_min":0,"x_max":0,"ha":386},"=":{"x_min":32,"x_max":663,"ha":695,"o":"m 32 404 l 663 404 l 663 347 l 32 347 l 32 404 l 32 404 m 32 600 l 663 600 l 663 543 l 32 543 l 32 600 l 32 600 "},"˚":{"x_min":242,"x_max":455,"ha":695,"o":"m 349 695 q 346 693 347 693 q 346 693 346 693 q 344 693 344 693 q 342 693 343 693 q 306 701 322 693 q 274 724 289 708 q 249 757 257 739 q 242 799 242 776 q 249 838 242 819 q 274 872 257 857 q 308 896 289 888 q 349 905 326 905 q 388 896 370 905 q 422 872 407 888 q 446 838 438 857 q 455 798 455 819 q 446 757 455 776 q 422 724 438 739 q 388 699 407 707 q 349 692 369 692 l 349 695 l 349 695 m 349 740 q 351 739 350 739 q 354 739 353 739 q 373 743 364 739 q 390 755 382 747 q 404 775 399 764 q 409 799 409 786 q 404 820 409 810 q 390 840 399 831 q 370 854 381 849 q 349 859 360 859 q 325 854 336 859 q 306 840 314 849 q 292 820 296 831 q 288 799 288 810 q 292 775 288 786 q 306 755 296 764 q 325 741 314 745 q 349 738 336 738 l 349 740 l 349 740 "},"ú":{"x_min":83,"x_max":621,"ha":704,"o":"m 621 649 l 621 0 l 530 0 l 530 86 q 485 32 509 52 q 434 4 462 12 q 376 -5 408 -1 q 308 -10 344 -10 q 207 3 249 -10 q 137 43 165 16 q 96 113 110 70 q 83 213 83 155 l 83 648 l 182 648 l 182 216 q 189 142 182 172 q 211 98 197 113 q 255 75 226 83 q 329 68 284 68 q 424 78 386 68 q 483 111 463 88 q 512 169 502 131 q 522 263 522 208 l 522 649 l 621 649 l 621 649 m 419 915 l 467 849 l 269 726 l 236 776 l 419 915 l 419 915 "},"¯":{"x_min":0,"x_max":0,"ha":386},"Z":{"x_min":33,"x_max":755,"ha":787,"o":"m 743 927 l 743 828 l 159 92 l 755 92 l 755 0 l 33 0 l 33 92 l 613 828 l 50 828 l 50 927 l 743 927 l 743 927 "},"u":{"x_min":83,"x_max":621,"ha":704,"o":"m 621 649 l 621 0 l 530 0 l 530 86 q 485 32 509 52 q 434 4 462 12 q 376 -5 408 -1 q 308 -10 344 -10 q 207 3 249 -10 q 137 43 165 16 q 96 113 110 70 q 83 213 83 155 l 83 648 l 182 648 l 182 216 q 189 142 182 172 q 211 98 197 113 q 255 75 226 83 q 329 68 284 68 q 424 78 386 68 q 483 111 463 88 q 512 169 502 131 q 522 263 522 208 l 522 649 l 621 649 l 621 649 "},"k":{"x_min":83,"x_max":623.671875,"ha":601,"o":"m 182 926 l 182 388 l 220 388 l 454 649 l 573 649 l 297 350 l 623 0 l 495 0 l 220 313 l 182 313 l 182 0 l 83 0 l 83 926 l 182 926 l 182 926 "},"Ù":{"x_min":89,"x_max":822,"ha":910,"o":"m 718 926 l 822 926 l 822 277 q 808 151 822 203 q 767 65 795 98 q 688 14 741 31 q 558 -2 636 -2 q 544 -2 551 -2 q 532 -5 537 -2 q 518 -5 525 -5 q 505 -5 512 -5 q 493 -5 500 -5 q 480 -7 486 -5 q 467 -7 473 -7 q 454 -7 461 -7 q 302 2 369 -7 q 186 31 234 11 q 113 113 137 52 q 89 274 89 173 l 89 926 l 195 926 l 195 277 q 205 176 195 216 q 236 117 215 137 q 297 91 257 100 q 396 83 337 83 l 497 83 q 601 90 558 83 q 669 114 644 98 q 705 171 693 131 q 718 274 718 210 l 718 926 l 718 926 m 389 1174 l 572 1035 l 540 985 l 340 1107 l 389 1174 l 389 1174 "},"Ů":{"x_min":0,"x_max":0,"ha":386},"¢":{"x_min":126,"x_max":691,"ha":851,"o":"m 451 682 l 451 173 q 529 182 499 173 q 571 210 559 192 q 590 259 584 228 q 597 336 597 290 l 691 336 q 677 224 691 271 q 638 148 664 177 q 565 105 611 119 q 451 92 519 92 l 451 -4 l 372 -4 l 372 95 q 235 118 287 95 q 163 189 183 142 q 135 295 145 236 q 126 426 126 354 q 136 553 126 494 q 169 658 146 611 q 240 731 190 707 q 372 755 291 755 l 372 849 l 451 849 l 451 757 q 553 743 509 757 q 623 707 596 730 q 665 640 651 682 q 679 539 679 598 l 583 539 q 576 603 583 576 q 559 646 570 630 q 522 669 549 661 q 451 678 495 678 l 451 682 l 451 682 m 372 683 q 290 661 320 676 q 249 619 260 646 q 234 555 240 593 q 229 469 229 518 l 229 426 q 229 409 229 416 q 229 394 229 401 q 229 379 229 387 q 230 365 229 372 q 231 336 230 351 q 234 306 233 322 q 239 279 237 293 q 245 253 241 265 q 264 210 252 226 q 291 186 276 193 q 326 175 306 179 q 372 171 347 171 l 372 683 l 372 683 "},"◙":{"x_min":0,"x_max":0,"ha":386},"Ş":{"x_min":0,"x_max":0,"ha":386},"é":{"x_min":67,"x_max":634,"ha":698,"o":"m 534 198 l 634 198 q 614 80 634 124 q 557 21 595 36 q 468 -1 518 5 q 357 -8 418 -8 q 207 8 265 -8 q 121 60 148 25 q 80 155 94 94 q 67 305 67 217 q 77 455 67 390 q 108 565 87 519 q 187 633 129 610 q 343 656 246 656 q 492 640 433 656 q 577 594 551 625 q 618 503 605 564 q 632 352 632 443 l 632 307 l 167 307 q 172 206 167 250 q 189 131 178 163 q 239 81 200 97 q 343 66 278 66 l 369 68 q 383 66 376 66 q 398 66 390 66 q 415 66 407 66 q 433 68 423 67 q 443 69 439 68 q 454 70 448 70 q 463 72 458 71 q 473 75 468 74 q 491 81 483 78 q 507 90 500 85 q 518 101 513 95 q 525 115 523 107 q 529 132 527 124 q 532 149 530 140 q 532 152 532 150 q 534 154 532 153 q 534 158 534 156 q 534 161 534 160 q 534 168 534 164 q 534 174 534 171 l 534 198 l 534 198 m 536 382 q 529 480 536 440 q 506 540 522 519 q 454 570 493 560 q 351 581 415 581 q 258 570 296 581 q 203 539 221 560 q 176 478 185 518 q 168 381 168 438 l 536 381 l 536 382 m 418 917 l 466 850 l 268 728 l 235 778 l 418 917 l 418 917 "},"↓":{"x_min":0,"x_max":0,"ha":386},"B":{"x_min":87,"x_max":799,"ha":855,"o":"m 87 0 l 87 925 l 533 925 q 639 912 594 925 q 713 876 684 899 q 757 805 742 851 q 772 694 772 760 q 767 622 772 655 q 751 562 762 588 q 716 516 741 535 q 652 483 692 497 q 727 451 697 470 q 771 405 757 431 q 792 343 785 379 q 799 263 799 308 q 786 153 799 201 q 749 68 774 104 q 676 16 724 33 q 559 0 628 0 l 87 0 l 87 0 m 191 88 l 477 88 q 578 94 537 88 q 643 112 620 100 q 679 162 667 125 q 691 259 691 199 q 684 324 691 294 q 667 377 678 354 q 629 413 656 401 q 557 426 602 426 l 524 429 l 191 429 l 191 89 l 191 88 m 191 522 l 484 522 q 490 520 487 520 q 495 520 494 520 q 575 528 542 520 q 626 552 608 537 q 655 602 645 569 q 665 685 665 635 q 657 756 665 727 q 634 801 649 785 q 592 824 620 816 q 521 833 563 833 l 191 833 l 191 522 l 191 522 "},"…":{"x_min":83,"x_max":745,"ha":828,"o":"m 193 126 l 193 0 l 83 0 l 83 126 l 193 126 l 193 126 m 469 126 l 469 0 l 359 0 l 359 126 l 469 126 l 469 126 m 745 126 l 745 0 l 635 0 l 635 126 l 745 126 l 745 126 "},"H":{"x_min":89,"x_max":839,"ha":927,"o":"m 839 926 l 839 0 l 733 0 l 733 428 l 192 428 l 192 0 l 89 0 l 89 926 l 192 926 l 192 517 l 733 517 l 733 926 l 839 926 l 839 926 "},"î":{"x_min":-82.265625,"x_max":348.671875,"ha":265,"o":"m 182 649 l 182 0 l 83 0 l 83 649 l 182 649 l 182 649 m 135 908 l 348 776 l 319 724 l 135 808 l -55 724 l -82 776 l 135 908 l 135 908 "},"−":{"x_min":0,"x_max":0,"ha":386},"≠":{"x_min":0,"x_max":0,"ha":386},"‼":{"x_min":0,"x_max":0,"ha":386},"¥":{"x_min":46.828125,"x_max":804.171875,"ha":851,"o":"m 623 632 l 750 632 l 750 546 l 570 546 l 485 408 l 750 408 l 750 322 l 473 322 l 473 0 l 369 0 l 369 322 l 101 322 l 101 408 l 356 408 l 274 546 l 101 546 l 101 632 l 223 632 l 46 926 l 167 926 l 424 493 l 680 926 l 804 926 l 623 632 l 623 632 "},"U":{"x_min":89,"x_max":822,"ha":910,"o":"m 718 926 l 822 926 l 822 277 q 808 151 822 203 q 767 65 795 98 q 688 14 741 31 q 558 -2 636 -2 q 544 -2 551 -2 q 532 -5 537 -2 q 518 -5 525 -5 q 505 -5 512 -5 q 493 -5 500 -5 q 480 -7 486 -5 q 467 -7 473 -7 q 454 -7 461 -7 q 302 2 369 -7 q 186 31 234 11 q 113 113 137 52 q 89 274 89 173 l 89 926 l 195 926 l 195 277 q 205 176 195 216 q 236 117 215 137 q 297 91 257 100 q 396 83 337 83 l 497 83 q 601 90 558 83 q 669 114 644 98 q 705 171 693 131 q 718 274 718 210 l 718 926 l 718 926 "},"╫":{"x_min":0,"x_max":0,"ha":386},"Ñ":{"x_min":87,"x_max":878,"ha":966,"o":"m 878 926 l 878 0 l 709 0 l 188 837 l 188 0 l 87 0 l 87 926 l 256 926 l 777 80 l 777 926 l 878 926 l 878 926 m 640 1128 l 693 1094 q 693 1091 693 1091 q 693 1090 693 1090 q 691 1089 691 1089 q 691 1089 691 1089 q 691 1089 691 1089 q 691 1089 691 1089 q 690 1087 690 1087 q 690 1087 690 1087 q 667 1055 680 1071 q 638 1026 653 1040 q 604 1005 623 1012 q 564 999 585 999 q 541 1001 552 999 q 518 1007 529 1003 q 497 1015 507 1011 q 475 1025 486 1019 q 473 1025 474 1025 q 472 1025 472 1025 q 470 1025 471 1025 q 470 1027 470 1026 q 459 1032 464 1030 q 449 1036 454 1033 q 438 1039 443 1037 q 428 1043 433 1042 q 408 1049 418 1047 q 386 1052 397 1052 q 368 1048 377 1052 q 353 1037 360 1044 q 342 1024 348 1032 q 332 1008 336 1016 q 330 1006 331 1007 q 330 1004 330 1005 q 330 1003 330 1004 q 330 1003 330 1003 q 328 1001 328 1001 q 328 1001 328 1001 l 272 1034 q 292 1064 281 1048 q 316 1093 303 1079 q 345 1116 328 1108 q 384 1124 363 1124 q 408 1122 396 1124 q 431 1117 420 1121 q 442 1112 436 1115 q 453 1108 447 1110 q 464 1103 458 1105 q 475 1098 470 1101 q 497 1088 486 1093 q 518 1079 507 1083 q 541 1073 529 1075 q 566 1071 553 1071 q 586 1074 577 1071 q 605 1084 596 1077 q 620 1099 613 1091 q 632 1115 627 1107 q 634 1117 634 1117 q 637 1119 635 1118 q 637 1122 637 1121 q 640 1125 638 1124 l 640 1128 l 640 1128 "},"F":{"x_min":87,"x_max":654.109375,"ha":678,"o":"m 193 834 l 193 512 l 643 512 l 643 424 l 193 424 l 193 0 l 87 0 l 87 927 l 654 927 l 654 834 l 193 834 l 193 834 "},"╤":{"x_min":0,"x_max":0,"ha":386},"←":{"x_min":0,"x_max":0,"ha":386},"ă":{"x_min":0,"x_max":0,"ha":386},"*":{"x_min":179.109375,"x_max":673.5,"ha":851,"o":"m 673 725 l 483 657 l 597 495 l 542 455 l 427 623 l 304 455 l 249 495 l 368 657 l 179 730 l 202 795 l 393 725 l 393 926 l 461 926 l 461 725 l 649 796 l 673 725 l 673 725 "},"†":{"x_min":161,"x_max":692,"ha":852,"o":"m 477 926 l 477 671 l 692 671 l 692 590 l 477 590 l 477 -250 l 376 -250 l 376 590 l 161 590 l 161 671 l 376 671 l 376 926 l 477 926 l 477 926 "},"∕":{"x_min":0,"x_max":698.609375,"ha":699,"o":"m 698 926 l 69 0 l 0 0 l 625 926 l 698 926 l 698 926 "},"°":{"x_min":0,"x_max":0,"ha":386},"↨":{"x_min":0,"x_max":0,"ha":386},"å":{"x_min":60,"x_max":620,"ha":705,"o":"m 182 461 l 82 461 q 100 565 82 526 q 155 619 118 605 q 237 640 191 633 q 339 647 283 647 q 458 637 406 647 q 546 609 510 628 q 601 543 582 591 q 620 419 620 495 l 620 0 l 531 0 l 531 66 q 488 22 513 38 q 435 0 462 5 q 377 -8 407 -5 q 315 -11 347 -11 q 208 -3 255 -11 q 127 22 161 4 q 76 82 93 40 q 60 191 60 125 q 78 297 60 257 q 130 354 96 337 q 212 379 166 371 q 312 388 257 388 q 320 388 316 388 q 328 388 323 388 q 336 386 332 386 q 344 386 340 386 q 353 386 348 386 q 361 386 357 386 q 369 385 365 385 q 378 385 373 385 q 390 384 385 385 q 403 382 396 383 q 415 380 408 380 q 426 378 421 379 q 451 373 439 376 q 474 365 463 369 q 488 358 481 362 q 500 347 495 354 q 510 335 506 342 q 520 321 515 328 l 520 401 q 511 496 520 458 q 486 547 503 533 q 431 569 470 562 q 333 576 393 576 q 327 576 330 576 q 321 576 323 576 q 314 574 318 574 q 307 574 311 574 q 298 574 303 574 q 292 574 294 574 q 284 574 287 574 q 278 574 280 574 q 257 571 268 572 q 239 567 247 569 q 222 560 229 564 q 208 551 215 555 q 196 539 201 546 q 188 526 191 533 q 184 511 186 519 q 182 495 182 504 q 181 493 182 494 q 181 491 181 491 q 181 488 181 490 q 181 486 181 487 q 181 482 181 484 q 181 477 181 480 q 181 474 181 476 q 181 473 181 473 q 181 470 181 472 q 181 467 181 469 q 181 465 181 466 q 181 463 181 463 q 181 461 181 462 q 182 458 182 459 l 182 461 l 182 461 m 160 205 q 168 132 160 160 q 194 90 176 103 q 240 70 211 76 q 309 64 269 64 q 323 64 316 64 q 339 64 330 64 q 353 64 346 64 q 369 65 361 64 q 425 71 399 65 q 477 90 451 78 q 513 125 500 101 q 525 186 525 149 q 512 257 525 230 q 472 293 499 283 q 414 308 446 303 q 346 313 382 313 l 322 315 q 316 313 319 314 q 310 313 312 313 q 302 313 305 313 q 296 313 298 313 q 288 313 292 313 q 282 313 285 313 q 274 311 278 311 q 268 311 271 311 q 243 306 255 309 q 220 301 232 304 q 200 293 209 298 q 183 281 190 288 q 173 272 178 277 q 166 259 169 266 q 163 244 165 252 q 161 230 161 237 q 160 222 160 226 q 160 216 160 219 q 160 208 160 212 q 160 202 160 205 l 160 205 l 160 205 m 353 694 q 350 693 351 693 q 350 693 350 693 q 348 693 348 693 q 346 693 347 693 q 310 700 326 693 q 278 723 293 708 q 253 757 261 739 q 246 798 246 776 q 253 837 246 819 q 278 871 261 856 q 312 895 293 887 q 353 904 330 904 q 392 895 374 904 q 427 872 411 887 q 450 838 442 856 q 459 798 459 819 q 450 757 459 776 q 426 723 442 739 q 392 699 411 706 q 353 692 373 692 l 353 694 l 353 694 m 353 740 q 355 739 354 739 q 358 739 357 739 q 377 743 368 739 q 394 755 386 747 q 408 774 403 763 q 413 798 413 786 q 408 819 413 809 q 394 840 403 830 q 374 853 385 848 q 353 858 364 858 q 329 853 340 858 q 310 840 318 848 q 296 819 300 830 q 292 798 292 809 q 296 774 292 786 q 310 755 300 763 q 329 741 318 745 q 353 737 340 737 l 353 740 l 353 740 "},"0":{"x_min":32,"x_max":821.15625,"ha":852,"o":"m 35 474 q 35 524 35 498 q 35 576 35 549 q 35 626 35 601 q 35 678 35 652 q 45 749 35 715 q 75 813 56 783 q 122 868 95 845 q 183 905 149 891 q 215 916 199 912 q 249 922 232 920 q 283 926 265 926 q 318 926 300 926 q 324 926 321 926 q 332 926 328 926 q 338 926 335 926 q 344 926 342 926 q 351 926 347 926 q 358 929 354 926 q 364 929 361 929 q 372 929 368 929 q 385 929 379 929 q 397 929 392 929 q 411 929 404 929 q 425 929 418 929 q 604 916 529 929 q 722 879 679 904 q 791 783 766 854 q 817 597 817 712 q 817 580 817 588 q 817 563 817 572 q 817 555 817 559 q 817 548 817 551 q 819 540 817 544 q 821 531 821 535 q 821 515 821 523 q 821 498 821 506 q 821 481 821 490 q 821 465 821 473 q 821 440 821 452 q 821 417 821 428 q 819 393 819 405 q 819 370 819 381 q 819 346 819 358 q 819 323 819 334 q 817 298 817 310 q 817 274 817 287 q 800 159 817 209 q 752 72 783 108 q 673 16 722 36 q 555 -3 623 -3 q 528 -7 541 -7 q 501 -7 515 -7 q 474 -7 487 -7 q 447 -7 461 -7 l 373 -7 q 247 2 304 -7 q 143 34 190 12 q 69 106 95 56 q 36 235 42 156 q 34 277 36 256 q 32 319 32 298 q 32 360 32 339 q 32 403 32 381 l 32 474 l 35 474 m 139 467 l 139 294 q 147 215 139 250 q 169 149 155 180 q 215 102 185 118 q 293 87 246 87 q 302 87 297 87 q 312 87 307 87 q 321 85 317 85 q 332 85 326 85 q 342 85 337 85 q 353 85 347 85 q 362 83 357 83 q 372 83 367 83 q 375 83 373 83 q 378 83 376 83 q 379 83 378 83 q 382 83 380 83 q 387 83 385 83 q 393 83 390 83 q 416 81 404 81 q 441 81 429 81 q 466 81 454 81 q 491 81 479 81 q 589 90 547 81 q 658 117 630 99 q 700 183 686 137 q 714 304 714 230 l 714 468 l 714 618 q 701 732 714 687 q 665 799 689 778 q 594 831 641 820 q 478 843 547 843 l 375 843 q 283 835 325 843 q 210 815 242 827 q 159 763 176 802 q 142 658 142 723 q 140 646 142 652 q 139 634 139 640 q 138 622 138 627 q 138 609 138 616 q 138 585 138 597 q 138 562 138 573 q 138 537 138 549 q 138 512 138 524 q 138 487 138 499 q 138 465 138 476 l 138 467 l 139 467 "},"":{"x_min":0,"x_max":0,"ha":386},"”":{"x_min":58,"x_max":376,"ha":443,"o":"m 182 943 l 182 806 q 177 753 182 776 q 163 712 172 730 q 136 685 155 694 q 85 677 116 677 q 82 677 84 677 q 77 677 80 677 q 74 677 76 677 q 72 679 73 677 q 69 679 70 679 q 69 679 69 679 q 67 679 67 679 q 65 679 66 679 q 62 679 63 679 q 62 679 62 679 q 60 679 60 679 q 58 679 59 679 l 58 732 q 88 736 76 732 q 106 747 101 740 q 116 766 113 754 q 119 797 119 779 q 119 801 119 799 q 119 805 119 803 q 119 807 119 806 q 119 809 119 808 q 118 811 118 810 q 118 815 118 812 l 72 815 l 72 943 l 182 943 l 182 943 m 376 943 l 376 806 q 371 753 376 776 q 357 712 366 730 q 330 685 349 694 q 279 677 310 677 q 276 677 278 677 q 271 677 274 677 q 268 677 270 677 q 266 679 267 677 q 264 679 264 679 q 263 679 263 679 q 261 679 262 679 q 259 679 260 679 q 257 679 258 679 q 256 679 256 679 q 254 679 255 679 q 253 679 254 679 l 253 732 q 282 736 270 732 q 300 747 295 740 q 310 766 307 754 q 313 797 313 779 q 313 801 313 799 q 313 805 313 803 q 313 807 313 806 q 313 809 313 808 q 312 811 312 810 q 312 815 312 812 l 266 815 l 266 943 l 376 943 l 376 943 "},"ö":{"x_min":75,"x_max":649,"ha":705,"o":"m 75 341 q 86 482 75 422 q 123 580 98 541 q 205 637 148 618 q 351 657 262 657 q 505 640 444 657 q 593 591 565 623 q 635 498 621 559 q 649 344 649 436 q 639 199 649 264 q 614 86 630 134 q 539 12 597 36 q 380 -11 480 -11 q 233 2 293 -11 q 140 41 173 15 q 90 127 106 69 q 75 277 75 186 l 75 341 l 75 341 m 175 343 l 175 289 q 175 279 175 283 q 175 272 175 275 q 175 264 175 268 q 175 255 175 259 q 175 239 175 247 q 176 225 175 232 q 179 185 176 204 q 186 148 182 166 q 196 116 190 130 q 212 93 203 102 q 229 81 219 86 q 250 73 239 76 q 273 68 261 70 q 298 66 285 66 q 301 66 299 66 q 304 66 302 66 q 305 68 304 68 q 308 68 306 68 q 313 68 311 68 q 319 68 316 68 l 363 68 q 367 68 364 68 q 370 68 369 68 q 373 68 371 68 q 377 68 376 68 q 442 73 413 68 q 492 90 471 79 q 529 130 516 101 q 543 205 543 159 q 543 214 543 209 q 546 225 543 219 q 546 234 546 229 q 546 243 546 239 q 546 251 546 247 q 547 261 546 255 q 547 270 547 265 q 547 280 547 275 q 547 289 547 284 q 549 298 547 293 q 549 307 549 302 q 549 316 549 312 q 549 335 549 326 q 549 354 549 344 q 543 456 549 414 q 526 525 537 498 q 479 563 514 550 q 384 576 443 576 l 363 578 q 260 568 299 578 q 205 538 220 558 q 182 475 190 519 q 175 361 175 431 l 175 343 l 175 343 m 293 807 l 293 715 l 185 715 l 185 807 l 293 807 l 293 807 m 540 807 l 540 715 l 430 715 l 430 807 l 540 807 l 540 807 "},"☺":{"x_min":0,"x_max":0,"ha":386},"╧":{"x_min":0,"x_max":0,"ha":386},"Õ":{"x_min":51,"x_max":774,"ha":827,"o":"m 51 446 l 51 501 q 60 672 51 594 q 88 810 70 749 q 173 903 107 872 q 352 935 239 935 l 397 935 q 563 922 492 935 q 681 886 634 909 q 751 795 729 862 q 774 620 774 729 q 774 578 774 599 q 774 538 774 558 q 774 497 774 517 q 774 455 774 476 q 774 372 774 413 q 774 291 774 331 q 755 146 774 206 q 704 53 737 87 q 610 4 670 20 q 463 -11 551 -11 q 457 -11 460 -11 q 452 -11 454 -11 q 449 -11 450 -11 q 447 -11 447 -11 q 445 -11 446 -11 q 442 -11 443 -11 q 436 -11 439 -11 q 431 -11 434 -11 q 428 -11 429 -11 q 427 -11 427 -11 q 424 -11 425 -11 q 421 -11 422 -11 q 410 -10 415 -10 q 400 -10 404 -10 q 390 -10 395 -10 q 381 -10 385 -10 q 242 1 302 -10 q 142 37 182 12 q 78 117 102 60 q 54 262 54 173 q 54 308 54 285 q 54 353 54 331 q 54 376 54 364 q 54 399 54 387 q 54 421 54 410 q 54 444 54 433 l 54 446 l 51 446 m 158 451 l 158 302 q 168 187 158 232 q 198 120 178 142 q 263 87 217 98 q 379 76 308 76 q 513 83 457 76 q 602 107 569 91 q 652 175 634 124 q 670 310 670 226 q 670 348 670 330 q 670 385 670 367 q 670 405 670 395 q 673 424 670 414 q 673 444 673 434 q 673 463 673 453 q 673 483 673 473 q 673 502 673 492 q 673 520 673 510 q 673 539 673 530 q 673 559 673 549 q 673 578 673 569 q 673 596 673 587 q 673 616 673 606 q 657 752 673 702 q 612 816 642 802 q 529 839 581 831 q 403 847 477 847 l 368 847 q 266 837 307 847 q 203 808 224 827 q 170 742 182 790 q 158 619 158 694 l 158 451 l 158 451 m 572 1129 l 625 1095 q 625 1092 625 1092 q 625 1091 625 1091 q 623 1090 623 1090 q 623 1090 623 1090 q 623 1090 623 1090 q 623 1090 623 1090 q 622 1088 622 1088 q 622 1088 622 1088 q 599 1056 612 1072 q 570 1027 585 1041 q 536 1006 555 1013 q 496 1000 517 1000 q 473 1002 484 1000 q 450 1008 461 1004 q 429 1016 439 1012 q 407 1026 418 1020 q 405 1026 406 1026 q 404 1026 404 1026 q 402 1026 403 1026 q 402 1028 402 1027 q 391 1033 396 1031 q 381 1037 386 1034 q 370 1040 375 1038 q 360 1044 365 1043 q 340 1050 350 1048 q 318 1053 329 1053 q 300 1049 309 1053 q 285 1038 292 1045 q 274 1025 280 1033 q 264 1009 268 1017 q 262 1007 263 1008 q 262 1005 262 1006 q 262 1004 262 1005 q 262 1004 262 1004 q 260 1002 260 1002 q 260 1002 260 1002 l 205 1035 q 224 1065 213 1049 q 248 1094 235 1080 q 277 1117 260 1109 q 316 1125 295 1125 q 340 1123 328 1125 q 363 1118 352 1122 q 374 1113 368 1116 q 385 1109 379 1111 q 396 1104 390 1106 q 407 1099 402 1102 q 429 1089 418 1094 q 450 1080 439 1084 q 473 1074 461 1076 q 498 1072 485 1072 q 518 1075 509 1072 q 537 1085 528 1078 q 552 1100 545 1092 q 564 1116 559 1108 q 566 1118 566 1118 q 569 1120 567 1119 q 569 1123 569 1122 q 572 1126 570 1125 l 572 1129 l 572 1129 "},"╠":{"x_min":0,"x_max":0,"ha":386},"═":{"x_min":0,"x_max":0,"ha":386},"ć":{"x_min":0,"x_max":0,"ha":386},"þ":{"x_min":0,"x_max":0,"ha":386},"]":{"x_min":72.65625,"x_max":309,"ha":385,"o":"m 309 -139 l 72 -139 l 72 -59 l 206 -59 l 206 846 l 72 846 l 72 927 l 309 927 l 309 -139 l 309 -139 "},"8":{"x_min":71,"x_max":761,"ha":851,"o":"m 603 482 q 687 452 654 469 q 733 411 719 434 q 754 351 747 389 q 761 262 761 314 q 755 175 761 215 q 739 99 750 135 q 696 39 729 64 q 611 2 664 15 q 599 0 605 1 q 587 0 593 0 q 575 0 580 0 q 562 -2 569 -1 q 537 -5 550 -5 q 512 -6 525 -5 q 500 -6 507 -6 q 487 -8 494 -6 q 475 -8 482 -8 q 462 -8 469 -8 q 437 -8 450 -8 q 414 -8 425 -8 q 255 1 321 -8 q 150 30 190 10 q 91 110 111 50 q 71 268 71 169 q 78 356 71 319 q 100 415 86 393 q 148 453 115 437 q 230 479 180 469 q 150 505 182 489 q 106 544 119 522 q 88 603 94 568 q 82 684 82 638 q 99 818 82 766 q 151 892 116 871 q 241 923 186 913 q 373 934 297 934 l 457 934 q 585 923 530 934 q 678 892 640 912 q 733 819 714 871 q 752 686 752 768 q 745 604 752 639 q 726 546 739 569 q 683 507 714 523 q 603 479 651 490 l 603 482 l 603 482 m 175 262 q 180 180 175 214 q 197 126 186 147 q 240 94 208 105 q 323 83 272 83 q 332 83 327 83 q 340 83 336 83 q 348 82 344 82 q 357 82 352 82 q 374 82 365 82 q 393 82 383 82 q 401 81 397 82 q 411 81 405 81 q 419 81 415 81 q 427 81 423 81 q 436 81 432 81 q 446 81 440 81 q 454 81 450 81 q 462 81 458 81 q 556 88 518 81 q 617 111 594 96 q 648 162 637 126 q 660 255 660 198 q 654 323 660 293 q 638 375 648 353 q 601 410 628 397 q 530 428 573 423 q 516 429 523 428 q 501 430 508 430 q 485 432 493 432 q 471 432 477 432 q 456 432 464 432 q 441 432 448 432 q 425 432 433 432 q 411 432 418 432 l 358 432 q 282 426 315 432 q 223 409 248 420 q 186 366 198 398 q 175 283 175 335 l 175 262 l 175 262 m 188 694 l 188 665 q 188 655 188 659 q 188 647 188 651 q 188 639 188 643 q 189 632 188 634 q 191 605 189 618 q 198 579 194 591 q 211 558 202 566 q 230 543 219 550 q 251 534 240 537 q 275 527 262 530 q 300 524 287 526 q 326 521 312 522 q 334 521 330 521 q 344 521 339 521 q 352 521 348 521 q 361 521 357 521 q 377 521 369 521 q 394 521 386 521 l 459 521 q 464 521 462 521 q 468 521 465 521 q 471 521 469 521 q 475 521 473 521 q 545 526 515 521 q 597 543 575 532 q 633 584 621 554 q 646 665 646 615 l 646 705 q 646 712 646 708 q 646 722 646 716 q 646 727 646 725 q 646 732 646 729 q 645 737 645 734 q 645 743 645 740 q 641 764 643 754 q 636 784 639 775 q 626 804 632 796 q 612 818 621 812 q 594 827 604 823 q 568 834 583 832 q 538 839 554 837 q 507 843 522 841 q 496 843 501 843 q 487 846 491 843 q 477 846 482 846 q 468 846 472 846 q 450 846 458 846 q 434 846 441 846 l 394 846 q 377 843 386 843 q 357 843 368 843 q 346 843 351 843 q 337 843 341 843 q 327 841 332 841 q 316 841 322 841 q 288 838 302 840 q 259 833 273 836 q 234 826 245 830 q 215 815 223 822 q 201 800 207 808 q 193 780 195 791 q 189 760 190 771 q 188 739 188 750 q 188 736 188 737 q 188 733 188 734 q 188 731 188 732 q 188 729 188 730 l 188 694 l 188 694 "},"R":{"x_min":87,"x_max":799,"ha":864,"o":"m 87 0 l 87 925 l 525 925 q 650 909 598 925 q 734 863 702 893 q 782 781 765 833 q 799 655 799 729 q 794 568 799 608 q 778 497 789 529 q 733 444 768 465 q 636 410 697 422 q 705 395 677 410 q 752 356 734 381 q 777 301 768 333 q 787 233 787 270 l 787 0 l 680 0 l 680 212 q 668 286 680 255 q 636 335 657 317 q 582 362 616 353 q 505 372 549 372 l 190 372 l 190 0 l 87 0 l 87 0 m 190 460 l 491 460 q 497 458 494 458 q 503 458 500 458 q 586 466 550 458 q 643 490 621 475 q 679 542 667 507 q 691 631 691 578 q 684 718 691 681 q 666 781 678 756 q 618 819 653 806 q 527 833 584 833 l 190 833 l 190 460 l 190 460 "},"ť":{"x_min":0,"x_max":0,"ha":386},"Ľ":{"x_min":0,"x_max":0,"ha":386},"Ż":{"x_min":0,"x_max":0,"ha":386},"o":{"x_min":75,"x_max":649,"ha":705,"o":"m 75 341 q 86 482 75 422 q 123 580 98 541 q 205 637 148 618 q 351 657 262 657 q 505 640 444 657 q 593 591 565 623 q 635 498 621 559 q 649 344 649 436 q 639 199 649 264 q 614 86 630 134 q 539 12 597 36 q 380 -11 480 -11 q 233 2 293 -11 q 140 41 173 15 q 90 127 106 69 q 75 277 75 186 l 75 341 l 75 341 m 175 343 l 175 289 q 175 279 175 283 q 175 272 175 275 q 175 264 175 268 q 175 255 175 259 q 175 239 175 247 q 176 225 175 232 q 179 185 176 204 q 186 148 182 166 q 196 116 190 130 q 212 93 203 102 q 229 81 219 86 q 250 73 239 76 q 273 68 262 70 q 298 66 285 66 q 301 66 299 66 q 304 66 302 66 q 305 68 304 68 q 308 68 306 68 q 313 68 311 68 q 319 68 316 68 l 363 68 q 367 68 365 68 q 370 68 369 68 q 374 68 372 68 q 377 68 376 68 q 443 73 413 68 q 493 90 472 79 q 529 130 516 101 q 543 205 543 159 q 543 214 543 209 q 546 225 543 219 q 546 234 546 229 q 546 243 546 239 q 546 251 546 247 q 547 261 546 255 q 547 270 547 265 q 547 280 547 275 q 547 289 547 284 q 549 298 547 293 q 549 307 549 302 q 549 316 549 312 q 549 335 549 326 q 549 354 549 344 q 543 456 549 414 q 526 525 537 498 q 479 563 515 550 q 384 576 444 576 l 363 578 q 260 568 299 578 q 205 538 220 558 q 182 475 190 519 q 175 361 175 431 l 175 343 l 175 343 "},"5":{"x_min":86,"x_max":768,"ha":851,"o":"m 729 926 l 729 836 l 204 836 l 204 557 q 238 588 219 575 q 279 610 256 601 q 325 622 302 616 q 373 628 348 628 q 382 628 377 628 q 392 631 387 628 q 401 631 397 631 q 410 631 406 631 q 428 631 419 631 q 447 631 437 631 q 590 615 529 631 q 690 571 651 600 q 748 482 729 540 q 768 336 768 424 q 752 159 768 230 q 708 55 737 89 q 608 4 677 20 q 430 -11 538 -11 q 283 -1 347 -11 q 174 28 219 7 q 108 107 130 49 q 86 264 86 166 l 189 264 q 198 165 189 204 q 226 111 208 127 q 283 87 245 95 q 377 79 322 79 l 419 79 q 531 86 484 79 q 605 106 577 93 q 647 164 633 122 q 661 278 661 207 q 654 397 661 348 q 633 478 647 447 q 572 525 619 510 q 447 541 526 541 l 395 541 q 387 540 391 541 q 380 539 383 539 q 372 539 376 539 q 363 539 367 539 q 355 539 359 539 q 348 539 351 539 q 340 537 344 537 q 331 537 335 537 q 320 535 326 536 q 309 535 315 535 q 299 532 304 533 q 288 530 294 532 q 268 525 279 529 q 248 516 258 521 q 231 504 238 511 q 219 490 224 498 q 210 472 213 481 q 204 455 206 463 l 105 455 l 105 926 l 729 926 l 729 926 "},"õ":{"x_min":75,"x_max":649,"ha":705,"o":"m 75 341 q 86 482 75 422 q 123 580 98 541 q 205 637 148 618 q 351 657 262 657 q 505 640 444 657 q 593 591 565 623 q 635 498 621 559 q 649 344 649 436 q 639 199 649 264 q 614 86 630 134 q 538 12 597 36 q 380 -11 480 -11 q 233 2 293 -11 q 140 41 173 15 q 90 127 106 69 q 75 277 75 186 l 75 341 l 75 341 m 175 343 l 175 289 q 175 279 175 283 q 175 272 175 275 q 175 264 175 268 q 175 255 175 259 q 175 239 175 247 q 176 225 175 232 q 179 185 176 204 q 186 148 182 166 q 196 116 190 130 q 212 93 203 102 q 229 81 219 86 q 250 73 239 76 q 274 68 262 70 q 298 66 285 66 q 301 66 300 66 q 304 66 302 66 q 305 68 304 68 q 308 68 307 68 q 313 68 311 68 q 319 68 316 68 l 363 68 q 367 68 365 68 q 370 68 369 68 q 374 68 372 68 q 377 68 376 68 q 443 73 414 68 q 493 90 472 79 q 530 130 517 101 q 543 205 543 159 q 543 214 543 209 q 546 225 543 219 q 546 234 546 229 q 546 243 546 239 q 546 251 546 247 q 547 261 546 255 q 547 270 547 265 q 547 280 547 275 q 547 289 547 284 q 549 298 547 293 q 549 307 549 302 q 549 316 549 312 q 549 335 549 326 q 549 354 549 344 q 543 456 549 414 q 526 525 537 498 q 479 563 515 550 q 384 576 444 576 l 363 578 q 260 568 300 578 q 205 538 220 558 q 182 475 190 519 q 175 361 175 431 l 175 343 l 175 343 m 519 850 l 572 816 q 572 813 572 813 q 572 812 572 812 q 570 811 570 811 q 570 811 570 811 q 570 811 570 811 q 570 811 570 811 q 569 809 569 809 q 569 809 569 809 q 546 777 559 793 q 518 748 533 762 q 484 727 502 734 q 444 721 465 721 q 420 723 432 721 q 398 729 409 725 q 377 737 387 733 q 355 747 366 741 q 353 747 354 747 q 352 747 352 747 q 350 747 351 747 q 350 749 350 748 q 339 754 344 752 q 329 758 334 755 q 318 761 323 759 q 308 765 313 764 q 288 771 298 769 q 266 774 277 774 q 248 770 257 774 q 233 759 240 766 q 222 746 228 754 q 212 730 216 738 q 210 728 211 729 q 210 726 210 727 q 210 725 210 726 q 210 725 210 725 q 208 723 208 723 q 208 723 208 723 l 152 756 q 172 786 161 770 q 196 815 183 801 q 225 838 208 830 q 264 846 243 846 q 288 844 276 846 q 311 839 300 843 q 322 834 316 837 q 333 830 327 832 q 344 825 338 827 q 355 820 350 823 q 377 810 366 815 q 398 801 387 805 q 421 795 409 797 q 446 793 433 793 q 466 796 457 793 q 485 806 476 799 q 500 821 493 813 q 512 837 507 829 q 514 839 514 839 q 517 841 515 840 q 517 844 517 843 q 519 847 518 846 l 519 850 l 519 850 "},"▓":{"x_min":0,"x_max":0,"ha":386},"─":{"x_min":0,"x_max":0,"ha":386},",":{"x_min":74,"x_max":198,"ha":281,"o":"m 198 126 l 198 -9 q 193 -60 198 -37 q 179 -101 188 -83 q 152 -127 171 -118 q 101 -136 132 -136 q 98 -136 100 -136 q 93 -136 96 -136 q 90 -136 92 -136 q 87 -136 89 -136 q 85 -135 86 -136 q 85 -135 85 -135 q 83 -135 83 -135 q 81 -135 82 -135 q 78 -135 79 -135 q 78 -135 78 -135 q 76 -135 76 -135 q 74 -135 75 -135 l 74 -83 q 104 -78 92 -83 q 122 -66 117 -73 q 132 -47 129 -59 q 135 -16 135 -34 q 135 -13 135 -15 q 135 -8 135 -11 q 135 -6 135 -6 q 135 -4 135 -5 q 134 -2 134 -2 q 134 0 134 -1 l 88 0 l 88 126 l 198 126 l 198 126 "},"d":{"x_min":65,"x_max":625,"ha":708,"o":"m 625 926 l 625 0 l 531 0 l 531 82 q 493 33 516 52 q 442 5 470 13 q 385 -5 416 0 q 323 -10 355 -10 q 180 12 234 -10 q 105 81 126 34 q 74 191 84 128 q 65 330 65 254 q 75 457 65 400 q 106 561 85 515 q 178 630 127 607 q 309 653 228 653 q 324 653 316 653 q 340 653 331 653 q 347 653 344 653 q 355 653 351 653 q 363 650 359 650 q 372 650 367 650 q 418 643 395 650 q 463 629 441 637 q 502 604 485 620 q 529 563 519 587 l 529 926 l 625 926 l 625 926 m 165 334 q 165 313 165 323 q 165 295 165 303 q 165 287 165 291 q 165 278 165 282 q 165 269 165 273 q 166 260 166 264 q 167 235 166 248 q 170 212 169 223 q 174 188 171 199 q 178 166 176 177 q 201 113 185 134 q 238 84 216 92 q 286 70 260 74 q 341 66 312 66 q 448 82 408 66 q 502 128 488 98 q 522 205 515 160 q 529 309 529 250 q 522 415 529 367 q 505 499 516 462 q 451 556 492 537 q 338 575 409 575 q 235 558 273 575 q 185 509 196 541 q 170 433 176 477 q 165 331 165 388 l 165 334 l 165 334 "},"╢":{"x_min":0,"x_max":0,"ha":386},"\"":{"x_min":76,"x_max":380,"ha":456,"o":"m 164 556 l 76 556 l 76 927 l 173 927 l 173 556 l 164 556 m 371 556 l 281 556 l 281 927 l 380 927 l 380 556 l 371 556 "},"˙":{"x_min":293,"x_max":401,"ha":694,"o":"m 401 806 l 401 714 l 293 714 l 293 806 l 401 806 l 401 806 "},"ê":{"x_min":67,"x_max":634,"ha":698,"o":"m 534 198 l 634 198 q 614 80 634 124 q 557 21 595 36 q 468 -1 518 5 q 357 -8 418 -8 q 207 8 265 -8 q 121 60 148 25 q 80 155 94 94 q 67 305 67 217 q 77 455 67 390 q 108 565 87 519 q 187 633 129 610 q 343 656 246 656 q 492 640 433 656 q 577 594 551 625 q 618 503 605 564 q 632 352 632 443 l 632 307 l 167 307 q 172 206 167 250 q 189 131 178 163 q 239 81 200 97 q 343 66 278 66 l 369 68 q 383 66 376 66 q 398 66 390 66 q 415 66 407 66 q 433 68 423 67 q 443 69 439 68 q 454 70 448 70 q 463 72 458 71 q 473 75 468 74 q 491 81 483 78 q 507 90 500 85 q 518 101 513 95 q 525 115 523 107 q 529 132 527 124 q 532 149 530 140 q 532 152 532 150 q 534 154 532 153 q 534 158 534 156 q 534 161 534 160 q 534 168 534 164 q 534 174 534 171 l 534 198 l 534 198 m 536 382 q 529 480 536 440 q 506 540 522 519 q 454 570 493 560 q 351 581 415 581 q 258 570 296 581 q 203 539 221 560 q 176 478 185 518 q 168 381 168 438 l 536 381 l 536 382 m 352 908 l 565 776 l 536 724 l 352 808 l 161 724 l 135 776 l 352 908 l 352 908 "},"„":{"x_min":67,"x_max":385,"ha":443,"o":"m 191 126 l 191 -9 q 186 -60 191 -37 q 172 -101 181 -83 q 145 -127 164 -118 q 94 -136 125 -136 q 91 -136 93 -136 q 86 -136 89 -136 q 83 -136 85 -136 q 80 -136 82 -136 q 78 -135 79 -136 q 78 -135 78 -135 q 76 -135 76 -135 q 74 -135 75 -135 q 71 -135 72 -135 q 71 -135 71 -135 q 69 -135 69 -135 q 67 -135 68 -135 l 67 -83 q 97 -78 85 -83 q 115 -66 110 -73 q 125 -47 122 -59 q 128 -16 128 -34 q 128 -13 128 -15 q 128 -8 128 -11 q 128 -6 128 -6 q 128 -4 128 -5 q 127 -2 127 -2 q 127 0 127 -1 l 81 0 l 81 126 l 191 126 l 191 126 m 385 126 l 385 -9 q 380 -60 385 -37 q 366 -101 375 -83 q 339 -127 358 -118 q 289 -136 319 -136 q 285 -136 287 -136 q 280 -136 283 -136 q 277 -136 279 -136 q 275 -136 276 -136 q 273 -135 273 -136 q 272 -135 272 -135 q 270 -135 271 -135 q 268 -135 269 -135 q 266 -135 267 -135 q 265 -135 265 -135 q 263 -135 264 -135 q 262 -135 263 -135 l 262 -83 q 291 -78 279 -83 q 309 -66 304 -73 q 319 -47 316 -59 q 322 -16 322 -34 q 322 -13 322 -15 q 322 -8 322 -11 q 322 -6 322 -6 q 322 -4 322 -5 q 321 -2 321 -2 q 321 0 321 -1 l 275 0 l 275 126 l 385 126 l 385 126 "},"ľ":{"x_min":0,"x_max":0,"ha":386},"δ":{"x_min":0,"x_max":0,"ha":386},"Â":{"x_min":6.9375,"x_max":838.890625,"ha":846,"o":"m 656 196 l 188 196 l 118 0 l 6 0 l 344 926 l 493 926 l 838 0 l 729 0 l 656 196 l 656 196 m 626 281 l 420 850 l 216 281 l 626 281 l 626 281 m 425 1168 l 637 1036 l 608 983 l 425 1068 l 233 983 l 206 1036 l 425 1168 l 425 1168 "},"Ţ":{"x_min":0,"x_max":0,"ha":386},"Í":{"x_min":24.5,"x_max":256.875,"ha":282,"o":"m 193 926 l 193 0 l 87 0 l 87 926 l 193 926 l 193 926 m 208 1174 l 256 1107 l 57 985 l 24 1035 l 208 1174 l 208 1174 "},"´":{"x_min":231.9375,"x_max":463.890625,"ha":694,"o":"m 415 916 l 463 850 l 265 727 l 231 777 l 415 916 l 415 916 "},"Ú":{"x_min":89,"x_max":822,"ha":910,"o":"m 718 926 l 822 926 l 822 277 q 808 151 822 203 q 767 65 795 98 q 688 14 741 31 q 558 -2 636 -2 q 544 -2 551 -2 q 532 -5 537 -2 q 518 -5 525 -5 q 505 -5 512 -5 q 493 -5 500 -5 q 480 -7 486 -5 q 467 -7 473 -7 q 454 -7 461 -7 q 302 2 369 -7 q 186 31 234 11 q 113 113 137 52 q 89 274 89 173 l 89 926 l 195 926 l 195 277 q 205 176 195 216 q 236 117 215 137 q 297 91 257 100 q 396 83 337 83 l 497 83 q 601 90 558 83 q 669 114 644 98 q 705 171 693 131 q 718 274 718 210 l 718 926 l 718 926 m 523 1174 l 572 1107 l 373 985 l 340 1035 l 523 1174 l 523 1174 "},"Ý":{"x_min":0,"x_max":0,"ha":386},"╪":{"x_min":0,"x_max":0,"ha":386},"⌡":{"x_min":0,"x_max":0,"ha":386},"ą":{"x_min":0,"x_max":0,"ha":386},"○":{"x_min":0,"x_max":0,"ha":386},"▌":{"x_min":0,"x_max":0,"ha":386},"Ω":{"x_min":0,"x_max":0,"ha":386},"Ö":{"x_min":51,"x_max":774,"ha":827,"o":"m 51 446 l 51 501 q 60 672 51 594 q 88 810 70 749 q 173 903 107 872 q 351 935 239 935 l 397 935 q 563 922 492 935 q 681 886 634 909 q 751 795 729 862 q 774 620 774 729 q 774 578 774 599 q 774 538 774 558 q 774 497 774 517 q 774 455 774 476 q 774 372 774 413 q 774 291 774 331 q 755 146 774 206 q 704 53 737 87 q 611 4 670 20 q 463 -11 551 -11 q 457 -11 460 -11 q 452 -11 455 -11 q 449 -11 450 -11 q 448 -11 448 -11 q 445 -11 446 -11 q 442 -11 443 -11 q 437 -11 439 -11 q 431 -11 434 -11 q 428 -11 430 -11 q 427 -11 427 -11 q 424 -11 425 -11 q 421 -11 423 -11 q 410 -10 416 -10 q 400 -10 404 -10 q 390 -10 395 -10 q 381 -10 385 -10 q 242 1 302 -10 q 142 37 182 12 q 78 117 102 60 q 54 262 54 173 q 54 308 54 285 q 54 353 54 331 q 54 376 54 364 q 54 399 54 387 q 54 421 54 410 q 54 444 54 433 l 54 446 l 51 446 m 158 451 l 158 302 q 168 187 158 232 q 198 120 178 142 q 263 87 217 98 q 379 76 308 76 q 513 83 457 76 q 602 107 569 91 q 652 175 634 124 q 670 310 670 226 q 670 348 670 330 q 670 385 670 367 q 670 405 670 395 q 673 424 670 414 q 673 444 673 434 q 673 463 673 453 q 673 483 673 473 q 673 502 673 492 q 673 520 673 510 q 673 539 673 530 q 673 559 673 549 q 673 578 673 569 q 673 596 673 587 q 673 616 673 606 q 657 752 673 702 q 612 816 642 802 q 529 839 581 831 q 403 847 477 847 l 368 847 q 266 837 307 847 q 203 808 224 827 q 170 742 182 790 q 158 619 158 694 l 158 451 l 158 451 m 345 1099 l 345 1007 l 237 1007 l 237 1099 l 345 1099 l 345 1099 m 593 1099 l 593 1007 l 483 1007 l 483 1099 l 593 1099 l 593 1099 "},"z":{"x_min":29,"x_max":529,"ha":560,"o":"m 61 648 l 529 648 l 529 558 l 141 81 l 529 81 l 529 0 l 29 0 l 29 90 l 415 572 l 61 572 l 61 648 l 61 648 "},"╡":{"x_min":0,"x_max":0,"ha":386},"™":{"x_min":10,"x_max":1170,"ha":1231,"o":"m 274 860 l 274 371 l 198 371 l 198 860 l 10 860 l 10 927 l 459 927 l 459 860 l 274 860 l 274 860 m 1170 927 l 1170 371 l 1094 371 l 1094 851 l 885 371 l 813 371 l 603 847 l 603 371 l 529 371 l 529 927 l 648 927 l 847 468 l 1048 927 l 1170 927 l 1170 927 "},"╦":{"x_min":0,"x_max":0,"ha":386},"Θ":{"x_min":0,"x_max":0,"ha":386},"Ř":{"x_min":0,"x_max":0,"ha":386},"ã":{"x_min":60,"x_max":620,"ha":705,"o":"m 182 461 l 82 461 q 100 565 82 526 q 155 619 118 605 q 237 640 191 633 q 339 647 283 647 q 458 637 406 647 q 546 609 510 628 q 601 543 582 591 q 620 419 620 495 l 620 0 l 531 0 l 531 66 q 488 22 513 38 q 435 0 463 5 q 377 -8 407 -5 q 315 -11 347 -11 q 208 -3 255 -11 q 127 22 161 4 q 76 82 93 40 q 60 191 60 125 q 78 297 60 257 q 130 354 96 337 q 212 379 166 371 q 312 388 257 388 q 320 388 316 388 q 327 388 323 388 q 336 386 332 386 q 344 386 340 386 q 352 386 348 386 q 361 386 357 386 q 369 385 365 385 q 377 385 373 385 q 390 384 384 385 q 403 382 396 383 q 414 380 408 380 q 426 378 421 379 q 451 373 439 376 q 473 365 462 369 q 487 358 480 362 q 500 347 494 354 q 510 335 506 342 q 520 321 515 328 l 520 401 q 511 496 520 458 q 486 547 503 533 q 431 569 469 562 q 333 576 393 576 q 327 576 330 576 q 320 576 323 576 q 314 574 318 574 q 307 574 311 574 q 298 574 302 574 q 291 574 294 574 q 284 574 287 574 q 278 574 280 574 q 257 571 268 572 q 239 567 247 569 q 222 560 229 564 q 208 551 215 555 q 196 539 201 546 q 189 526 191 533 q 184 511 186 519 q 182 495 182 504 q 181 493 182 494 q 181 491 181 491 q 181 488 181 490 q 181 486 181 487 q 181 482 181 484 q 181 477 181 480 q 181 474 181 476 q 181 473 181 473 q 181 470 181 472 q 181 467 181 469 q 181 465 181 466 q 181 463 181 463 q 181 461 181 462 q 182 458 182 459 l 182 461 l 182 461 m 160 205 q 168 132 160 160 q 194 90 176 103 q 240 70 211 76 q 309 64 269 64 q 323 64 316 64 q 339 64 330 64 q 353 64 346 64 q 369 65 361 64 q 425 71 398 65 q 476 90 451 78 q 513 125 500 101 q 525 186 525 149 q 512 257 525 230 q 472 293 499 283 q 414 308 446 303 q 345 313 382 313 l 322 315 q 316 313 319 314 q 309 313 312 313 q 302 313 305 313 q 296 313 298 313 q 288 313 291 313 q 282 313 284 313 q 274 311 278 311 q 268 311 271 311 q 243 306 255 309 q 221 301 232 304 q 200 293 209 298 q 183 281 190 288 q 173 272 178 277 q 166 259 169 266 q 163 244 165 252 q 161 230 161 237 q 160 222 160 226 q 160 216 160 219 q 160 208 160 212 q 160 202 160 205 l 160 205 l 160 205 m 509 850 l 561 816 q 561 813 561 813 q 561 812 561 812 q 559 811 559 811 q 559 811 559 811 q 559 811 559 811 q 559 811 559 811 q 558 809 558 809 q 558 809 558 809 q 535 777 548 793 q 507 748 522 762 q 473 727 491 734 q 433 721 454 721 q 409 723 420 721 q 387 729 398 725 q 366 737 376 733 q 344 747 355 741 q 342 747 343 747 q 341 747 341 747 q 339 747 340 747 q 339 749 339 748 q 328 754 333 752 q 318 758 323 755 q 307 761 312 759 q 297 765 302 764 q 277 771 287 769 q 255 774 266 774 q 237 770 246 774 q 222 759 229 766 q 211 746 217 754 q 201 730 205 738 q 199 728 200 729 q 199 726 199 727 q 199 725 199 726 q 199 725 199 725 q 197 723 197 723 q 197 723 197 723 l 141 756 q 161 786 150 770 q 184 815 172 801 q 214 838 197 830 q 253 846 232 846 q 277 844 265 846 q 300 839 289 843 q 311 834 305 837 q 322 830 316 832 q 333 825 327 827 q 344 820 339 823 q 366 810 355 815 q 387 801 376 805 q 410 795 398 797 q 435 793 422 793 q 455 796 446 793 q 474 806 465 799 q 489 821 482 813 q 501 837 496 829 q 503 839 503 839 q 506 841 504 840 q 506 844 506 843 q 509 847 507 846 l 509 850 l 509 850 "},"╖":{"x_min":0,"x_max":0,"ha":386},"Ň":{"x_min":0,"x_max":0,"ha":386},"æ":{"x_min":60,"x_max":1086,"ha":1150,"o":"m 1084 312 l 623 312 q 623 307 623 309 q 623 303 623 305 q 623 301 623 301 q 622 300 623 300 q 622 298 622 299 q 622 296 622 297 q 622 290 622 293 q 622 285 622 287 q 622 278 622 280 q 622 272 622 275 q 622 267 622 269 q 624 261 622 264 q 624 255 624 258 q 624 250 624 253 q 625 219 624 234 q 628 189 627 204 q 633 160 631 175 q 640 130 636 146 q 652 107 645 117 q 668 90 658 97 q 690 80 679 85 q 715 72 701 75 q 729 70 722 71 q 740 70 735 70 q 747 69 743 70 q 754 68 750 68 q 760 68 757 68 q 767 68 764 68 q 780 67 774 67 q 792 67 786 67 q 798 67 794 67 q 806 67 801 67 q 812 67 808 67 q 818 67 815 67 q 882 70 853 67 q 936 81 911 74 q 972 111 960 88 q 985 176 985 135 l 985 196 l 1084 196 q 1084 191 1084 193 q 1084 186 1084 189 q 1084 184 1084 184 q 1085 183 1084 183 q 1085 181 1085 182 q 1086 179 1086 180 q 1086 177 1086 178 q 1086 176 1086 176 q 1086 174 1086 175 q 1086 172 1086 173 q 1086 170 1086 171 q 1086 169 1086 169 q 1086 167 1086 168 q 1086 165 1086 166 q 1066 70 1086 107 q 1008 17 1047 33 q 926 -3 969 3 q 837 -11 883 -11 q 829 -11 833 -11 q 822 -11 825 -11 q 814 -11 818 -11 q 808 -11 811 -11 q 800 -11 804 -11 q 792 -11 796 -11 q 783 -11 787 -11 q 776 -11 779 -11 q 712 -5 743 -11 q 652 8 681 0 q 600 39 622 17 q 566 96 579 61 q 535 45 554 65 q 489 13 516 24 q 433 -2 462 3 q 375 -8 404 -8 q 369 -8 372 -8 q 364 -10 367 -8 q 358 -10 361 -10 q 353 -10 356 -10 q 342 -10 347 -10 q 331 -10 336 -10 q 227 -2 275 -10 q 139 22 179 5 q 80 80 100 38 q 60 187 60 121 q 76 288 60 248 q 126 346 93 328 q 204 374 160 366 q 303 383 247 383 q 342 383 322 383 q 381 383 363 383 q 400 381 390 383 q 419 377 410 379 q 437 373 428 376 q 457 369 447 371 q 478 360 468 364 q 496 348 487 355 q 510 334 503 342 q 525 317 518 325 l 525 430 q 514 516 525 483 q 480 559 503 549 q 422 576 458 570 q 333 582 385 582 q 279 579 304 582 q 229 569 253 576 q 195 542 207 563 q 184 484 184 520 l 184 472 l 85 472 q 103 573 85 534 q 153 625 122 611 q 226 646 182 639 q 326 653 270 653 q 344 653 335 653 q 364 653 354 653 q 373 653 368 653 q 383 653 378 653 q 392 652 388 652 q 403 652 397 652 q 419 651 411 652 q 436 649 428 650 q 451 646 443 647 q 468 643 460 645 q 501 635 485 640 q 532 624 516 630 q 547 614 540 619 q 559 603 554 610 q 569 587 565 596 q 577 570 573 579 q 605 606 588 591 q 643 629 622 621 q 686 643 664 637 q 731 653 708 650 q 740 653 735 653 q 750 654 744 653 q 759 654 754 654 q 768 654 764 654 q 777 654 772 654 q 786 656 782 654 q 796 656 792 656 q 804 656 800 656 q 962 634 902 656 q 1042 570 1022 612 q 1072 463 1062 529 q 1084 309 1083 398 l 1084 312 l 1084 312 m 159 201 q 170 120 159 150 q 207 82 182 91 q 265 68 232 72 q 340 64 299 64 q 408 68 376 64 q 469 83 440 73 q 512 121 497 94 q 526 190 526 147 q 526 193 526 191 q 526 197 526 194 q 525 200 525 198 q 525 204 525 202 q 525 208 525 207 q 525 212 525 209 q 524 216 524 214 q 524 219 524 218 q 519 236 522 228 q 514 253 517 244 q 505 267 510 261 q 493 279 500 273 q 474 290 485 286 q 451 297 464 294 q 426 302 439 300 q 401 306 414 304 q 390 306 396 306 q 379 306 385 306 q 369 306 374 306 q 358 306 364 306 q 348 306 353 306 q 339 308 343 306 q 329 308 333 308 q 321 308 325 308 q 261 303 289 308 q 207 291 232 299 q 170 260 182 283 q 159 198 159 237 l 159 201 l 159 201 m 986 394 q 978 482 986 445 q 955 540 970 519 q 903 570 940 559 q 810 581 867 581 q 795 581 803 581 q 781 581 787 581 q 772 581 776 581 q 765 581 768 581 q 758 579 761 579 q 750 579 754 579 q 725 574 738 577 q 700 567 713 572 q 677 558 688 563 q 658 544 667 552 q 642 522 649 534 q 632 497 635 510 q 626 469 628 483 q 624 442 624 456 q 623 439 624 441 q 622 435 622 437 q 622 431 622 433 q 622 427 622 430 q 622 420 622 423 q 622 413 622 416 q 622 411 622 412 q 622 408 622 409 q 620 405 620 406 q 620 403 620 404 q 620 398 620 400 q 620 393 620 395 l 987 393 l 986 394 "},"♫":{"x_min":0,"x_max":0,"ha":386},"É":{"x_min":51,"x_max":645.046875,"ha":691,"o":"m 152 833 l 152 520 l 624 520 l 624 432 l 152 432 l 152 89 l 645 89 l 645 0 l 51 0 l 51 926 l 645 926 l 645 833 l 152 833 l 152 833 m 413 1174 l 461 1107 l 263 985 l 229 1035 l 413 1174 l 413 1174 "},"ŀ":{"x_min":0,"x_max":0,"ha":386},"~":{"x_min":13.671875,"x_max":678.78125,"ha":694,"o":"m 72 363 l 13 408 q 46 461 27 435 q 87 512 65 487 q 139 549 110 536 q 202 562 167 562 q 241 557 222 562 q 279 545 261 553 q 314 528 297 536 q 350 511 331 519 q 350 510 350 510 q 351 510 350 510 q 351 510 351 510 q 353 510 351 510 q 353 508 353 508 q 353 508 353 508 q 387 490 369 498 q 422 475 404 482 q 457 463 439 467 q 495 460 476 460 q 531 466 515 460 q 561 485 547 472 q 586 512 575 497 q 608 543 598 526 q 610 546 609 545 q 612 549 611 547 q 613 550 612 549 q 615 553 613 552 q 618 559 616 556 q 620 564 619 562 l 678 521 q 676 517 677 518 q 676 514 676 515 q 676 513 676 514 q 676 512 676 512 q 675 510 675 511 q 675 510 675 510 q 642 457 661 483 q 600 408 623 432 q 547 374 576 386 q 487 363 519 363 q 447 366 466 363 q 411 378 429 369 q 374 394 393 386 q 338 412 356 403 q 307 429 323 421 q 276 444 291 437 q 242 457 259 451 q 208 463 226 463 q 161 454 181 463 q 126 431 141 446 q 97 398 110 416 q 72 360 83 381 l 72 363 l 72 363 "},"³":{"x_min":0,"x_max":0,"ha":386},"¡":{"x_min":110,"x_max":220,"ha":334,"o":"m 119 -278 l 119 393 l 220 393 l 220 -278 l 111 -278 l 119 -278 m 110 522 l 110 648 l 220 648 l 220 522 l 110 522 l 110 522 "},"♦":{"x_min":0,"x_max":0,"ha":386},"[":{"x_min":76,"x_max":312.328125,"ha":385,"o":"m 76 926 l 312 926 l 312 847 l 179 847 l 179 -59 l 312 -59 l 312 -139 l 76 -139 l 76 926 l 76 926 "},"Γ":{"x_min":0,"x_max":0,"ha":386},"%":{"x_min":37,"x_max":1079,"ha":1092,"o":"m 674 237 q 680 330 674 288 q 700 402 686 372 q 750 448 713 433 q 847 464 788 464 q 947 457 904 464 q 1020 437 990 450 q 1062 386 1047 425 q 1077 283 1077 348 q 1077 268 1077 276 q 1077 254 1077 261 q 1077 240 1077 247 q 1078 226 1077 233 q 1078 211 1078 219 q 1078 197 1078 204 q 1078 183 1078 190 q 1078 169 1078 176 q 1078 167 1078 167 q 1079 166 1078 166 q 1079 164 1079 165 q 1079 162 1079 163 q 1079 159 1079 161 q 1079 156 1079 158 q 1075 126 1077 141 q 1071 97 1074 112 q 1064 70 1070 83 q 1052 47 1058 58 q 1029 21 1042 31 q 1000 6 1016 11 q 984 2 992 4 q 968 0 975 0 q 952 -1 960 0 q 935 -3 943 -3 q 929 -3 932 -3 q 923 -4 925 -3 q 916 -4 920 -4 q 910 -4 913 -4 q 898 -4 904 -4 q 886 -4 892 -4 q 790 2 831 -4 q 724 25 749 9 q 686 80 699 40 q 674 187 674 120 l 674 237 l 674 237 m 737 234 l 737 148 q 745 88 737 109 q 770 59 754 66 q 807 50 785 53 q 856 47 830 47 q 859 47 857 47 q 861 47 860 47 q 863 47 861 47 q 866 47 864 47 q 871 47 868 47 q 877 47 874 47 q 936 50 910 47 q 979 60 961 53 q 1006 90 997 67 q 1016 152 1016 113 l 1016 308 q 1009 366 1016 344 q 988 397 1002 388 q 954 409 974 404 q 907 414 934 414 l 839 414 q 836 412 838 412 q 831 412 834 412 q 828 412 830 412 q 827 413 827 412 q 824 413 825 413 q 821 413 823 413 q 802 409 811 409 q 785 407 793 409 q 768 401 775 405 q 757 391 761 397 q 747 375 752 384 q 739 352 742 365 q 737 341 738 347 q 736 329 737 334 q 735 316 736 322 q 734 304 734 311 q 734 300 734 302 q 734 295 734 298 q 734 293 734 294 q 734 293 734 293 q 734 290 734 291 q 734 288 734 290 q 734 280 734 284 q 734 272 734 276 q 734 264 734 268 q 736 258 734 261 q 736 250 736 254 q 736 244 736 247 q 736 237 736 240 q 736 231 736 234 l 736 234 l 737 234 m 902 926 l 274 0 l 210 0 l 835 926 l 902 926 l 902 926 m 37 700 q 43 793 37 752 q 62 866 49 835 q 112 912 74 897 q 210 928 149 928 l 281 928 q 357 917 326 928 q 405 887 388 907 q 430 834 421 867 q 440 753 440 800 q 440 745 440 749 q 440 738 440 740 q 440 734 440 736 q 440 731 440 732 q 440 726 440 728 q 440 722 440 725 q 438 715 438 718 q 438 708 438 711 q 438 701 438 704 q 438 694 438 697 q 438 691 438 693 q 438 687 438 689 q 438 683 438 685 q 438 679 438 682 q 438 676 438 678 q 438 672 438 674 q 439 668 438 669 q 440 664 440 667 q 440 660 440 662 q 440 657 440 658 q 440 653 440 654 q 440 649 440 651 q 440 640 440 644 q 440 632 440 636 q 430 548 440 582 q 401 494 420 514 q 346 466 383 476 q 256 457 309 457 q 154 465 196 457 q 87 490 112 473 q 49 546 62 507 q 37 650 37 586 l 37 700 l 37 700 m 97 697 l 97 611 q 105 551 97 572 q 131 523 114 530 q 171 514 148 518 q 224 510 194 510 q 228 510 226 510 q 231 510 230 510 q 236 510 234 510 q 240 510 238 510 q 299 513 273 510 q 342 523 324 516 q 369 553 360 530 q 379 615 379 576 l 379 771 q 372 829 379 807 q 351 860 365 851 q 317 872 337 867 q 269 877 297 877 l 201 877 q 199 876 199 877 q 198 875 198 875 q 196 875 197 875 q 194 875 195 875 q 192 875 192 875 q 191 875 191 875 q 189 875 190 875 q 187 875 188 875 q 167 872 177 872 q 149 870 158 872 q 133 864 140 868 q 120 854 126 860 q 109 838 114 847 q 102 818 104 829 q 97 795 99 807 q 95 772 95 783 q 95 766 95 769 q 95 760 95 763 q 95 754 95 757 q 95 749 95 751 q 95 740 95 744 q 95 733 95 736 q 95 726 95 729 q 97 719 95 722 q 97 712 97 715 q 97 706 97 708 q 97 700 97 703 q 97 694 97 697 l 97 697 l 97 697 "},"P":{"x_min":87,"x_max":778.78125,"ha":816,"o":"m 87 0 l 87 926 l 471 926 l 518 926 q 532 923 525 923 q 546 923 539 923 q 552 923 549 923 q 560 923 556 923 q 567 922 563 922 q 575 922 571 922 q 608 917 592 920 q 642 909 625 913 q 673 896 658 905 q 701 877 688 888 q 735 837 721 859 q 757 792 749 816 q 770 742 764 767 q 776 691 776 717 q 776 676 776 684 q 776 662 776 669 q 776 654 776 657 q 778 648 776 651 q 778 640 778 644 q 778 634 778 637 q 778 626 778 630 q 778 617 778 621 q 777 607 777 612 q 777 599 777 603 q 777 591 777 595 q 777 582 777 587 q 774 573 774 577 q 774 564 774 569 q 769 526 774 545 q 758 488 765 507 q 742 454 753 470 q 718 424 732 438 q 670 388 696 402 q 617 370 644 374 q 560 363 589 366 q 503 360 532 360 q 501 360 501 360 q 500 361 500 360 q 500 361 500 361 q 500 361 500 361 q 499 361 499 361 q 499 361 499 361 q 493 361 496 361 q 488 361 490 361 q 482 361 485 361 q 476 361 479 361 q 466 361 471 361 q 456 361 461 361 l 188 361 l 188 0 l 87 0 l 87 0 m 188 451 l 435 451 q 541 457 496 451 q 614 478 586 464 q 656 531 642 492 q 670 637 670 571 q 663 722 670 686 q 645 784 657 759 q 600 820 632 807 q 515 833 568 833 q 509 833 513 833 q 503 833 506 833 q 497 833 500 833 q 492 833 494 833 q 485 833 489 833 q 479 833 482 833 q 474 833 476 833 q 468 833 471 833 l 188 833 l 188 452 l 188 451 "},"∏":{"x_min":0,"x_max":0,"ha":386},"_":{"x_min":0,"x_max":694,"ha":694,"o":"m 0 -100 l 694 -100 l 694 -171 l 0 -171 l 0 -100 l 0 -100 "},"Ŕ":{"x_min":0,"x_max":0,"ha":386},"ñ":{"x_min":83,"x_max":632,"ha":715,"o":"m 83 649 l 173 649 l 173 565 q 216 611 192 593 q 268 640 239 630 q 329 655 298 650 q 394 660 360 660 q 506 646 459 660 q 579 608 552 633 q 618 537 605 583 q 632 426 632 491 l 632 0 l 533 0 l 533 420 q 525 499 533 467 q 502 547 517 530 q 454 570 487 562 q 373 579 421 579 q 290 567 325 579 q 230 535 255 556 q 192 478 205 513 q 180 394 180 442 l 180 0 l 83 0 l 83 649 l 83 649 m 515 850 l 568 816 q 568 813 568 813 q 568 812 568 812 q 566 811 566 811 q 566 811 566 811 q 566 811 566 811 q 566 811 566 811 q 565 809 565 809 q 565 809 565 809 q 542 777 555 793 q 513 748 529 762 q 479 727 498 734 q 440 721 461 721 q 416 723 427 721 q 394 729 405 725 q 372 737 383 733 q 351 747 362 741 q 349 747 350 747 q 348 747 348 747 q 346 747 347 747 q 346 749 346 748 q 335 754 340 752 q 325 758 330 755 q 314 761 319 759 q 304 765 309 764 q 283 771 294 769 q 262 774 273 774 q 244 770 252 774 q 228 759 235 766 q 217 746 223 754 q 207 730 211 738 q 205 728 206 729 q 205 726 205 727 q 205 725 205 726 q 205 725 205 725 q 203 723 203 723 q 203 723 203 723 l 148 756 q 167 786 156 770 q 191 815 178 801 q 221 838 203 830 q 259 846 238 846 q 283 844 272 846 q 306 839 295 843 q 318 834 312 837 q 329 830 323 832 q 340 825 334 827 q 351 820 346 823 q 372 810 362 815 q 394 801 383 805 q 417 795 405 797 q 441 793 429 793 q 462 796 452 793 q 480 806 471 799 q 495 821 488 813 q 507 837 502 829 q 509 839 509 839 q 512 841 510 840 q 512 844 512 843 q 515 847 513 846 l 515 850 l 515 850 "},"‚":{"x_min":0,"x_max":0,"ha":386},"Æ":{"x_min":-10.109375,"x_max":1241.34375,"ha":1289,"o":"m 758 829 l 758 520 l 1220 520 l 1220 431 l 758 431 l 758 90 l 1241 90 l 1241 0 l 651 0 l 651 194 l 220 194 l 113 0 l -10 0 l 501 926 l 1241 926 l 1241 829 l 758 829 l 758 829 m 651 283 l 651 829 l 563 829 l 267 283 l 651 283 l 651 283 "},"₣":{"x_min":0,"x_max":0,"ha":386},"ğ":{"x_min":0,"x_max":0,"ha":386},"ª":{"x_min":204,"x_max":647,"ha":851,"o":"m 204 444 l 647 444 l 647 390 l 204 390 l 204 444 l 204 444 m 326 809 l 257 809 q 257 808 257 808 q 257 808 257 808 q 255 808 255 808 q 255 809 255 809 q 255 811 255 810 q 255 813 255 811 q 256 813 256 813 q 256 816 256 814 q 256 818 256 817 q 256 820 256 818 q 268 882 256 859 q 307 912 280 905 q 361 923 332 919 q 420 928 390 928 q 493 923 461 928 q 551 907 526 918 q 587 866 574 897 q 600 787 600 836 l 600 533 l 534 533 l 537 564 q 533 558 535 560 q 529 553 531 556 q 525 550 527 552 q 520 548 523 549 q 493 533 506 538 q 466 525 480 528 q 437 523 452 523 q 405 523 421 523 q 340 528 369 523 q 287 545 310 534 q 252 582 264 556 q 241 649 241 608 q 253 715 241 690 q 288 749 265 740 q 340 765 312 760 q 403 770 369 770 q 405 770 405 770 q 408 770 406 770 q 408 770 408 770 q 410 770 409 770 q 415 770 413 770 q 419 770 417 770 q 433 769 426 770 q 448 769 440 769 q 462 766 455 767 q 476 764 469 766 q 503 757 491 763 q 529 740 516 751 l 529 777 q 524 831 529 811 q 508 861 519 852 q 475 873 498 869 q 416 878 452 878 q 414 878 414 878 q 412 878 413 878 q 410 878 410 878 q 409 878 409 878 q 378 875 392 878 q 351 869 363 873 q 331 853 337 865 q 325 821 325 841 q 325 819 325 820 q 325 817 325 818 q 325 815 325 816 q 325 814 325 814 q 325 811 325 813 q 325 810 325 810 q 325 809 325 810 q 326 809 325 809 q 326 807 326 808 q 326 806 326 806 l 326 809 l 326 809 m 312 659 q 318 609 312 627 q 337 586 325 590 q 369 579 349 581 q 416 577 389 577 q 422 577 419 577 q 428 577 426 577 q 435 577 431 577 q 442 577 438 577 q 474 582 459 578 q 503 592 490 586 q 524 612 517 599 q 531 646 531 625 q 523 688 531 673 q 499 709 515 704 q 464 716 483 714 q 423 719 445 719 l 405 722 q 353 716 373 719 q 325 705 332 712 q 315 686 318 698 q 312 656 312 673 l 312 659 l 312 659 "},"Œ":{"x_min":60.609375,"x_max":1334,"ha":1369,"o":"m 845 828 l 845 525 l 1313 525 l 1313 432 l 845 432 l 845 96 l 1334 96 l 1334 4 l 745 4 l 745 96 q 710 49 731 68 q 663 20 689 31 q 610 4 636 11 q 556 -3 583 -1 q 547 -3 551 -3 q 539 -5 543 -3 q 531 -5 535 -5 q 522 -5 526 -5 q 514 -5 518 -5 q 506 -7 510 -5 q 497 -7 501 -7 q 489 -7 493 -7 q 307 4 386 -7 q 171 41 228 16 q 88 139 116 66 q 60 332 60 212 q 60 345 60 338 q 60 357 60 351 q 60 370 60 363 q 62 382 60 376 q 62 387 62 384 q 62 394 62 390 q 62 400 62 397 q 62 405 62 402 q 62 411 62 408 q 62 418 62 413 q 62 423 62 420 q 62 429 62 426 l 62 584 q 84 760 62 690 q 149 861 106 829 q 264 910 192 893 q 438 927 336 927 q 460 927 449 927 q 482 927 471 927 q 493 927 488 927 q 504 927 499 927 q 516 925 510 925 q 528 925 522 925 q 550 922 539 922 q 572 920 561 922 q 594 918 583 918 q 617 915 606 918 q 658 902 639 909 q 692 884 676 895 q 720 859 707 875 q 745 825 733 844 l 745 922 l 1334 922 l 1334 828 l 845 828 l 845 828 m 445 82 q 578 89 522 82 q 668 112 634 97 q 719 176 701 127 q 738 309 738 225 l 738 455 l 738 597 q 725 725 738 675 q 686 795 712 776 q 609 825 660 815 q 482 835 558 835 l 383 835 q 263 818 308 835 q 200 769 217 801 q 174 686 182 739 q 166 561 166 634 q 166 549 166 555 q 166 537 166 543 q 166 525 166 530 q 166 512 166 519 q 166 488 166 500 q 166 465 166 476 q 164 440 164 452 q 164 415 164 427 q 164 391 164 402 q 164 368 164 379 q 170 258 164 308 q 188 168 175 208 q 243 105 200 128 q 357 83 285 83 q 368 81 363 83 q 379 80 374 80 q 389 80 383 80 q 400 80 395 80 q 422 80 411 80 q 445 80 433 80 l 445 83 l 445 82 "},"Ą":{"x_min":0,"x_max":0,"ha":386},"T":{"x_min":4,"x_max":710,"ha":716,"o":"m 412 828 l 412 0 l 305 0 l 305 828 l 4 828 l 4 927 l 710 927 l 710 828 l 412 828 l 412 828 "},"š":{"x_min":0,"x_max":0,"ha":386},"╙":{"x_min":0,"x_max":0,"ha":386},"Þ":{"x_min":0,"x_max":0,"ha":386},"j":{"x_min":-12,"x_max":176,"ha":259,"o":"m 173 649 l 173 -59 q 166 -130 173 -96 q 147 -192 160 -163 q 106 -236 135 -221 q 32 -251 76 -251 q 26 -251 29 -251 q 21 -251 24 -251 q 15 -250 18 -250 q 10 -250 12 -250 q 4 -249 7 -250 q 0 -249 1 -249 q -5 -246 -2 -247 q -12 -246 -7 -246 l -12 -176 q -8 -176 -9 -176 q -7 -176 -7 -176 q -5 -176 -6 -176 q -5 -176 -5 -176 q -3 -176 -3 -176 q -2 -176 -2 -176 q -1 -176 -2 -176 q -1 -178 -1 -176 q 0 -178 0 -178 q 0 -178 0 -178 q 44 -168 26 -178 q 67 -142 61 -159 q 76 -103 73 -124 q 79 -59 79 -82 l 79 649 l 173 649 l 173 649 m 176 926 l 176 819 l 77 819 l 77 926 l 176 926 l 176 926 "},"Σ":{"x_min":0,"x_max":0,"ha":386},"1":{"x_min":146.21875,"x_max":546,"ha":852,"o":"m 546 926 l 546 0 l 449 0 l 449 846 l 211 585 l 146 646 l 401 926 l 546 926 l 546 926 "},"░":{"x_min":0,"x_max":0,"ha":386},"›":{"x_min":69.4375,"x_max":323.609375,"ha":392,"o":"m 156 709 l 323 356 l 136 0 l 69 44 l 230 356 l 84 666 l 156 709 l 156 709 "},"→":{"x_min":0,"x_max":0,"ha":386},"<":{"x_min":46,"x_max":647,"ha":694,"o":"m 647 795 l 647 687 l 161 465 l 647 241 l 647 134 l 46 418 l 46 512 l 647 795 l 647 795 "},"t":{"x_min":-7,"x_max":451,"ha":451,"o":"m 426 648 l 426 569 l 177 569 l 177 172 q 181 121 177 141 q 193 90 185 101 q 220 73 201 79 q 268 68 239 68 q 319 75 299 68 q 345 99 339 83 q 355 136 352 115 q 359 183 359 156 l 359 229 l 451 229 q 443 133 451 176 q 420 56 435 90 q 366 5 405 21 q 266 -10 327 -10 q 175 0 212 -10 q 118 27 137 8 q 87 82 97 47 q 78 169 78 117 l 78 569 l -7 569 l -7 648 l 78 648 l 78 804 l 177 804 l 177 648 l 426 648 l 426 648 "},"¬":{"x_min":0,"x_max":0,"ha":386},"ù":{"x_min":83,"x_max":621,"ha":704,"o":"m 621 649 l 621 0 l 530 0 l 530 86 q 485 32 509 52 q 434 4 462 12 q 376 -5 408 -1 q 308 -10 344 -10 q 207 3 249 -10 q 137 43 165 16 q 96 113 110 70 q 83 213 83 155 l 83 648 l 182 648 l 182 216 q 189 142 182 172 q 211 98 197 113 q 255 75 226 83 q 329 68 284 68 q 424 78 386 68 q 483 111 463 88 q 512 169 502 131 q 522 263 522 208 l 522 649 l 621 649 l 621 649 m 284 915 l 467 776 l 435 726 l 236 849 l 284 915 l 284 915 "},"ï":{"x_min":-46,"x_max":310,"ha":266,"o":"m 182 649 l 182 0 l 83 0 l 83 649 l 182 649 l 182 649 m 62 806 l 62 714 l -46 714 l -46 806 l 62 806 l 62 806 m 310 806 l 310 714 l 200 714 l 200 806 l 310 806 l 310 806 "},"Ò":{"x_min":0,"x_max":0,"ha":386},"Ď":{"x_min":0,"x_max":0,"ha":386},"&":{"x_min":79,"x_max":970.375,"ha":972,"o":"m 715 409 l 818 409 q 818 396 818 402 q 818 385 818 390 q 818 374 818 379 q 819 365 818 370 q 819 355 819 360 q 819 345 819 350 q 819 334 819 339 q 819 325 819 329 q 819 317 819 321 q 819 310 819 313 q 818 302 818 306 q 818 295 818 299 q 818 286 818 291 q 818 279 818 282 q 816 272 816 275 q 816 264 816 268 q 814 248 814 256 q 812 234 813 241 q 810 218 810 225 q 808 203 809 210 l 970 73 l 912 0 l 776 113 q 731 48 758 73 q 670 12 705 24 q 599 -2 635 2 q 526 -8 563 -8 q 512 -8 519 -8 q 498 -8 505 -8 q 486 -8 492 -8 q 473 -8 480 -8 q 308 1 380 -8 q 183 28 235 10 q 105 113 131 47 q 79 292 79 179 q 79 305 79 299 q 79 317 79 311 q 79 323 79 320 q 79 331 79 327 q 79 337 79 334 q 80 343 80 340 q 84 377 81 360 q 92 410 86 393 q 105 441 96 426 q 124 469 113 456 q 147 490 135 482 q 173 504 159 498 q 203 512 188 508 q 231 521 218 516 q 231 521 231 521 q 233 521 231 521 q 233 521 233 521 q 233 521 233 521 q 233 521 233 521 q 234 521 233 521 q 234 521 234 521 q 234 521 234 521 q 243 523 238 522 q 251 525 247 523 q 259 526 255 525 q 268 529 263 527 q 260 534 263 531 q 252 541 256 537 q 246 547 250 544 q 240 552 243 550 q 234 558 237 555 q 229 565 231 561 q 224 571 226 568 q 219 576 222 573 q 202 601 209 587 q 191 628 194 614 q 186 661 186 642 q 186 701 186 679 q 204 818 186 774 q 262 879 223 862 q 350 905 300 896 q 459 914 400 914 q 576 904 526 914 q 660 875 627 894 q 711 810 694 857 q 729 689 729 762 q 729 677 729 683 q 729 664 729 671 q 729 658 729 661 q 729 652 729 654 q 728 645 728 649 q 728 641 728 642 l 625 641 q 623 647 623 643 q 623 656 623 652 q 623 664 623 660 q 623 672 623 668 q 613 762 623 729 q 588 804 604 794 q 535 819 571 814 q 445 824 499 824 q 387 820 415 824 q 336 810 359 817 q 300 780 312 803 q 289 718 289 757 q 291 683 289 699 q 297 654 293 667 q 309 630 301 642 q 327 607 318 618 q 331 603 329 606 q 334 599 333 600 q 339 594 337 596 q 344 589 341 592 q 349 585 347 587 q 354 580 351 582 q 360 576 356 578 q 366 571 363 573 l 714 284 q 714 288 714 285 q 714 296 714 292 q 714 304 714 300 q 714 313 714 309 q 714 321 714 317 q 716 329 714 325 q 716 338 716 334 q 716 346 716 342 q 716 352 716 349 q 716 360 716 356 q 716 368 716 364 q 716 377 716 372 q 715 383 715 379 q 715 390 715 386 q 715 395 715 393 q 715 399 715 396 q 715 402 715 400 q 715 406 715 404 l 715 409 l 715 409 m 333 475 q 321 470 327 472 q 308 465 315 468 q 296 462 302 464 q 286 460 290 461 q 236 441 256 451 q 205 415 216 431 q 188 370 194 402 q 183 294 183 339 q 191 185 183 229 q 216 121 199 142 q 275 90 233 100 q 386 80 317 80 l 476 80 q 492 78 484 78 q 510 78 501 78 q 529 78 520 78 q 548 81 538 78 q 594 89 571 84 q 638 103 617 93 q 674 130 659 113 q 694 174 688 148 l 333 475 l 333 475 "},"I":{"x_min":87,"x_max":193,"ha":282,"o":"m 193 926 l 193 0 l 87 0 l 87 926 l 193 926 l 193 926 "},"G":{"x_min":58.609375,"x_max":824,"ha":860,"o":"m 425 460 l 823 460 q 824 432 824 444 q 824 407 824 419 q 824 382 824 394 q 824 357 824 369 l 824 293 q 816 189 824 237 q 795 97 809 141 q 739 30 779 54 q 633 0 699 5 q 586 -5 610 -5 q 539 -5 563 -5 q 515 -5 526 -5 q 492 -8 503 -5 q 467 -8 479 -8 q 443 -8 456 -8 q 255 7 332 -8 q 139 55 179 22 q 78 159 98 89 q 58 336 58 229 q 58 367 58 351 q 58 400 58 383 q 58 431 58 415 q 60 464 58 447 q 60 494 60 479 q 60 526 60 510 q 60 558 60 542 q 60 590 60 573 q 76 746 60 680 q 128 851 93 812 q 226 911 162 892 q 382 931 289 931 q 410 931 396 931 q 438 931 424 931 q 451 931 444 931 q 465 931 458 931 q 479 929 472 929 q 493 929 486 929 q 507 929 500 929 q 521 929 514 929 q 535 927 528 927 q 549 927 542 927 q 576 927 563 927 q 604 927 590 927 q 706 910 664 927 q 772 863 747 893 q 810 788 797 832 q 823 687 823 744 l 823 656 l 720 656 q 714 727 720 694 q 697 783 708 760 q 658 821 688 807 q 582 835 629 835 q 534 835 558 835 q 486 835 510 835 q 462 835 474 835 q 439 839 450 835 q 414 839 426 839 q 390 839 403 839 q 270 827 316 839 q 204 793 224 816 q 176 718 186 770 q 167 584 167 666 l 167 466 l 167 335 q 171 251 167 290 q 185 176 175 212 q 223 119 193 141 q 304 90 253 97 q 321 87 312 88 q 340 86 331 86 q 359 85 350 85 q 378 85 368 85 q 395 85 386 85 q 414 85 404 85 q 433 85 424 85 q 451 85 442 85 l 506 85 q 615 92 572 85 q 679 118 658 100 q 709 177 699 136 q 720 285 720 219 l 720 370 l 425 370 l 425 460 l 425 460 "},"`":{"x_min":231.9375,"x_max":463.890625,"ha":694,"o":"m 280 916 l 463 777 l 431 727 l 231 850 l 280 916 l 280 916 "},"·":{"x_min":0,"x_max":0,"ha":386},"╔":{"x_min":0,"x_max":0,"ha":386},"¿":{"x_min":69,"x_max":647,"ha":721,"o":"m 350 379 l 452 379 q 447 298 452 332 q 432 243 442 264 q 399 204 422 223 q 335 168 375 185 q 329 166 332 167 q 323 163 325 164 q 315 160 318 161 q 309 157 311 159 q 292 150 300 153 q 277 145 284 148 q 262 139 268 142 q 249 134 256 136 q 209 109 225 123 q 184 80 192 95 q 170 38 174 64 q 166 -24 166 11 q 175 -122 166 -85 q 202 -171 184 -159 q 259 -191 221 -184 q 355 -198 296 -198 q 435 -192 399 -198 q 497 -175 470 -186 q 536 -134 523 -166 q 550 -50 550 -103 l 550 12 l 647 12 q 635 -129 647 -71 q 599 -221 623 -188 q 518 -271 576 -254 q 368 -288 460 -288 q 238 -277 295 -288 q 145 -246 182 -267 q 87 -172 106 -225 q 69 -35 69 -120 q 74 42 69 3 q 89 116 80 81 q 127 177 100 152 q 200 220 154 203 q 206 222 203 221 q 214 224 210 223 q 220 227 217 225 q 228 230 224 228 q 228 230 228 230 q 229 230 228 230 q 229 230 229 230 q 229 230 229 230 q 229 230 229 230 q 231 231 229 230 q 231 231 231 231 q 232 231 232 231 q 274 247 254 237 q 313 268 295 257 q 340 299 331 279 q 349 345 349 318 q 349 349 349 347 q 349 353 349 352 q 349 358 349 356 q 350 361 349 360 q 350 365 350 363 q 350 368 350 367 q 350 373 350 371 q 350 377 350 375 l 350 379 l 350 379 m 348 522 l 348 648 l 458 648 l 458 522 l 348 522 l 348 522 "},"ý":{"x_min":0,"x_max":0,"ha":386},"º":{"x_min":204,"x_max":647,"ha":851,"o":"m 204 444 l 647 444 l 647 390 l 204 390 l 204 444 l 204 444 m 243 741 q 251 834 243 796 q 277 892 259 871 q 331 922 294 912 q 426 933 369 933 q 519 922 483 933 q 573 891 555 911 q 599 831 590 870 q 608 734 608 792 l 608 714 q 601 628 608 663 q 581 569 594 592 q 531 534 567 546 q 434 523 495 523 q 346 532 383 523 q 287 560 310 542 q 254 615 265 580 q 243 703 243 651 l 243 741 l 243 741 m 312 741 l 312 702 q 312 692 312 696 q 312 685 312 688 q 312 678 312 681 q 312 671 312 674 q 314 648 312 659 q 318 626 316 637 q 325 608 320 616 q 336 594 330 599 q 348 585 341 588 q 362 581 354 583 q 377 579 369 580 q 394 579 386 579 q 471 584 441 579 q 514 599 501 590 q 532 636 526 610 q 539 703 539 662 l 539 758 q 535 806 539 784 q 525 845 532 828 q 498 868 518 860 q 445 877 477 877 l 415 879 q 411 877 414 878 q 408 877 409 877 q 404 877 405 877 q 400 877 402 877 q 396 877 398 877 q 393 877 394 877 q 389 876 390 876 q 384 876 387 876 q 371 873 377 874 q 358 871 365 873 q 347 867 352 870 q 337 862 341 864 q 327 849 332 856 q 320 834 323 842 q 316 815 318 824 q 314 795 314 806 q 312 785 312 789 q 312 776 312 780 q 312 766 312 770 q 312 758 312 762 l 312 741 l 312 741 "},"╝":{"x_min":0,"x_max":0,"ha":386},"∞":{"x_min":0,"x_max":0,"ha":386},"ź":{"x_min":0,"x_max":0,"ha":386},"ű":{"x_min":0,"x_max":0,"ha":386},"█":{"x_min":0,"x_max":0,"ha":386},"φ":{"x_min":0,"x_max":0,"ha":386},"ń":{"x_min":0,"x_max":0,"ha":386},";":{"x_min":46,"x_max":170,"ha":253,"o":"m 170 126 l 170 -9 q 165 -60 170 -37 q 151 -101 160 -83 q 124 -127 143 -118 q 73 -136 104 -136 q 70 -136 72 -136 q 65 -136 68 -136 q 62 -136 64 -136 q 59 -136 61 -136 q 57 -135 58 -136 q 57 -135 57 -135 q 55 -135 55 -135 q 53 -135 54 -135 q 50 -135 51 -135 q 50 -135 50 -135 q 48 -135 48 -135 q 46 -135 47 -135 l 46 -83 q 76 -78 64 -83 q 94 -66 89 -73 q 104 -47 101 -59 q 107 -16 107 -34 q 107 -13 107 -15 q 107 -8 107 -11 q 107 -6 107 -6 q 107 -4 107 -5 q 106 -2 106 -2 q 106 0 106 -1 l 60 0 l 60 126 l 170 126 l 170 126 m 163 648 l 163 522 l 53 522 l 53 648 l 163 648 l 163 648 "},"6":{"x_min":74,"x_max":763,"ha":852,"o":"m 739 693 l 638 693 q 634 740 638 716 q 624 785 631 763 q 598 821 617 808 q 547 838 579 834 q 517 842 532 842 q 486 842 501 842 q 472 842 479 842 q 457 845 464 842 q 442 845 450 845 q 428 845 435 845 l 395 847 q 386 845 390 846 q 379 845 382 845 q 371 843 375 843 q 363 843 367 843 q 354 843 358 843 q 347 843 350 843 q 339 840 343 840 q 331 840 335 840 q 291 836 310 840 q 254 827 272 833 q 223 812 236 821 q 202 788 210 802 q 195 772 197 780 q 189 755 192 763 q 186 736 188 745 q 184 719 184 727 q 182 707 182 713 q 182 695 182 701 q 182 684 182 690 q 182 673 182 679 l 182 487 q 197 505 189 497 q 215 522 206 513 q 235 536 224 530 q 260 547 246 543 q 290 555 275 551 q 322 561 306 559 q 354 564 338 564 q 388 564 371 564 q 395 564 392 564 q 403 567 399 564 q 411 567 407 567 q 419 567 415 567 q 428 567 424 567 q 436 567 432 567 q 443 567 439 567 q 451 567 447 567 q 594 554 534 567 q 691 516 655 541 q 745 433 727 491 q 763 285 763 376 q 763 277 763 281 q 763 268 763 272 q 763 265 763 267 q 763 261 763 263 q 763 257 763 258 q 763 253 763 256 q 753 164 763 207 q 728 83 744 122 q 675 22 711 44 q 582 1 639 1 q 542 -4 563 -4 q 503 -4 522 -4 q 483 -4 493 -4 q 463 -7 472 -4 q 442 -7 451 -7 q 422 -7 432 -7 q 261 6 328 -7 q 154 51 194 20 q 94 147 114 81 q 74 313 74 212 l 74 484 q 74 506 74 494 q 74 531 74 519 q 74 557 74 544 q 74 584 74 571 q 74 598 74 591 q 74 611 74 604 q 74 623 74 616 q 74 636 74 630 q 74 649 74 643 q 74 662 74 655 q 74 675 74 668 q 74 687 74 682 q 83 768 74 730 q 112 837 93 805 q 165 889 132 869 q 243 917 197 909 q 254 919 249 919 q 267 922 260 920 q 278 922 272 922 q 289 924 283 923 q 312 926 300 926 q 336 929 324 926 q 358 929 347 929 q 382 929 370 929 q 393 929 388 929 q 406 931 399 929 q 417 931 411 931 q 428 931 422 931 q 540 923 486 931 q 643 901 594 916 q 716 842 691 887 q 740 720 740 797 q 740 717 740 719 q 740 712 740 715 q 740 710 740 711 q 741 709 740 709 q 741 707 741 708 q 741 705 741 706 q 741 703 741 704 q 741 701 741 702 q 739 699 739 699 q 739 697 739 698 q 739 695 739 695 q 739 694 739 694 q 739 692 739 693 q 739 690 739 691 l 739 693 l 739 693 m 182 320 q 190 198 182 246 q 215 126 199 149 q 279 90 232 101 q 401 79 325 79 l 447 79 q 456 79 451 79 q 465 79 460 79 q 552 85 515 79 q 611 103 589 91 q 647 153 635 116 q 660 252 660 191 q 653 367 660 321 q 631 434 646 413 q 570 467 617 455 q 446 479 524 479 l 411 479 q 394 476 403 476 q 375 476 385 476 q 365 476 370 476 q 356 476 360 476 q 345 473 350 473 q 336 473 340 473 q 302 470 318 473 q 270 463 285 467 q 240 453 253 459 q 217 439 228 448 q 200 421 207 431 q 190 401 193 412 q 184 378 186 389 q 182 355 182 366 q 182 347 182 351 q 182 341 182 344 q 182 333 182 337 q 182 327 182 330 l 182 320 l 182 320 "},"n":{"x_min":83,"x_max":632,"ha":715,"o":"m 83 649 l 173 649 l 173 565 q 216 611 192 593 q 269 640 239 630 q 329 655 298 650 q 394 660 360 660 q 506 646 459 660 q 579 608 552 633 q 618 537 605 583 q 632 426 632 491 l 632 0 l 533 0 l 533 420 q 525 499 533 467 q 502 547 517 530 q 454 570 487 562 q 373 579 421 579 q 290 567 325 579 q 230 535 255 556 q 192 478 205 513 q 180 394 180 442 l 180 0 l 83 0 l 83 649 l 83 649 "},"¤":{"x_min":91.5,"x_max":862.5,"ha":954,"o":"m 94 151 l 220 280 q 192 321 205 298 q 172 369 180 344 q 158 420 162 394 q 154 472 154 445 q 158 525 154 500 q 173 573 163 550 q 195 620 183 597 q 223 665 208 643 l 91 798 l 149 857 l 280 726 q 291 731 286 728 q 302 736 297 733 q 313 742 308 739 q 325 749 319 746 q 361 766 343 758 q 397 779 379 774 q 436 789 416 786 q 479 792 457 792 q 531 787 507 792 q 580 772 556 782 q 626 751 604 762 q 670 724 648 739 l 802 855 l 861 798 l 730 669 q 758 622 745 646 q 780 573 770 598 q 795 523 790 548 q 800 470 800 498 q 795 418 800 444 q 780 369 790 392 q 759 322 770 345 q 733 277 748 299 l 862 151 l 805 93 l 674 221 q 629 189 652 202 q 581 167 606 176 q 530 154 557 158 q 476 150 504 150 q 424 155 450 150 q 373 170 398 161 q 325 193 348 181 q 280 219 302 205 l 152 93 l 94 151 l 94 151 m 478 703 q 390 685 430 703 q 316 633 350 667 q 266 558 283 598 q 250 472 250 518 q 266 384 250 424 q 316 310 283 344 q 390 260 349 277 q 477 244 430 244 q 563 260 523 244 q 637 310 604 277 q 687 384 670 344 q 704 472 704 424 q 687 558 704 518 q 637 633 670 598 q 564 684 604 667 q 478 702 525 702 l 478 704 l 478 703 "},"∂":{"x_min":0,"x_max":0,"ha":386},"p":{"x_min":83,"x_max":643,"ha":708,"o":"m 83 647 l 176 647 l 176 565 q 216 609 194 591 q 265 635 238 626 q 320 649 291 644 q 382 655 350 655 q 523 632 469 655 q 599 565 577 610 q 631 462 620 522 q 643 325 643 401 q 632 189 643 250 q 602 81 622 129 q 531 12 583 34 q 393 -10 479 -10 q 389 -10 391 -10 q 384 -10 387 -10 q 381 -10 383 -10 q 376 -10 379 -10 q 319 -5 347 -10 q 265 5 291 0 q 217 30 238 13 q 179 73 195 47 l 179 -279 l 83 -279 l 83 647 l 83 647 m 181 346 l 181 297 q 188 202 181 244 q 209 129 195 161 q 262 83 225 98 q 359 68 300 68 q 464 82 425 68 q 516 126 504 97 q 535 199 529 155 q 542 298 542 243 l 542 340 q 535 439 542 396 q 518 512 529 482 q 468 558 507 543 q 364 574 429 574 q 261 560 300 574 q 208 518 222 546 q 188 448 194 491 q 182 343 181 404 l 182 346 l 181 346 "},"│":{"x_min":0,"x_max":0,"ha":386},"‡":{"x_min":161,"x_max":692,"ha":852,"o":"m 477 926 l 477 635 l 692 635 l 692 554 l 477 554 l 477 136 l 692 136 l 692 55 l 477 55 l 477 -250 l 376 -250 l 376 55 l 161 55 l 161 136 l 376 136 l 376 554 l 161 554 l 161 635 l 376 635 l 376 926 l 477 926 l 477 926 "},"ň":{"x_min":0,"x_max":0,"ha":386},"√":{"x_min":0,"x_max":0,"ha":386},"ę":{"x_min":0,"x_max":0,"ha":386},"S":{"x_min":42,"x_max":741,"ha":779,"o":"m 723 672 l 620 672 q 610 754 620 720 q 583 806 600 789 q 530 831 566 822 q 442 841 495 841 l 392 841 q 372 839 382 839 q 350 839 361 839 q 339 839 345 839 q 327 839 334 839 q 316 837 321 837 q 303 837 310 837 q 275 834 289 836 q 246 829 260 832 q 220 822 232 826 q 200 812 209 818 q 181 795 189 805 q 167 775 173 786 q 162 763 164 769 q 159 751 160 756 q 156 738 157 744 q 155 726 155 733 q 152 715 153 720 q 152 703 152 709 q 152 692 152 698 q 152 682 152 687 q 157 614 152 643 q 175 565 163 584 q 216 534 188 545 q 289 523 245 523 q 304 519 296 520 q 320 519 311 519 q 334 516 327 516 q 349 516 342 516 q 379 516 364 516 q 407 516 393 516 q 535 506 477 516 q 642 481 593 497 q 715 411 690 464 q 741 267 741 357 q 732 169 741 215 q 709 86 724 123 q 654 27 693 48 q 551 0 614 5 q 540 0 546 0 q 529 -3 535 0 q 518 -3 524 -3 q 507 -3 513 -3 q 486 -3 496 -3 q 464 -4 475 -3 q 453 -4 458 -4 q 442 -6 447 -4 q 431 -6 436 -6 q 420 -6 425 -6 q 397 -6 408 -6 q 375 -6 386 -6 q 243 2 303 -6 q 136 29 183 10 q 65 101 89 48 q 42 241 42 153 q 42 246 42 244 q 42 252 42 249 q 42 257 42 255 q 43 263 42 260 q 43 268 43 266 q 43 274 43 271 q 43 277 43 275 q 45 280 43 278 q 45 282 45 281 q 45 287 45 284 l 145 287 q 153 181 145 223 q 179 121 161 140 q 238 92 197 102 q 343 83 279 83 l 431 83 q 439 83 435 83 q 449 83 443 83 q 534 89 499 83 q 590 109 569 95 q 623 160 612 124 q 635 256 635 196 q 628 333 635 302 q 607 379 621 364 q 564 403 593 394 q 490 413 535 413 q 480 413 485 413 q 470 416 475 413 q 459 416 464 416 q 449 416 454 416 q 438 416 443 416 q 428 419 434 416 q 418 419 422 419 q 407 419 413 419 q 271 429 335 419 q 155 457 207 439 q 74 529 100 474 q 48 677 48 584 q 69 813 48 760 q 134 887 91 866 q 234 918 177 908 q 364 929 292 929 l 389 930 q 521 920 461 930 q 628 895 581 911 q 699 825 675 878 q 723 683 723 772 l 723 672 l 723 672 "},"/":{"x_min":9.71875,"x_max":801.390625,"ha":897,"o":"m 801 927 l 84 -136 l 9 -136 l 723 927 l 801 927 l 801 927 "},"►":{"x_min":0,"x_max":0,"ha":386},"y":{"x_min":-4.609375,"x_max":544.328125,"ha":540,"o":"m 544 649 l 361 -37 q 358 -46 359 -41 q 355 -56 356 -51 q 353 -65 354 -61 q 351 -76 352 -70 q 322 -154 338 -116 q 281 -224 305 -191 q 224 -275 259 -258 q 139 -293 188 -293 q 134 -293 137 -293 q 128 -292 131 -293 q 121 -291 124 -292 q 116 -290 119 -290 q 105 -287 110 -288 q 94 -285 99 -287 l 94 -207 q 96 -207 95 -207 q 98 -208 96 -207 q 100 -208 99 -208 q 102 -208 100 -208 q 105 -208 103 -208 q 107 -210 106 -208 q 109 -210 107 -210 q 112 -210 110 -210 q 114 -210 113 -210 q 116 -211 114 -210 q 118 -211 117 -211 q 120 -211 119 -211 q 123 -211 121 -211 q 126 -211 124 -211 q 127 -211 126 -211 q 130 -211 128 -211 q 174 -200 155 -211 q 205 -170 192 -190 q 228 -129 217 -151 q 244 -84 238 -108 q 250 -61 247 -72 q 255 -38 254 -50 q 258 -28 256 -33 q 261 -18 259 -23 q 262 -9 261 -13 q 265 0 263 -4 l 230 0 l -4 649 l 94 649 l 297 70 l 444 649 l 544 649 l 544 649 "},"≈":{"x_min":0,"x_max":0,"ha":386},"‗":{"x_min":0,"x_max":0,"ha":386},"g":{"x_min":68,"x_max":628,"ha":707,"o":"m 628 647 l 628 -41 q 610 -166 628 -116 q 557 -240 593 -216 q 468 -276 522 -264 q 344 -289 415 -289 q 233 -279 281 -289 q 153 -252 185 -270 q 105 -190 121 -234 q 90 -76 90 -145 l 182 -76 q 191 -148 182 -120 q 216 -187 200 -176 q 262 -204 233 -198 q 332 -209 290 -209 q 418 -203 381 -209 q 481 -184 455 -197 q 521 -138 508 -172 q 535 -50 535 -104 l 535 79 q 502 33 521 51 q 458 7 483 15 q 408 -5 433 -1 q 357 -8 383 -8 q 352 -8 355 -8 q 348 -10 350 -8 q 343 -10 346 -10 q 339 -10 341 -10 q 329 -10 333 -10 q 320 -10 325 -10 q 190 10 241 -10 q 115 71 138 30 q 79 169 91 113 q 68 294 68 224 q 77 435 68 371 q 105 549 87 498 q 180 627 124 601 q 329 653 236 653 q 391 647 361 653 q 448 634 422 642 q 498 607 476 626 q 536 560 521 588 l 536 647 l 628 647 l 628 647 m 169 324 l 169 301 q 174 201 169 244 q 193 127 180 158 q 243 82 204 97 q 347 68 282 68 q 416 75 384 68 q 471 97 447 83 q 507 140 494 112 q 525 209 521 167 q 526 237 526 223 q 529 265 526 251 q 529 279 529 272 q 530 294 529 285 q 530 308 530 301 q 530 322 530 315 q 524 424 530 379 q 507 503 518 469 q 455 554 494 537 q 347 572 415 572 q 257 561 293 572 q 204 530 220 551 q 177 470 186 509 q 169 374 169 431 l 169 324 l 169 324 "},"²":{"x_min":0,"x_max":0,"ha":386},"┘":{"x_min":0,"x_max":0,"ha":386},"–":{"x_min":28,"x_max":824,"ha":852,"o":"m 28 383 l 824 383 l 824 293 l 28 293 l 28 383 l 28 383 "},"ë":{"x_min":67,"x_max":634,"ha":698,"o":"m 534 198 l 634 198 q 614 80 634 124 q 557 21 595 36 q 468 -1 518 5 q 357 -8 418 -8 q 207 8 265 -8 q 121 60 148 25 q 80 155 94 94 q 67 305 67 217 q 77 455 67 390 q 108 565 87 519 q 187 633 129 610 q 343 656 246 656 q 492 640 433 656 q 577 594 551 625 q 618 503 605 564 q 632 352 632 443 l 632 307 l 167 307 q 172 206 167 250 q 189 131 178 163 q 239 81 200 97 q 343 66 278 66 l 369 68 q 383 66 376 66 q 398 66 390 66 q 415 66 406 66 q 433 68 423 67 q 443 69 438 68 q 454 70 448 70 q 463 72 458 71 q 473 75 468 74 q 491 81 483 78 q 507 90 500 85 q 518 101 514 95 q 525 115 523 107 q 529 132 528 124 q 532 149 530 140 q 532 152 532 150 q 534 154 532 153 q 534 158 534 156 q 534 161 534 160 q 534 168 534 164 q 534 174 534 171 l 534 198 l 534 198 m 536 382 q 529 480 536 440 q 506 540 522 519 q 454 570 493 560 q 351 581 415 581 q 258 570 296 581 q 203 539 221 560 q 176 478 185 518 q 168 381 168 438 l 536 381 l 536 382 m 281 807 l 281 715 l 173 715 l 173 807 l 281 807 l 281 807 m 528 807 l 528 715 l 418 715 l 418 807 l 528 807 l 528 807 "},"ƒ":{"x_min":98.609375,"x_max":752.78125,"ha":851,"o":"m 509 614 l 401 5 q 375 -87 391 -50 q 338 -146 359 -125 q 277 -177 318 -167 q 176 -188 237 -188 q 165 -188 170 -188 q 156 -188 161 -188 q 151 -188 154 -188 q 147 -188 148 -188 q 142 -187 144 -187 q 137 -187 140 -187 q 131 -187 134 -187 q 127 -187 129 -187 q 122 -185 125 -185 q 118 -185 120 -185 q 107 -182 112 -183 q 98 -182 102 -182 l 112 -103 q 120 -103 116 -103 q 130 -106 125 -104 q 138 -106 134 -106 q 147 -107 143 -107 q 155 -107 151 -107 q 165 -108 159 -107 q 174 -108 169 -108 q 183 -108 179 -108 q 236 -102 215 -108 q 268 -83 256 -96 q 287 -51 279 -71 q 301 -3 295 -30 l 411 614 l 284 614 l 298 694 l 425 694 l 450 837 q 477 927 461 889 q 516 985 494 964 q 578 1015 540 1005 q 672 1026 616 1026 q 681 1026 676 1026 q 691 1026 686 1026 q 697 1026 694 1026 q 702 1026 700 1026 q 706 1025 704 1025 q 712 1025 709 1025 q 717 1025 715 1025 q 722 1025 719 1025 q 726 1023 723 1023 q 731 1023 729 1023 q 742 1023 737 1023 q 752 1023 747 1023 l 738 946 q 720 945 729 945 q 702 945 711 945 q 694 945 698 945 q 686 946 690 945 q 676 946 680 946 q 668 946 672 946 q 614 940 636 946 q 581 923 593 934 q 563 892 572 912 q 550 842 555 872 l 523 694 l 694 694 l 680 614 l 509 614 l 509 614 "},"J":{"x_min":36,"x_max":608,"ha":697,"o":"m 608 926 l 608 254 q 592 131 608 181 q 548 51 577 80 q 467 6 518 20 q 342 -7 416 -7 q 217 0 273 -7 q 119 26 160 8 q 56 93 77 43 q 36 225 36 143 q 36 253 36 239 q 36 280 36 266 q 36 308 36 294 q 37 336 36 322 l 140 336 l 140 258 q 146 172 140 206 q 164 119 152 138 q 210 91 177 101 q 294 82 242 82 q 395 89 353 82 q 459 112 437 97 q 493 166 482 127 q 505 267 505 205 l 505 926 l 608 926 l 608 926 "},"Ã":{"x_min":6.5,"x_max":838.953125,"ha":846,"o":"m 657 196 l 188 196 l 117 0 l 6 0 l 343 926 l 492 926 l 838 0 l 729 0 l 657 196 l 657 196 m 626 281 l 420 850 l 216 281 l 626 281 l 626 281 m 579 1128 l 632 1094 q 632 1091 632 1091 q 632 1090 632 1090 q 630 1089 630 1089 q 630 1089 630 1089 q 630 1089 630 1089 q 630 1089 630 1089 q 629 1087 629 1087 q 629 1087 629 1087 q 606 1055 619 1071 q 577 1026 592 1040 q 543 1005 562 1012 q 503 999 524 999 q 480 1001 491 999 q 457 1007 468 1003 q 436 1015 446 1011 q 414 1025 425 1019 q 412 1025 413 1025 q 411 1025 411 1025 q 409 1025 410 1025 q 409 1027 409 1026 q 398 1032 403 1030 q 388 1036 393 1033 q 377 1039 382 1037 q 367 1043 372 1042 q 347 1049 357 1047 q 325 1052 336 1052 q 307 1048 316 1052 q 292 1037 299 1044 q 281 1024 287 1032 q 271 1008 275 1016 q 269 1006 270 1007 q 269 1004 269 1005 q 269 1003 269 1004 q 269 1003 269 1003 q 267 1001 267 1001 q 267 1001 267 1001 l 212 1034 q 231 1064 220 1048 q 255 1093 242 1079 q 284 1116 267 1108 q 323 1124 302 1124 q 347 1122 335 1124 q 370 1117 359 1121 q 381 1112 375 1115 q 392 1108 386 1110 q 403 1103 397 1105 q 414 1098 409 1101 q 436 1088 425 1093 q 457 1079 446 1083 q 480 1073 468 1075 q 505 1071 492 1071 q 525 1074 516 1071 q 543 1084 535 1077 q 559 1099 552 1091 q 571 1115 566 1107 q 573 1117 573 1117 q 576 1119 574 1118 q 576 1122 576 1121 q 579 1125 577 1124 l 579 1128 l 579 1128 "},"ŕ":{"x_min":0,"x_max":0,"ha":386},"▲":{"x_min":0,"x_max":0,"ha":386},"☻":{"x_min":0,"x_max":0,"ha":386},"⌠":{"x_min":0,"x_max":0,"ha":386},"©":{"x_min":65,"x_max":1022,"ha":1087,"o":"m 544 940 q 726 904 642 940 q 881 798 810 869 q 986 643 951 727 q 1022 460 1022 558 q 986 276 1022 361 q 881 122 951 191 q 726 17 810 51 q 544 -17 642 -17 q 360 17 445 -17 q 205 121 276 51 q 99 276 134 191 q 65 459 65 360 q 99 643 65 558 q 205 798 134 727 q 360 903 276 868 q 544 939 445 939 l 544 941 l 544 940 m 544 886 q 381 854 456 886 q 245 759 306 822 q 153 621 184 696 q 123 460 123 546 q 153 297 123 372 q 245 159 184 222 q 382 64 307 95 q 544 33 457 33 q 706 64 632 33 q 841 159 780 95 q 933 298 902 223 q 964 459 964 373 q 933 620 964 545 q 841 757 902 695 q 705 852 780 820 q 544 884 631 884 l 544 887 l 544 886 m 796 410 q 777 314 796 356 q 721 240 757 272 q 642 193 686 209 q 547 178 599 178 q 437 198 486 178 q 353 259 389 218 q 300 349 318 299 q 282 458 282 399 q 300 566 282 516 q 353 660 318 617 q 437 722 389 701 q 548 744 486 744 q 550 744 549 744 q 552 744 551 744 q 554 744 553 744 q 556 744 555 744 q 637 730 598 744 q 710 692 675 717 q 766 633 746 667 q 791 555 785 598 l 734 555 q 709 611 727 586 q 664 652 692 635 q 608 675 638 667 q 546 684 578 684 q 463 666 499 684 q 401 614 426 649 q 364 541 376 580 q 353 458 353 502 q 365 376 353 415 q 402 304 377 337 q 463 254 427 270 q 547 239 499 239 q 619 250 587 239 q 678 283 652 261 q 721 337 706 306 q 742 409 736 368 l 799 409 l 796 410 "},"˘":{"x_min":140,"x_max":555.28125,"ha":694,"o":"m 140 910 l 206 910 q 224 861 212 882 q 256 824 237 840 q 299 799 276 807 q 348 791 321 791 q 397 799 374 791 q 440 824 420 807 q 471 861 459 840 q 490 909 484 882 l 555 909 q 532 835 549 868 q 485 775 515 802 q 422 733 456 747 q 348 720 388 720 q 272 733 306 720 q 210 775 238 747 q 164 836 183 803 q 140 907 146 868 l 140 910 l 140 910 "},"≥":{"x_min":0,"x_max":0,"ha":386},"Ă":{"x_min":0,"x_max":0,"ha":386},"┤":{"x_min":0,"x_max":0,"ha":386},"↑":{"x_min":0,"x_max":0,"ha":386},"D":{"x_min":87,"x_max":854,"ha":905,"o":"m 87 0 l 87 925 l 515 925 q 687 898 619 925 q 788 822 755 872 q 837 698 820 772 q 854 527 854 625 l 854 441 q 842 275 854 352 q 806 131 830 198 q 716 32 783 65 q 541 0 649 0 l 87 0 l 87 0 m 190 90 l 492 90 q 509 87 500 87 q 527 87 517 87 q 546 87 536 87 q 566 90 556 87 q 602 93 585 90 q 638 103 620 97 q 670 121 656 110 q 696 145 685 131 q 717 180 708 160 q 732 222 726 199 q 741 267 738 244 q 745 315 745 290 q 745 326 745 320 q 748 337 745 331 q 748 347 748 341 q 748 358 748 352 q 748 369 748 363 q 750 380 748 374 q 750 390 750 384 q 750 401 750 395 l 750 449 q 750 475 750 462 q 750 502 750 488 q 747 529 747 516 q 747 556 747 542 q 747 584 747 570 q 745 612 747 598 q 742 638 744 624 q 739 666 741 652 q 713 753 732 719 q 664 801 695 787 q 595 824 634 816 q 513 832 557 832 l 190 832 l 190 90 l 190 90 "},"┼":{"x_min":0,"x_max":0,"ha":386},"ÿ":{"x_min":-4.234375,"x_max":544.828125,"ha":541,"o":"m 544 649 l 361 -37 q 358 -46 359 -41 q 355 -56 357 -51 q 353 -65 354 -61 q 351 -76 352 -70 q 322 -154 339 -116 q 281 -224 305 -191 q 224 -275 259 -258 q 139 -293 188 -293 q 134 -293 137 -293 q 128 -292 131 -293 q 121 -291 124 -292 q 116 -290 119 -290 q 105 -287 110 -288 q 94 -285 99 -287 l 94 -207 q 96 -207 95 -207 q 98 -208 96 -207 q 100 -208 99 -208 q 102 -208 100 -208 q 105 -208 103 -208 q 107 -210 106 -208 q 109 -210 107 -210 q 112 -210 110 -210 q 114 -210 113 -210 q 116 -211 114 -210 q 118 -211 117 -211 q 120 -211 119 -211 q 123 -211 121 -211 q 125 -211 124 -211 q 127 -211 125 -211 q 130 -211 128 -211 q 173 -200 155 -211 q 205 -170 192 -190 q 228 -129 217 -151 q 244 -84 238 -108 q 250 -61 247 -72 q 255 -38 254 -50 q 258 -28 256 -33 q 261 -18 259 -23 q 262 -9 261 -13 q 265 0 263 -4 l 230 0 l -4 649 l 94 649 l 297 70 l 444 649 l 544 649 l 544 649 m 201 806 l 201 714 l 93 714 l 93 806 l 201 806 l 201 806 m 449 806 l 449 714 l 339 714 l 339 806 l 449 806 l 449 806 "},"ĺ":{"x_min":0,"x_max":0,"ha":386},"ł":{"x_min":0,"x_max":0,"ha":386},"Ł":{"x_min":0,"x_max":0,"ha":386},"├":{"x_min":0,"x_max":0,"ha":386},"$":{"x_min":37,"x_max":813,"ha":851,"o":"m 466 836 l 466 514 q 606 504 543 514 q 717 477 670 495 q 789 405 765 459 q 813 259 813 351 q 792 120 813 174 q 730 44 771 66 q 631 11 689 22 q 495 0 572 0 q 491 0 493 0 q 486 0 489 0 q 484 0 485 0 q 481 0 482 0 q 477 0 479 0 q 472 0 475 0 q 470 0 471 0 q 470 0 470 0 q 468 0 468 0 q 466 0 467 0 l 466 -104 l 388 -104 l 388 0 q 245 6 308 0 q 134 29 182 13 q 61 100 86 44 q 37 254 37 157 l 37 289 l 140 289 q 149 173 140 216 q 180 114 159 129 q 244 90 200 98 q 354 82 288 82 l 388 84 l 388 425 q 260 433 319 425 q 147 458 200 441 q 70 525 96 474 q 45 660 45 575 q 65 800 45 746 q 128 876 86 854 q 227 912 169 900 q 358 924 285 924 l 388 926 l 388 1013 l 466 1013 l 466 925 q 604 915 543 925 q 707 886 664 905 q 770 812 749 868 q 792 666 792 757 l 691 666 q 684 747 691 714 q 667 797 678 779 q 622 825 654 816 q 538 835 591 835 l 466 835 l 466 836 m 466 84 q 474 81 470 82 q 482 81 478 81 q 491 81 486 81 q 502 81 496 81 q 589 87 550 81 q 654 108 628 94 q 696 157 682 123 q 710 245 710 191 q 697 345 710 308 q 656 395 684 383 q 588 414 629 408 q 489 421 546 421 l 466 425 l 466 84 l 466 84 m 388 836 l 342 836 q 262 831 297 836 q 200 816 226 826 q 161 774 174 806 q 149 687 149 741 q 160 591 149 627 q 196 541 172 555 q 256 520 219 527 q 343 514 293 514 l 388 514 l 388 837 l 388 836 "},"w":{"x_min":4.171875,"x_max":926.390625,"ha":931,"o":"m 926 649 l 744 0 l 604 0 l 463 579 l 323 0 l 180 0 l 4 649 l 104 649 l 252 65 l 395 649 l 534 649 l 676 65 l 825 649 l 926 649 l 926 649 "},"∫":{"x_min":0,"x_max":0,"ha":386},"\\":{"x_min":97.21875,"x_max":888.890625,"ha":897,"o":"m 97 927 l 175 927 l 888 -136 l 813 -136 l 97 927 l 97 927 "},"Ì":{"x_min":24.5,"x_max":256.875,"ha":282,"o":"m 193 926 l 193 0 l 87 0 l 87 926 l 193 926 l 193 926 m 73 1174 l 256 1035 l 224 985 l 24 1107 l 73 1174 l 73 1174 "},"Ç":{"x_min":51,"x_max":793,"ha":821,"o":"m 430 -48 l 506 -91 l 396 -243 l 335 -211 l 430 -48 l 430 -48 m 687 315 l 790 315 q 790 301 790 308 q 790 290 790 295 q 790 284 790 287 q 791 280 790 281 q 791 274 791 277 q 791 269 791 271 q 791 258 791 263 q 791 247 791 252 q 791 241 791 244 q 793 237 791 238 q 793 231 793 234 q 793 226 793 228 q 780 133 793 173 q 744 61 767 92 q 681 14 720 30 q 588 -2 642 -2 q 551 -2 570 -2 q 513 -2 532 -2 q 494 -2 503 -2 q 475 -3 485 -2 q 457 -3 466 -3 q 438 -3 448 -3 l 309 -3 q 160 31 216 -3 q 88 126 105 66 q 60 253 70 187 q 51 391 51 319 q 51 394 51 392 q 51 397 51 395 q 51 399 51 398 q 51 402 51 401 q 51 405 51 404 q 51 408 51 406 q 51 409 51 408 q 51 412 51 411 q 51 417 51 415 q 51 423 51 420 q 51 428 51 426 q 51 433 51 430 q 51 437 51 434 q 51 441 51 440 q 51 450 51 445 q 51 461 51 455 l 51 609 q 62 726 51 673 q 96 819 74 779 q 167 884 120 859 q 287 919 214 909 q 309 921 298 921 q 331 923 320 921 q 354 923 342 923 q 377 926 366 923 q 388 926 383 926 q 399 928 394 926 q 410 928 405 928 q 422 928 416 928 q 445 928 433 928 q 468 928 456 928 q 621 914 560 928 q 712 875 683 901 q 759 789 742 849 q 777 635 777 728 l 677 635 q 670 725 677 687 q 652 786 664 762 q 604 822 639 810 q 512 835 568 835 q 487 835 499 835 q 463 835 474 835 q 438 829 451 829 q 413 829 426 829 q 364 829 388 829 q 316 829 340 829 q 232 812 265 829 q 186 765 200 795 q 165 698 171 736 q 159 612 159 661 l 159 598 l 159 449 l 159 401 q 159 375 159 387 q 159 352 159 363 q 159 340 159 347 q 162 328 159 334 q 163 316 162 321 q 164 303 164 310 q 166 259 164 281 q 173 216 169 237 q 182 176 176 194 q 197 144 188 159 q 218 117 205 127 q 249 99 231 106 q 286 89 268 93 q 324 86 305 86 q 338 85 331 85 q 349 85 344 85 q 362 85 356 85 q 374 85 369 85 q 397 85 385 85 q 420 85 409 85 q 442 85 431 85 q 466 86 453 85 q 488 86 477 86 q 510 86 499 86 q 533 86 521 86 q 556 88 545 86 q 610 98 586 91 q 650 117 634 105 q 677 151 667 129 q 687 208 687 174 q 687 221 687 215 q 687 233 687 227 q 687 247 687 240 q 687 260 687 253 q 687 274 687 267 q 687 285 687 280 q 687 292 687 288 q 687 299 687 295 q 687 305 687 302 q 687 312 687 309 l 687 315 l 687 315 "},"C":{"x_min":50,"x_max":792,"ha":821,"o":"m 686 314 l 789 314 q 789 301 789 307 q 789 290 789 295 q 789 284 789 287 q 790 279 789 281 q 790 274 790 276 q 790 269 790 272 q 790 258 790 263 q 790 247 790 252 q 790 241 790 244 q 792 237 790 238 q 792 231 792 234 q 792 226 792 229 q 779 134 792 174 q 742 64 766 93 q 680 16 719 34 q 587 -2 641 -2 q 550 -2 569 -2 q 512 -2 531 -2 q 493 -2 502 -2 q 474 -3 484 -2 q 456 -3 465 -3 q 437 -3 447 -3 l 308 -3 q 156 30 212 -3 q 84 127 101 64 q 59 259 68 190 q 50 402 50 328 q 50 405 50 404 q 50 408 50 407 q 50 409 50 408 q 50 412 50 411 q 50 418 50 415 q 50 423 50 421 q 50 428 50 426 q 50 433 50 430 q 50 437 50 434 q 50 441 50 440 q 50 450 50 445 q 50 461 50 455 l 50 608 q 61 725 50 672 q 95 819 73 777 q 166 885 119 860 q 286 917 214 909 q 308 919 297 919 q 330 922 319 919 q 353 923 341 923 q 376 926 365 923 q 387 926 382 926 q 398 928 393 926 q 409 928 404 928 q 421 928 415 928 q 444 928 432 928 q 467 928 456 928 q 622 914 560 928 q 713 875 683 901 q 759 789 742 849 q 776 635 776 728 l 676 635 q 669 723 676 686 q 651 786 663 761 q 603 822 638 809 q 511 835 567 835 q 486 835 498 835 q 462 835 473 835 q 437 832 450 832 q 412 832 425 832 q 363 832 387 832 q 315 825 339 832 q 231 809 264 825 q 185 765 199 793 q 164 700 171 739 q 158 612 158 661 l 158 598 l 158 450 l 158 401 q 158 388 158 394 q 158 376 158 382 q 158 364 158 369 q 158 351 158 358 q 158 339 158 345 q 161 327 158 333 q 162 315 161 320 q 163 302 163 309 q 165 258 163 280 q 172 215 168 236 q 181 176 175 194 q 196 142 187 158 q 217 118 204 128 q 247 100 229 107 q 282 90 264 94 q 321 85 301 85 q 335 83 327 84 q 351 83 343 83 q 366 83 358 83 q 380 83 373 83 q 424 83 402 83 q 468 83 445 83 q 511 85 490 83 q 555 87 533 87 q 609 97 585 90 q 649 117 633 105 q 676 151 666 128 q 686 206 686 173 q 686 220 686 213 q 686 231 686 226 q 686 245 686 238 q 686 259 686 252 q 686 272 686 266 q 686 284 686 279 q 686 291 686 287 q 686 298 686 294 q 686 304 686 301 q 686 311 686 308 l 686 314 l 686 314 "},"∩":{"x_min":0,"x_max":0,"ha":386},"↕":{"x_min":0,"x_max":0,"ha":386},"!":{"x_min":114,"x_max":224,"ha":334,"o":"m 224 126 l 224 0 l 114 0 l 114 126 l 224 126 l 224 126 m 215 927 l 215 256 l 114 256 l 114 927 l 222 927 l 215 927 "},"ç":{"x_min":69,"x_max":629,"ha":673,"o":"m 338 -48 l 403 -86 l 309 -218 l 256 -190 l 338 -48 l 338 -48 m 533 235 l 629 235 q 613 108 629 157 q 566 36 598 59 q 483 3 535 13 q 356 -7 430 -7 q 191 13 253 -7 q 109 74 130 33 q 78 183 88 116 q 69 341 69 250 q 82 483 69 423 q 125 579 96 543 q 211 634 153 615 q 355 653 269 653 q 454 643 407 653 q 539 618 501 634 q 598 559 578 600 q 618 455 618 519 q 618 453 618 454 q 618 450 618 451 q 618 447 618 448 q 618 444 618 446 q 616 441 616 443 q 616 439 616 440 q 616 436 616 437 q 616 435 616 435 l 522 435 q 512 509 522 480 q 483 550 502 537 q 432 568 463 562 q 356 575 400 575 q 253 563 292 575 q 199 527 214 551 q 177 461 185 505 q 170 354 170 417 l 170 290 q 176 192 170 233 q 195 123 182 151 q 245 82 207 96 q 346 69 282 69 q 437 75 400 69 q 494 94 474 81 q 523 141 513 106 q 533 232 533 176 l 533 235 l 533 235 "},"È":{"x_min":51,"x_max":645.046875,"ha":691,"o":"m 152 833 l 152 520 l 624 520 l 624 432 l 152 432 l 152 89 l 645 89 l 645 0 l 51 0 l 51 926 l 645 926 l 645 833 l 152 833 l 152 833 m 278 1174 l 461 1035 l 429 985 l 229 1107 l 278 1174 l 278 1174 "},"X":{"x_min":-6.9375,"x_max":813.890625,"ha":807,"o":"m 790 926 l 495 478 l 813 0 l 690 0 l 408 424 l 120 0 l -6 0 l 323 478 l 19 926 l 145 926 l 408 530 l 668 926 l 790 926 l 790 926 "},"ô":{"x_min":75,"x_max":649,"ha":705,"o":"m 75 341 q 86 482 75 422 q 123 580 98 541 q 205 637 148 618 q 351 657 262 657 q 505 640 444 657 q 593 591 565 623 q 635 498 621 559 q 649 344 649 436 q 639 199 649 264 q 614 86 630 134 q 539 12 597 36 q 380 -11 480 -11 q 233 2 293 -11 q 140 41 173 15 q 90 127 106 69 q 75 277 75 186 l 75 341 l 75 341 m 175 343 l 175 289 q 175 279 175 283 q 175 272 175 275 q 175 264 175 268 q 175 255 175 259 q 175 239 175 247 q 176 225 175 232 q 179 185 176 204 q 186 148 182 166 q 196 116 190 130 q 212 93 203 102 q 229 81 219 86 q 250 73 239 76 q 273 68 262 70 q 298 66 285 66 q 301 66 299 66 q 304 66 302 66 q 305 68 304 68 q 308 68 306 68 q 313 68 311 68 q 319 68 316 68 l 363 68 q 367 68 365 68 q 370 68 369 68 q 374 68 372 68 q 377 68 376 68 q 443 73 413 68 q 493 90 472 79 q 529 130 516 101 q 543 205 543 159 q 543 214 543 209 q 546 225 543 219 q 546 234 546 229 q 546 243 546 239 q 546 251 546 247 q 547 261 546 255 q 547 270 547 265 q 547 280 547 275 q 547 289 547 284 q 549 298 547 293 q 549 307 549 302 q 549 316 549 312 q 549 335 549 326 q 549 354 549 344 q 543 456 549 414 q 526 525 537 498 q 479 563 515 550 q 384 576 444 576 l 363 578 q 260 568 299 578 q 205 538 220 558 q 182 475 190 519 q 175 361 175 431 l 175 343 l 175 343 m 365 908 l 578 776 l 549 723 l 365 808 l 173 723 l 147 776 l 365 908 l 365 908 "},"đ":{"x_min":0,"x_max":0,"ha":386},"Ŀ":{"x_min":0,"x_max":0,"ha":386},"╚":{"x_min":0,"x_max":0,"ha":386},"}":{"x_min":187,"x_max":505,"ha":694,"o":"m 394 343 q 355 370 370 354 q 332 408 339 387 q 322 452 325 429 q 319 501 319 474 l 319 719 q 312 781 319 755 q 289 822 305 808 q 249 843 275 836 q 187 850 223 850 l 187 943 q 291 935 246 943 q 365 912 335 927 q 409 852 394 896 q 425 734 425 808 l 425 515 q 428 467 425 488 q 438 429 431 445 q 462 398 445 411 q 505 379 478 386 l 505 299 q 464 277 480 290 q 440 248 448 265 q 428 212 431 231 q 425 169 425 192 l 425 -70 q 410 -166 425 -127 q 367 -222 395 -204 q 299 -251 339 -242 q 206 -260 259 -260 q 203 -260 205 -260 q 200 -260 202 -260 q 198 -260 199 -260 q 196 -260 198 -260 q 194 -260 195 -260 q 193 -260 193 -260 q 191 -259 192 -259 q 191 -259 191 -259 q 189 -259 189 -259 q 187 -259 188 -259 l 187 -164 q 248 -156 223 -164 q 288 -136 273 -149 q 311 -97 303 -122 q 319 -34 319 -72 l 319 187 q 322 233 319 211 q 331 274 325 256 q 353 310 338 294 q 394 340 369 326 l 394 343 l 394 343 "},"â":{"x_min":60,"x_max":620,"ha":705,"o":"m 182 461 l 82 461 q 100 565 82 526 q 155 619 118 605 q 237 640 191 633 q 339 647 283 647 q 458 637 405 647 q 546 609 510 628 q 601 543 582 591 q 620 419 620 495 l 620 0 l 531 0 l 531 66 q 488 22 513 38 q 435 0 462 5 q 377 -8 407 -5 q 315 -11 347 -11 q 208 -3 255 -11 q 127 22 161 4 q 76 82 93 40 q 60 191 60 125 q 78 297 60 257 q 130 354 96 337 q 212 379 166 371 q 312 388 257 388 q 320 388 316 388 q 328 388 323 388 q 336 386 332 386 q 344 386 340 386 q 353 386 348 386 q 361 386 357 386 q 369 385 365 385 q 378 385 373 385 q 390 384 385 385 q 403 382 396 383 q 414 380 408 380 q 426 378 421 379 q 451 373 439 376 q 474 365 462 369 q 488 358 481 362 q 500 347 494 354 q 510 335 506 342 q 520 321 515 328 l 520 401 q 511 496 520 458 q 486 547 503 533 q 431 569 469 562 q 333 576 393 576 q 327 576 330 576 q 321 576 323 576 q 314 574 318 574 q 307 574 311 574 q 298 574 303 574 q 291 574 294 574 q 284 574 287 574 q 277 574 280 574 q 257 571 268 572 q 239 567 247 569 q 222 560 229 564 q 208 551 215 555 q 196 539 201 546 q 188 526 191 533 q 184 511 186 519 q 182 495 182 504 q 181 493 182 494 q 181 491 181 491 q 181 488 181 490 q 181 486 181 487 q 181 482 181 484 q 181 477 181 480 q 181 474 181 476 q 181 473 181 473 q 181 470 181 472 q 181 467 181 469 q 181 465 181 466 q 181 463 181 463 q 181 461 181 462 q 182 458 182 459 l 182 461 l 182 461 m 160 205 q 168 132 160 160 q 194 90 176 103 q 240 70 211 76 q 309 64 269 64 q 323 64 316 64 q 339 64 330 64 q 353 64 346 64 q 369 65 361 64 q 425 71 398 65 q 476 90 451 78 q 513 125 500 101 q 525 186 525 149 q 512 257 525 230 q 472 293 499 283 q 414 308 446 303 q 346 313 382 313 l 322 315 q 316 313 319 314 q 309 313 312 313 q 302 313 305 313 q 296 313 298 313 q 288 313 291 313 q 282 313 284 313 q 274 311 277 311 q 268 311 271 311 q 243 306 255 309 q 220 301 232 304 q 200 293 209 298 q 183 281 190 288 q 173 272 178 277 q 166 259 169 266 q 163 244 165 252 q 161 230 161 237 q 160 222 160 226 q 160 216 160 219 q 160 208 160 212 q 160 202 160 205 l 160 205 l 160 205 m 354 908 l 567 776 l 538 723 l 354 808 l 162 723 l 136 776 l 354 908 l 354 908 "},"ø":{"x_min":24,"x_max":646,"ha":688,"o":"m 646 663 l 646 577 l 599 533 q 606 513 603 522 q 610 496 609 504 q 614 477 613 486 q 617 458 616 468 q 619 439 619 448 q 619 422 619 430 q 622 403 622 412 q 622 385 622 394 l 622 329 q 622 312 622 319 q 622 298 622 305 q 622 291 622 294 q 622 284 622 287 q 620 277 620 280 q 620 269 620 273 q 620 248 620 259 q 617 228 620 237 q 615 206 615 216 q 613 184 615 196 q 605 143 610 164 q 594 102 601 122 q 561 46 581 68 q 513 14 541 25 q 454 -1 484 3 q 392 -6 424 -6 q 384 -6 388 -6 q 377 -8 380 -6 q 369 -8 373 -8 q 362 -8 366 -8 q 347 -8 355 -8 q 332 -8 339 -8 q 321 -8 327 -8 q 312 -8 316 -8 q 300 -6 306 -6 q 289 -6 295 -6 q 267 -6 278 -6 q 244 -4 255 -6 q 203 0 223 -4 q 165 11 184 5 q 130 28 146 18 q 101 52 113 38 l 24 -21 l 24 63 l 74 111 q 69 123 71 116 q 64 134 67 129 q 61 148 63 141 q 57 162 59 155 q 55 185 56 173 q 52 208 53 197 q 51 231 51 219 q 51 255 51 243 q 50 278 50 266 q 50 301 50 289 q 50 324 50 312 q 50 347 50 336 q 62 492 50 432 q 99 588 74 553 q 181 641 124 624 q 325 659 238 659 q 339 659 332 659 q 352 659 345 659 q 358 659 355 659 q 366 659 362 659 q 372 656 368 656 q 378 656 375 656 q 432 653 406 656 q 482 643 457 650 q 530 624 507 638 q 574 592 553 611 l 646 663 l 646 663 m 169 119 q 185 96 176 105 q 208 83 194 87 q 235 75 220 77 q 263 71 249 72 q 269 70 266 71 q 277 70 273 70 q 283 68 280 68 q 289 68 287 68 q 296 68 292 68 q 303 68 299 68 q 310 68 306 68 q 316 68 313 68 q 411 75 373 68 q 471 97 450 83 q 503 148 491 112 q 516 241 516 183 q 521 266 521 254 q 521 291 521 279 q 521 305 521 298 q 523 316 521 311 q 523 330 523 323 q 523 341 523 336 q 523 355 523 348 q 523 369 523 362 q 521 383 521 376 q 521 397 521 390 q 519 426 519 412 q 516 453 519 439 l 169 119 l 169 119 m 504 528 q 497 535 502 530 q 489 546 493 540 q 480 554 485 550 q 468 561 475 558 q 445 569 457 565 q 423 574 434 572 q 411 574 417 574 q 399 577 405 575 q 386 578 392 577 q 374 579 381 579 q 368 579 371 579 q 362 579 364 579 q 356 579 359 579 q 350 579 353 579 l 313 579 q 234 572 265 579 q 187 553 202 565 q 162 506 172 540 q 152 416 152 471 q 151 402 152 410 q 150 387 150 394 q 148 371 148 379 q 148 357 148 364 q 147 342 148 350 q 147 328 147 335 q 147 312 147 319 q 147 297 147 304 q 147 283 147 290 q 147 269 147 276 q 147 255 147 262 q 150 241 148 248 q 150 228 150 234 q 151 214 150 221 q 153 200 152 207 q 155 186 153 193 l 504 528 l 504 528 "},"‰":{"x_min":37,"x_max":1569,"ha":1582,"o":"m 674 237 q 680 330 674 289 q 700 402 686 372 q 750 448 713 433 q 847 464 788 464 q 947 457 904 464 q 1020 437 990 450 q 1062 386 1047 425 q 1077 283 1077 348 q 1077 268 1077 276 q 1077 254 1077 261 q 1077 240 1077 247 q 1078 226 1077 233 q 1078 211 1078 219 q 1078 197 1078 204 q 1078 183 1078 190 q 1078 169 1078 176 q 1078 167 1078 168 q 1079 166 1078 166 q 1079 164 1079 165 q 1079 162 1079 164 q 1079 159 1079 161 q 1079 157 1079 158 q 1075 127 1077 141 q 1071 97 1074 112 q 1064 71 1070 83 q 1052 47 1058 58 q 1029 21 1042 32 q 1000 6 1016 11 q 984 2 992 4 q 968 0 975 0 q 952 -1 960 0 q 935 -3 943 -3 q 929 -3 932 -3 q 923 -4 925 -3 q 916 -4 920 -4 q 910 -4 913 -4 q 898 -4 904 -4 q 886 -4 892 -4 q 790 2 831 -4 q 724 25 749 9 q 686 80 699 40 q 674 187 674 120 l 674 237 l 674 237 m 737 234 l 737 148 q 745 88 737 110 q 770 60 754 67 q 807 50 785 54 q 856 47 830 47 q 859 47 857 47 q 861 47 860 47 q 863 47 861 47 q 866 47 864 47 q 871 47 868 47 q 877 47 874 47 q 936 50 910 47 q 979 60 961 53 q 1006 90 997 67 q 1016 152 1016 113 l 1016 308 q 1009 366 1016 344 q 988 397 1002 389 q 954 409 974 404 q 907 414 934 414 l 839 414 q 836 412 838 412 q 831 412 834 412 q 828 412 830 412 q 827 413 827 412 q 824 413 825 413 q 821 413 823 413 q 802 409 811 409 q 785 407 793 409 q 768 401 775 405 q 757 391 761 397 q 747 375 752 384 q 739 352 742 365 q 737 341 738 347 q 736 329 737 334 q 735 316 736 322 q 734 304 734 311 q 734 300 734 302 q 734 295 734 298 q 734 293 734 294 q 734 293 734 293 q 734 291 734 291 q 734 289 734 290 q 734 280 734 284 q 734 272 734 276 q 734 264 734 268 q 736 258 734 261 q 736 250 736 254 q 736 244 736 247 q 736 237 736 240 q 736 232 736 234 l 736 234 l 737 234 m 1166 237 q 1166 241 1166 239 q 1166 248 1166 244 q 1166 255 1166 251 q 1166 264 1166 259 q 1165 265 1165 264 q 1165 268 1165 266 q 1165 270 1165 269 q 1165 273 1165 272 q 1165 278 1165 276 q 1165 283 1165 280 q 1165 286 1165 284 q 1165 289 1165 287 q 1165 290 1165 289 q 1165 293 1165 291 q 1175 375 1165 341 q 1208 426 1185 408 q 1262 454 1228 445 q 1338 464 1295 464 q 1436 457 1393 464 q 1508 438 1478 451 q 1553 388 1538 426 q 1569 289 1569 351 q 1569 285 1569 287 q 1569 282 1569 283 q 1569 277 1569 279 q 1569 273 1569 276 q 1569 266 1569 269 q 1569 259 1569 262 q 1567 252 1567 255 q 1567 245 1567 248 q 1567 238 1567 241 q 1567 232 1567 234 q 1567 228 1567 230 q 1567 225 1567 226 q 1567 220 1567 222 q 1567 216 1567 219 q 1567 213 1567 215 q 1567 209 1567 211 q 1568 205 1567 207 q 1569 201 1569 204 q 1569 198 1569 200 q 1569 194 1569 196 q 1569 190 1569 191 q 1569 186 1569 189 q 1569 178 1569 182 q 1569 169 1569 173 q 1569 167 1569 168 q 1569 166 1569 166 q 1569 164 1569 165 q 1569 162 1569 164 q 1569 159 1569 161 q 1569 157 1569 158 q 1566 127 1567 141 q 1562 97 1564 112 q 1555 71 1560 83 q 1542 47 1549 58 q 1519 21 1532 32 q 1490 6 1506 11 q 1474 2 1482 4 q 1458 0 1465 0 q 1442 -1 1450 0 q 1425 -3 1433 -3 q 1419 -3 1422 -3 q 1413 -4 1415 -3 q 1406 -4 1410 -4 q 1400 -4 1403 -4 q 1388 -4 1395 -4 q 1377 -4 1382 -4 l 1347 -4 q 1262 3 1297 -4 q 1206 27 1227 11 q 1175 84 1185 44 q 1166 187 1166 125 l 1166 237 l 1166 237 m 1226 234 l 1226 148 q 1230 110 1226 126 q 1242 78 1235 93 q 1264 56 1249 64 q 1300 49 1278 49 l 1367 49 q 1377 49 1372 49 q 1385 49 1381 49 q 1436 52 1414 49 q 1472 61 1458 55 q 1497 91 1489 68 q 1506 153 1506 114 l 1506 315 q 1499 370 1506 349 q 1478 398 1492 391 q 1444 409 1464 405 q 1397 414 1424 414 l 1329 414 q 1326 413 1328 413 q 1321 413 1324 413 q 1318 413 1320 413 q 1317 413 1317 413 q 1314 413 1316 413 q 1311 413 1313 413 q 1293 410 1302 410 q 1275 407 1284 410 q 1259 401 1266 405 q 1248 391 1252 397 q 1237 375 1242 384 q 1230 352 1232 365 q 1228 341 1228 347 q 1226 329 1227 334 q 1225 316 1226 322 q 1225 304 1225 311 q 1225 300 1225 302 q 1225 295 1225 298 q 1225 293 1225 294 q 1225 293 1225 293 q 1225 291 1225 291 q 1225 289 1225 290 q 1225 280 1225 284 q 1225 272 1225 276 q 1225 264 1225 268 q 1226 258 1225 261 q 1226 250 1226 254 q 1226 244 1226 247 q 1226 237 1226 240 q 1226 232 1226 234 l 1226 234 l 1226 234 m 902 926 l 274 0 l 210 0 l 835 926 l 902 926 l 902 926 m 37 700 q 43 793 37 752 q 62 866 49 835 q 112 912 74 897 q 210 928 149 928 l 281 928 q 357 917 326 928 q 405 887 388 907 q 430 834 421 867 q 440 753 440 800 q 440 745 440 749 q 440 738 440 740 q 440 734 440 736 q 440 731 440 732 q 440 726 440 728 q 440 722 440 725 q 438 715 438 718 q 438 708 438 711 q 438 701 438 704 q 438 694 438 697 q 438 691 438 693 q 438 687 438 689 q 438 683 438 685 q 438 679 438 682 q 438 676 438 678 q 438 672 438 674 q 439 668 438 669 q 440 664 440 667 q 440 660 440 662 q 440 657 440 658 q 440 653 440 654 q 440 649 440 651 q 440 640 440 644 q 440 632 440 636 q 430 548 440 582 q 401 494 420 514 q 346 466 383 476 q 256 457 309 457 q 154 465 196 457 q 87 490 112 473 q 49 546 62 507 q 37 650 37 586 l 37 700 l 37 700 m 97 697 l 97 611 q 105 551 97 572 q 131 523 114 530 q 171 514 148 518 q 224 510 194 510 q 228 510 226 510 q 231 510 230 510 q 236 510 234 510 q 240 510 238 510 q 299 513 273 510 q 342 523 324 516 q 369 553 360 530 q 379 615 379 576 l 379 771 q 372 829 379 807 q 351 860 365 851 q 317 872 337 867 q 269 877 297 877 l 201 877 q 199 876 199 877 q 198 875 198 875 q 196 875 197 875 q 194 875 195 875 q 192 875 192 875 q 191 875 191 875 q 189 875 190 875 q 187 875 188 875 q 167 872 177 872 q 149 870 158 872 q 133 864 140 868 q 120 854 126 860 q 109 838 114 847 q 102 818 104 829 q 97 795 99 807 q 95 772 95 783 q 95 766 95 769 q 95 760 95 763 q 95 754 95 757 q 95 749 95 751 q 95 740 95 744 q 95 733 95 736 q 95 726 95 729 q 97 719 95 722 q 97 712 97 715 q 97 706 97 708 q 97 700 97 703 q 97 694 97 697 l 97 697 l 97 697 "},"Ä":{"x_min":6.5,"x_max":838.890625,"ha":846,"o":"m 656 196 l 188 196 l 117 0 l 6 0 l 343 926 l 492 926 l 838 0 l 729 0 l 656 196 l 656 196 m 626 281 l 420 850 l 216 281 l 626 281 l 626 281 m 352 1098 l 352 1006 l 244 1006 l 244 1098 l 352 1098 l 352 1098 m 600 1098 l 600 1006 l 490 1006 l 490 1098 l 600 1098 l 600 1098 "},"ř":{"x_min":0,"x_max":0,"ha":386},"♠":{"x_min":0,"x_max":0,"ha":386},"—":{"x_min":28,"x_max":941,"ha":969,"o":"m 28 383 l 941 383 l 941 293 l 28 293 l 28 383 l 28 383 "},"N":{"x_min":87,"x_max":878,"ha":966,"o":"m 878 926 l 878 0 l 708 0 l 188 837 l 188 0 l 87 0 l 87 926 l 256 926 l 777 80 l 777 926 l 878 926 l 878 926 "},"2":{"x_min":75,"x_max":744,"ha":851,"o":"m 741 86 l 741 0 l 75 0 l 75 172 q 95 306 75 254 q 158 378 116 358 q 255 410 199 397 q 378 431 310 424 q 381 431 380 431 q 384 431 383 431 q 385 431 384 431 q 388 431 387 431 q 391 431 390 431 q 394 432 392 431 q 397 432 395 432 q 399 432 398 432 q 414 432 406 432 q 427 435 422 433 q 433 435 430 435 q 441 436 437 435 q 447 437 444 436 q 453 438 451 438 q 540 452 503 442 q 596 478 576 462 q 628 533 617 493 q 640 637 640 573 q 628 749 640 706 q 595 808 617 791 q 528 831 573 823 q 417 840 484 840 q 399 840 408 840 q 380 840 390 840 q 371 840 376 840 q 362 840 366 840 q 352 838 356 838 q 344 838 348 838 q 324 835 334 835 q 305 835 315 835 q 286 833 295 833 q 269 830 277 833 q 215 807 235 823 q 188 766 195 791 q 178 714 181 741 q 175 659 175 687 q 175 657 175 657 q 175 656 175 656 q 175 654 175 655 q 175 652 175 653 q 175 650 175 651 q 175 649 175 649 q 175 647 175 648 q 175 645 175 646 l 175 608 l 75 608 q 81 721 75 669 q 101 817 87 774 q 158 885 115 859 q 274 920 202 910 q 310 926 292 926 q 345 926 327 926 q 381 926 363 926 q 417 926 399 926 q 565 913 503 926 q 666 877 627 901 q 724 791 705 851 q 744 637 744 731 q 744 628 744 633 q 744 621 744 624 q 744 613 744 617 q 744 605 744 609 q 744 596 744 601 q 744 588 744 592 q 741 580 741 584 q 741 572 741 576 q 737 527 741 549 q 726 484 732 505 q 707 444 720 462 q 677 410 695 425 q 633 380 656 391 q 583 362 609 369 q 529 352 556 357 q 474 346 502 348 q 468 345 471 346 q 462 344 465 344 q 454 342 458 342 q 448 342 451 342 q 436 342 442 342 q 423 342 430 342 q 330 333 373 342 q 249 312 287 325 q 194 261 212 300 q 176 160 176 223 q 176 149 176 154 q 176 140 176 144 q 176 130 176 135 q 177 122 176 126 q 177 112 177 116 q 177 103 177 107 q 177 97 177 100 q 179 93 177 94 q 179 88 179 90 q 179 85 179 86 l 741 85 l 741 86 "},"∟":{"x_min":0,"x_max":0,"ha":386},"ü":{"x_min":83,"x_max":621,"ha":704,"o":"m 621 649 l 621 0 l 530 0 l 530 86 q 485 32 509 52 q 434 4 462 12 q 375 -5 407 -1 q 307 -10 344 -10 q 207 3 249 -10 q 137 43 164 16 q 96 113 110 70 q 83 213 83 155 l 83 648 l 182 648 l 182 216 q 189 142 182 172 q 210 98 197 113 q 255 75 226 83 q 328 68 284 68 q 424 78 385 68 q 483 111 463 88 q 512 169 502 131 q 522 263 522 208 l 522 649 l 621 649 l 621 649 m 281 805 l 281 713 l 173 713 l 173 805 l 281 805 l 281 805 m 529 805 l 529 713 l 419 713 l 419 805 l 529 805 l 529 805 "},"":{"x_min":0,"x_max":0,"ha":386},"˜":{"x_min":131.9375,"x_max":562.5,"ha":694,"o":"m 350 908 l 562 776 l 533 723 l 350 808 l 158 723 l 131 776 l 350 908 l 350 908 "},"Ó":{"x_min":51,"x_max":774,"ha":827,"o":"m 51 446 l 51 501 q 60 672 51 594 q 88 810 70 749 q 173 903 107 872 q 352 935 239 935 l 398 935 q 563 922 492 935 q 681 886 634 909 q 751 795 729 862 q 774 620 774 729 q 774 578 774 599 q 774 538 774 558 q 774 497 774 517 q 774 455 774 476 q 774 372 774 413 q 774 291 774 331 q 755 146 774 206 q 704 53 737 87 q 611 4 670 20 q 463 -11 551 -11 q 457 -11 460 -11 q 452 -11 455 -11 q 449 -11 450 -11 q 448 -11 448 -11 q 445 -11 446 -11 q 442 -11 443 -11 q 437 -11 439 -11 q 431 -11 434 -11 q 428 -11 430 -11 q 427 -11 427 -11 q 424 -11 425 -11 q 421 -11 423 -11 q 410 -10 416 -10 q 400 -10 405 -10 q 390 -10 395 -10 q 381 -10 385 -10 q 242 1 302 -10 q 142 37 182 12 q 78 117 102 60 q 54 262 54 173 q 54 308 54 285 q 54 353 54 331 q 54 376 54 364 q 54 399 54 387 q 54 421 54 410 q 54 444 54 433 l 54 446 l 51 446 m 158 451 l 158 302 q 168 187 158 232 q 198 120 178 142 q 263 87 217 98 q 379 76 308 76 q 513 83 457 76 q 602 107 568 91 q 652 175 634 124 q 670 310 670 226 q 670 348 670 330 q 670 385 670 367 q 670 405 670 395 q 673 424 670 414 q 673 444 673 434 q 673 463 673 453 q 673 483 673 473 q 673 502 673 492 q 673 520 673 510 q 673 539 673 530 q 673 559 673 549 q 673 578 673 569 q 673 596 673 587 q 673 616 673 606 q 657 752 673 702 q 611 816 642 802 q 529 839 581 831 q 403 847 477 847 l 369 847 q 266 837 307 847 q 203 808 224 827 q 170 742 182 790 q 158 619 158 694 l 158 451 l 158 451 m 482 1176 l 531 1110 l 332 987 l 299 1037 l 482 1176 l 482 1176 "},"ˇ":{"x_min":131.9375,"x_max":562.5,"ha":694,"o":"m 344 723 l 131 857 l 161 908 l 344 825 l 536 908 l 562 857 l 344 723 l 344 723 "},"Ÿ":{"x_min":-7.4375,"x_max":787.4375,"ha":781,"o":"m 787 927 l 437 387 l 437 0 l 333 0 l 333 387 l -7 927 l 113 927 l 388 493 l 663 927 l 787 927 l 787 927 m 320 1098 l 320 1006 l 212 1006 l 212 1098 l 320 1098 l 320 1098 m 568 1098 l 568 1006 l 458 1006 l 458 1098 l 568 1098 l 568 1098 "},"≡":{"x_min":0,"x_max":0,"ha":386},"ß":{"x_min":83,"x_max":650,"ha":728,"o":"m 83 0 l 83 714 q 97 824 83 779 q 142 889 112 868 q 219 920 173 910 q 328 931 266 931 q 335 931 331 931 q 341 931 338 931 q 347 931 344 931 q 353 931 351 931 q 441 922 399 931 q 520 898 483 914 q 577 846 558 883 q 597 750 597 808 q 590 692 597 716 q 567 651 583 668 q 531 620 553 635 q 477 594 508 605 q 575 556 538 581 q 624 495 612 532 q 643 412 637 458 q 650 309 650 366 q 641 190 650 245 q 616 87 633 136 q 553 16 599 40 q 430 -7 506 -7 q 361 1 394 -7 q 300 27 328 9 q 259 76 273 47 q 246 145 246 105 q 246 151 246 148 q 246 158 246 155 q 246 164 246 160 q 247 170 246 167 q 247 176 247 173 q 247 183 247 180 q 247 189 247 185 q 247 197 247 192 l 341 197 q 341 192 341 194 q 341 187 341 190 q 341 183 341 185 q 341 178 341 181 q 345 138 341 158 q 357 102 349 119 q 383 77 366 85 q 426 69 400 69 q 481 78 459 69 q 516 105 504 87 q 536 148 529 124 q 543 201 543 171 q 543 206 543 203 q 543 213 543 209 q 543 219 543 216 q 543 224 543 222 q 543 231 543 227 q 545 237 543 234 q 545 243 545 240 q 545 249 545 247 q 545 255 545 252 q 547 262 545 258 q 547 267 547 265 q 547 273 547 270 q 547 286 547 280 q 547 298 547 292 q 540 392 547 348 q 520 476 533 437 q 470 534 508 515 q 370 554 432 554 q 359 554 364 554 q 348 554 353 554 q 336 554 342 554 q 327 554 331 554 q 316 553 321 553 q 305 553 310 553 q 294 553 299 553 q 283 553 288 553 l 283 637 q 289 635 285 635 q 296 635 292 635 q 303 635 299 635 q 312 636 307 635 q 318 636 314 636 q 325 636 321 636 q 332 636 328 636 q 339 636 335 636 q 344 636 342 636 q 347 636 346 636 q 353 636 350 636 q 359 636 356 636 q 411 639 387 636 q 456 648 435 642 q 488 676 477 655 q 500 734 500 697 q 488 805 500 779 q 455 839 477 830 q 403 851 433 847 q 336 856 373 856 q 269 849 297 856 q 222 829 241 842 q 193 789 203 815 q 184 722 184 762 l 184 0 l 83 0 l 83 0 "},"╕":{"x_min":0,"x_max":0,"ha":386},"└":{"x_min":0,"x_max":0,"ha":386},"s":{"x_min":54,"x_max":611,"ha":662,"o":"m 592 480 l 494 480 q 489 522 494 503 q 477 552 485 541 q 450 569 469 563 q 405 576 432 576 q 391 576 398 576 q 378 579 384 576 q 364 579 371 579 q 350 579 357 579 q 323 579 337 579 q 296 579 310 579 q 286 579 291 579 q 276 579 281 579 q 270 579 273 579 q 266 579 267 579 q 260 578 263 578 q 255 578 257 578 q 235 575 245 575 q 214 572 224 575 q 196 566 205 570 q 180 556 187 562 q 170 545 174 551 q 163 533 166 540 q 160 518 162 526 q 158 503 158 510 q 158 498 158 501 q 158 492 158 495 q 158 487 158 489 q 158 481 158 484 q 162 430 158 450 q 176 399 166 410 q 205 382 185 389 q 255 376 224 376 q 272 373 263 373 q 291 373 281 373 q 310 373 301 373 q 328 373 319 373 q 430 366 381 373 q 523 347 480 360 q 589 295 568 335 q 611 188 611 254 q 591 75 611 117 q 534 17 572 32 q 447 -3 495 3 q 337 -10 398 -10 q 331 -10 334 -10 q 326 -10 329 -10 q 320 -10 323 -10 q 315 -10 318 -10 q 220 -3 265 -10 q 134 16 174 2 q 74 68 94 30 q 54 166 54 106 q 54 171 54 169 q 54 174 54 173 q 54 177 54 176 q 54 180 54 178 q 54 181 54 180 q 55 184 55 183 q 55 189 55 187 q 55 192 55 191 q 55 195 55 194 q 57 198 55 197 q 57 199 57 198 q 57 204 57 201 l 154 204 q 162 128 154 158 q 187 87 170 99 q 233 68 203 74 q 306 62 263 62 l 330 65 q 344 62 337 62 q 360 62 352 62 q 377 62 369 62 q 395 65 385 63 q 418 67 406 65 q 442 71 430 69 q 463 78 453 74 q 481 88 473 83 q 493 99 488 92 q 501 115 498 106 q 506 131 504 123 q 510 149 508 140 q 510 154 510 152 q 511 158 510 156 q 511 162 511 160 q 511 166 511 165 q 511 174 511 170 q 511 183 511 178 q 500 243 511 220 q 470 271 489 265 q 426 281 450 278 q 373 283 402 283 q 371 283 371 283 q 370 284 370 283 q 368 284 369 284 q 367 284 367 284 q 363 284 366 284 q 359 285 360 284 q 354 285 356 285 q 349 285 352 285 q 345 285 348 285 q 341 285 342 285 q 336 285 338 285 q 331 285 334 285 q 323 285 327 285 q 317 285 320 285 q 314 285 316 285 q 310 288 312 285 q 306 288 307 288 q 303 288 305 288 q 210 294 253 288 q 131 314 167 301 q 79 363 97 327 q 61 462 61 400 q 61 475 61 468 q 61 487 61 481 q 61 500 61 494 q 63 514 62 507 q 67 542 65 528 q 76 568 70 555 q 88 591 80 580 q 108 610 97 602 q 133 626 119 619 q 163 638 146 632 q 195 646 178 642 q 230 651 212 651 q 253 654 241 654 q 276 654 264 654 q 287 654 281 654 q 298 657 292 654 q 308 657 303 657 q 319 657 313 657 q 336 657 327 657 q 355 657 345 657 q 364 657 359 657 q 374 657 369 657 q 383 654 378 654 q 394 654 388 654 q 465 645 431 654 q 530 621 499 637 q 577 577 562 608 q 593 500 593 546 q 593 498 593 499 q 593 498 593 498 q 593 496 593 496 q 593 493 593 495 q 593 491 593 492 q 593 488 593 489 q 592 485 592 486 q 592 482 592 484 q 592 480 592 481 q 592 477 592 478 l 592 480 l 592 480 "},"?":{"x_min":76,"x_max":654,"ha":722,"o":"m 373 126 l 373 0 l 263 0 l 263 126 l 373 126 l 373 126 m 372 266 l 271 266 q 275 342 271 309 q 288 395 279 374 q 319 434 298 416 q 375 469 341 452 q 384 472 379 470 q 393 476 388 475 q 402 481 398 479 q 413 484 407 483 q 429 490 421 487 q 444 495 437 493 q 457 501 451 498 q 469 506 463 504 q 513 531 495 518 q 538 562 530 545 q 552 605 547 579 q 557 669 557 631 q 546 769 557 731 q 515 819 536 806 q 454 836 494 830 q 356 843 415 843 q 349 843 352 843 q 341 843 345 843 q 334 841 338 841 q 326 841 330 841 q 318 841 322 841 q 311 841 313 841 q 303 840 306 840 q 295 840 300 840 q 269 836 281 838 q 243 831 256 834 q 221 822 231 827 q 204 811 211 818 q 188 792 195 802 q 179 769 182 781 q 175 744 177 756 q 173 719 173 731 q 173 713 173 716 q 173 706 173 709 q 173 701 173 704 q 173 695 173 698 l 173 636 l 76 636 q 88 779 76 720 q 127 869 100 838 q 209 916 152 901 q 353 932 266 932 q 483 921 427 932 q 577 890 538 911 q 634 817 615 869 q 654 680 654 765 q 641 547 654 600 q 605 475 629 495 q 553 439 580 454 q 497 416 526 425 q 494 414 495 415 q 492 414 494 414 q 490 414 491 414 q 490 414 490 414 q 463 405 476 409 q 438 395 451 401 q 414 382 425 390 q 392 363 403 375 q 383 352 386 358 q 377 338 379 345 q 373 324 375 331 q 372 309 372 316 q 372 304 372 306 q 372 298 372 301 q 372 293 372 295 q 372 287 372 290 l 372 266 l 372 266 "},"Ű":{"x_min":0,"x_max":0,"ha":386},"♣":{"x_min":0,"x_max":0,"ha":386},"c":{"x_min":69,"x_max":629,"ha":673,"o":"m 533 235 l 629 235 q 613 108 629 157 q 566 36 598 59 q 483 3 535 13 q 356 -7 430 -7 q 191 13 253 -7 q 109 74 130 33 q 78 183 88 116 q 69 341 69 250 q 82 483 69 423 q 125 579 96 543 q 211 634 153 615 q 355 653 269 653 q 454 643 408 653 q 540 618 501 634 q 598 561 579 601 q 618 455 618 520 q 618 452 618 454 q 618 449 618 451 q 618 447 618 448 q 618 445 618 445 q 616 442 616 444 q 616 440 616 441 q 616 437 616 438 q 616 436 616 436 l 522 436 q 512 506 522 479 q 485 548 503 534 q 437 568 467 561 q 366 575 407 575 q 261 564 302 575 q 203 533 220 554 q 178 467 186 512 q 170 354 170 423 l 170 291 q 176 192 170 234 q 195 123 182 151 q 245 82 207 96 q 346 69 282 69 q 437 75 400 69 q 494 94 474 81 q 523 141 513 106 q 533 232 533 176 l 533 235 l 533 235 "},"¶":{"x_min":8,"x_max":773,"ha":851,"o":"m 773 -260 l 680 -260 l 680 838 l 570 838 l 570 -260 l 477 -260 l 477 363 l 330 363 q 323 361 327 361 q 317 361 320 361 q 309 361 313 361 q 303 361 306 361 q 297 361 300 361 q 291 361 294 361 q 283 361 287 361 q 277 361 280 361 q 267 361 271 361 q 257 361 262 361 q 253 361 256 361 q 249 361 251 361 q 244 361 246 361 q 239 361 242 361 q 192 364 215 361 q 145 374 169 368 q 103 393 123 380 q 66 425 82 405 q 40 463 50 443 q 22 505 29 483 q 13 550 17 527 q 8 595 8 573 q 8 604 8 599 q 8 615 8 609 q 8 624 8 619 q 8 634 8 629 q 20 764 8 709 q 59 853 33 818 q 137 905 85 888 q 267 923 190 923 l 313 923 l 773 923 l 773 -260 l 773 -260 m 477 447 l 477 840 l 307 840 q 305 840 306 841 q 303 840 303 840 q 300 840 302 840 q 298 840 299 840 q 295 840 296 840 q 294 841 294 840 q 291 841 292 841 q 288 841 289 841 q 282 841 285 841 q 277 841 280 841 q 273 841 276 841 q 269 841 271 841 q 257 841 263 841 q 244 841 251 841 q 237 841 241 841 q 231 841 234 841 q 225 840 228 840 q 219 840 221 840 q 199 836 209 838 q 179 831 188 834 q 161 824 169 828 q 145 812 152 819 q 129 791 136 802 q 119 766 123 780 q 112 739 115 752 q 108 710 109 726 q 107 694 107 702 q 107 680 107 687 q 107 666 107 673 q 107 652 107 659 q 115 553 107 592 q 141 493 123 513 q 198 461 158 472 q 302 450 238 450 q 324 450 313 450 q 346 450 335 450 q 367 446 356 446 q 389 446 378 446 q 433 446 411 446 q 477 446 454 446 l 477 447 l 477 447 "},"•":{"x_min":275,"x_max":544,"ha":833,"o":"m 275 397 q 284 446 275 423 q 313 489 294 469 q 356 518 333 508 q 408 528 380 528 q 460 518 435 528 q 503 489 484 508 q 533 445 523 469 q 544 394 544 422 q 533 343 544 366 q 503 299 523 319 q 460 270 484 280 q 408 261 435 261 q 356 270 380 261 q 313 299 333 280 q 284 343 294 319 q 275 394 275 366 l 275 397 l 275 397 "},"(":{"x_min":72,"x_max":318,"ha":385,"o":"m 318 934 l 318 846 q 236 833 266 846 q 198 797 206 820 q 184 741 189 773 q 180 672 180 710 q 180 668 180 671 q 180 664 180 666 q 180 661 180 662 q 182 661 180 661 q 182 659 182 659 q 182 657 182 658 q 182 653 182 655 q 182 650 182 651 q 182 645 182 647 q 182 641 182 644 q 182 638 182 640 q 182 634 182 636 q 182 630 182 632 q 182 626 182 629 l 182 494 l 182 118 q 182 111 182 114 q 182 107 182 109 q 182 104 182 105 q 183 102 182 102 q 183 100 183 101 q 183 97 183 98 q 187 37 183 65 q 200 -12 191 9 q 231 -48 206 -36 q 298 -61 256 -61 l 318 -61 l 318 -147 q 314 -147 316 -147 q 309 -147 312 -147 q 306 -147 308 -147 q 304 -149 305 -147 q 300 -149 302 -149 q 295 -149 298 -149 q 293 -149 294 -149 q 293 -149 293 -149 q 290 -149 291 -149 q 288 -149 290 -149 q 169 -125 215 -149 q 109 -58 124 -102 q 83 39 92 -13 q 74 152 74 91 q 72 177 72 165 q 72 202 72 190 q 72 216 72 209 q 72 229 72 222 q 72 241 72 234 q 72 254 72 248 q 72 279 72 266 q 72 304 72 291 q 72 317 72 311 q 72 330 72 323 q 72 343 72 336 q 72 355 72 350 l 72 589 q 80 725 72 662 q 106 834 88 787 q 176 907 123 883 q 318 932 229 932 l 318 934 l 318 934 "},"◊":{"x_min":0,"x_max":0,"ha":386},"▬":{"x_min":0,"x_max":0,"ha":386},"α":{"x_min":0,"x_max":0,"ha":386},"■":{"x_min":0,"x_max":0,"ha":386},"­":{"x_min":0,"x_max":0,"ha":386},":":{"x_min":83,"x_max":193,"ha":276,"o":"m 193 126 l 193 0 l 83 0 l 83 126 l 193 126 l 193 126 m 193 648 l 193 522 l 83 522 l 83 648 l 193 648 l 193 648 "},"╓":{"x_min":0,"x_max":0,"ha":386},"Û":{"x_min":89,"x_max":822,"ha":910,"o":"m 718 926 l 822 926 l 822 277 q 808 151 822 203 q 767 65 795 98 q 688 14 741 31 q 558 -2 636 -2 q 544 -2 551 -2 q 532 -5 537 -2 q 518 -5 525 -5 q 505 -5 512 -5 q 493 -5 500 -5 q 480 -7 486 -5 q 467 -7 473 -7 q 454 -7 461 -7 q 302 2 369 -7 q 186 31 234 11 q 113 113 137 52 q 89 274 89 173 l 89 926 l 195 926 l 195 277 q 205 176 195 216 q 236 117 215 137 q 297 91 257 100 q 396 83 337 83 l 497 83 q 601 90 558 83 q 669 114 644 98 q 705 171 693 131 q 718 274 718 210 l 718 926 l 718 926 m 458 1167 l 670 1035 l 641 982 l 458 1067 l 267 982 l 240 1035 l 458 1167 l 458 1167 "},"V":{"x_min":-6.9375,"x_max":801.390625,"ha":794,"o":"m 688 926 l 801 926 l 473 0 l 323 0 l -6 926 l 104 926 l 400 83 l 688 926 l 688 926 "},"ś":{"x_min":0,"x_max":0,"ha":386}," ":{"x_min":0,"x_max":0,"ha":386},"◄":{"x_min":0,"x_max":0,"ha":386},"@":{"x_min":58,"x_max":817,"ha":874,"o":"m 570 654 l 637 654 l 637 337 q 637 332 637 334 q 637 330 637 331 q 637 328 637 328 q 637 325 637 327 q 637 320 637 323 q 637 314 637 317 q 637 312 637 313 q 638 309 637 310 q 638 306 638 307 q 638 303 638 305 q 641 279 638 291 q 649 256 643 267 q 664 241 653 246 q 691 236 674 236 q 716 239 706 236 q 732 250 727 242 q 742 268 738 257 q 749 293 746 280 q 752 316 752 305 q 755 338 752 327 q 757 360 757 349 q 759 382 757 371 q 759 394 759 388 q 761 405 759 399 q 761 416 761 410 q 761 427 761 421 q 761 438 761 432 q 762 449 761 444 q 762 460 762 455 q 762 471 762 466 q 752 612 762 555 q 727 698 743 668 q 656 742 710 727 q 511 758 602 758 l 422 758 q 406 756 413 756 q 391 756 398 756 q 383 756 387 756 q 376 756 379 756 q 368 754 372 754 q 361 754 365 754 q 330 754 345 754 q 300 752 315 754 q 269 749 284 751 q 239 744 254 747 q 194 729 212 738 q 165 706 176 720 q 145 673 153 692 q 132 631 137 655 q 128 601 130 616 q 123 570 125 585 q 119 539 121 555 q 117 508 117 523 q 117 497 117 502 q 117 488 117 492 q 119 478 119 483 q 119 467 119 473 q 119 447 119 457 q 119 426 119 437 q 119 398 119 413 q 119 366 119 382 q 119 330 119 348 q 119 295 119 313 q 121 253 119 274 q 128 213 123 232 q 139 178 133 194 q 152 149 145 162 q 173 121 160 132 q 201 102 185 109 q 232 88 216 93 q 265 80 248 82 q 265 80 265 80 q 268 80 266 80 q 268 79 268 79 q 269 79 269 79 q 271 79 270 79 q 273 79 272 79 q 292 76 283 77 q 312 73 302 75 q 332 71 322 71 q 351 71 341 71 q 360 71 355 71 q 370 71 365 71 q 379 71 375 71 q 390 71 384 71 q 409 71 400 71 q 429 71 419 71 l 493 71 q 504 69 498 69 q 515 69 509 69 q 527 69 520 69 q 538 69 533 69 q 553 69 545 69 q 569 71 561 69 q 583 71 576 71 q 598 73 591 72 q 626 78 613 76 q 649 84 638 80 q 661 88 656 85 q 670 95 666 91 q 678 104 674 99 q 685 114 682 109 l 732 84 q 719 63 727 73 q 703 47 711 54 q 683 34 693 40 q 662 26 673 29 q 633 19 648 22 q 603 15 618 16 q 572 12 588 13 q 541 11 556 11 q 537 11 539 11 q 534 11 535 11 q 530 11 531 11 q 525 11 528 11 q 522 11 524 11 q 519 11 520 11 q 514 11 516 11 q 510 11 513 11 q 296 24 384 11 q 158 65 208 38 q 83 176 108 93 q 58 399 58 259 l 58 422 q 58 447 58 433 q 58 474 58 460 q 58 505 58 490 q 61 535 58 520 q 63 571 61 553 q 68 606 65 588 q 75 641 71 624 q 84 673 78 658 q 106 724 92 702 q 138 760 120 746 q 181 785 158 776 q 234 800 205 795 q 265 805 250 803 q 297 809 280 807 q 328 812 312 812 q 362 814 345 812 q 373 814 368 814 q 386 816 379 814 q 397 816 391 816 q 409 816 404 816 q 422 816 416 816 q 434 816 427 816 q 446 816 440 816 q 458 816 452 816 q 481 816 469 816 q 508 816 494 816 q 521 816 515 816 q 534 816 527 816 q 547 814 540 814 q 561 814 554 814 q 577 812 569 813 q 594 812 585 812 q 609 809 601 810 q 625 807 617 809 q 657 803 642 806 q 686 795 673 799 q 732 774 713 787 q 766 745 752 762 q 789 707 778 729 q 805 659 799 685 q 812 614 809 637 q 816 567 816 591 q 816 522 816 545 q 816 476 816 499 q 816 453 816 464 q 817 431 816 442 q 817 407 817 419 q 813 385 817 396 q 810 341 813 363 q 805 296 807 319 q 792 248 800 270 q 773 212 784 227 q 742 190 762 198 q 695 183 723 183 q 692 183 693 183 q 689 183 691 183 q 687 183 688 183 q 685 183 687 183 q 651 187 667 183 q 620 202 635 192 q 595 225 605 210 q 583 257 585 239 q 559 222 573 237 q 526 199 545 208 q 488 185 508 191 q 447 180 468 180 q 438 179 443 179 q 430 179 434 179 q 422 179 426 179 q 416 179 419 179 q 318 196 355 179 q 266 248 280 213 q 245 326 252 283 q 239 420 239 369 q 246 517 239 474 q 270 591 254 560 q 326 638 287 623 q 426 654 365 654 q 468 651 447 654 q 508 641 488 648 q 543 622 527 635 q 570 590 559 609 l 570 654 l 570 654 m 569 459 q 562 520 569 494 q 543 563 555 546 q 503 589 529 580 q 440 598 477 598 q 431 598 436 598 q 423 598 427 598 q 420 598 422 598 q 415 598 418 598 q 411 597 413 597 q 407 597 409 597 q 383 593 394 595 q 361 587 372 591 q 341 574 350 583 q 327 555 333 566 q 320 537 323 546 q 315 517 318 528 q 312 497 313 508 q 311 476 311 487 q 311 466 311 470 q 311 458 311 462 q 311 449 311 453 q 311 441 311 445 l 311 412 q 311 394 311 402 q 311 377 311 385 q 311 369 311 373 q 312 360 311 364 q 313 350 312 355 q 314 342 314 346 q 317 320 315 331 q 322 298 319 309 q 329 278 325 288 q 340 262 334 268 q 354 249 347 253 q 370 242 361 245 q 388 239 379 241 q 408 237 398 237 q 410 237 409 237 q 412 237 411 237 q 413 237 412 237 q 415 237 413 237 q 420 237 418 237 q 423 237 422 237 q 502 246 472 237 q 544 274 533 256 q 562 323 556 294 q 568 396 568 353 l 568 459 l 569 459 "},"¾":{"x_min":0,"x_max":0,"ha":386},"i":{"x_min":83,"x_max":182,"ha":265,"o":"m 182 649 l 182 0 l 83 0 l 83 649 l 182 649 l 182 649 m 182 926 l 182 819 l 83 819 l 83 926 l 182 926 l 182 926 "},"┴":{"x_min":0,"x_max":0,"ha":386},"≤":{"x_min":0,"x_max":0,"ha":386},"m":{"x_min":83,"x_max":1051,"ha":1134,"o":"m 83 649 l 176 649 l 176 551 q 214 599 191 578 q 266 632 237 620 q 326 649 295 643 q 388 656 356 656 q 394 656 391 656 q 399 656 396 656 q 403 654 401 654 q 409 654 406 654 q 420 654 414 654 q 431 654 426 654 q 483 644 458 651 q 530 625 508 636 q 569 594 553 613 q 595 548 585 576 q 637 599 613 578 q 690 633 660 620 q 750 650 719 644 q 816 657 781 657 q 925 643 880 657 q 997 604 970 630 q 1037 532 1024 577 q 1051 424 1051 487 l 1051 0 l 950 0 l 950 436 q 942 503 950 475 q 919 546 934 532 q 876 568 905 561 q 805 576 847 576 q 797 576 801 576 q 790 576 794 576 q 783 575 787 575 q 774 575 779 575 q 766 574 770 575 q 759 574 762 574 q 751 571 755 572 q 742 571 747 571 q 708 562 724 568 q 676 548 691 557 q 648 528 659 540 q 630 501 637 516 q 623 482 626 491 q 619 462 620 473 q 616 442 617 452 q 615 422 615 432 q 615 414 615 418 q 615 408 615 411 q 615 400 615 404 q 615 394 615 397 l 615 379 l 615 0 l 515 0 l 515 427 q 506 500 515 470 q 485 544 498 530 q 442 567 471 559 q 364 575 412 575 q 273 561 310 575 q 216 522 235 548 q 185 457 195 495 q 176 369 176 419 l 176 0 l 83 0 l 83 649 l 83 649 "},"ż":{"x_min":0,"x_max":0,"ha":386},"ő":{"x_min":0,"x_max":0,"ha":386},"ž":{"x_min":0,"x_max":0,"ha":386},"╞":{"x_min":0,"x_max":0,"ha":386},"á":{"x_min":60,"x_max":620,"ha":705,"o":"m 182 461 l 82 461 q 100 565 82 526 q 155 619 118 605 q 237 640 191 633 q 339 647 283 647 q 458 637 405 647 q 546 609 510 628 q 601 543 582 591 q 620 419 620 495 l 620 0 l 531 0 l 531 66 q 488 22 513 38 q 435 0 462 5 q 377 -8 407 -5 q 315 -11 347 -11 q 208 -3 255 -11 q 127 22 161 4 q 76 82 93 40 q 60 191 60 125 q 78 297 60 257 q 130 354 96 337 q 212 379 166 371 q 312 388 257 388 q 320 388 316 388 q 328 388 323 388 q 336 386 332 386 q 344 386 340 386 q 353 386 348 386 q 361 386 357 386 q 369 385 365 385 q 378 385 373 385 q 390 384 385 385 q 403 382 396 383 q 414 380 408 380 q 426 378 421 379 q 451 373 439 376 q 474 365 462 369 q 488 358 481 362 q 500 347 494 354 q 510 335 506 342 q 520 321 515 328 l 520 401 q 511 496 520 458 q 486 547 503 533 q 431 569 469 562 q 333 576 393 576 q 327 576 330 576 q 321 576 323 576 q 314 574 318 574 q 307 574 311 574 q 298 574 303 574 q 291 574 294 574 q 284 574 287 574 q 277 574 280 574 q 257 571 268 572 q 239 567 247 569 q 222 560 229 564 q 208 551 215 555 q 196 539 201 546 q 188 526 191 533 q 184 511 186 519 q 182 495 182 504 q 181 493 182 494 q 181 491 181 491 q 181 488 181 490 q 181 486 181 487 q 181 482 181 484 q 181 477 181 480 q 181 474 181 476 q 181 473 181 473 q 181 470 181 472 q 181 467 181 469 q 181 465 181 466 q 181 463 181 463 q 181 461 181 462 q 182 458 182 459 l 182 461 l 182 461 m 160 205 q 168 132 160 160 q 194 90 176 103 q 240 70 211 76 q 309 64 269 64 q 323 64 316 64 q 339 64 330 64 q 353 64 346 64 q 369 65 361 64 q 425 71 398 65 q 476 90 451 78 q 513 125 500 101 q 525 186 525 149 q 512 257 525 230 q 472 293 499 283 q 414 308 446 303 q 346 313 382 313 l 322 315 q 316 313 319 314 q 309 313 312 313 q 302 313 305 313 q 296 313 298 313 q 288 313 291 313 q 282 313 284 313 q 274 311 277 311 q 268 311 271 311 q 243 306 255 309 q 220 301 232 304 q 200 293 209 298 q 183 281 190 288 q 173 272 178 277 q 166 259 169 266 q 163 244 165 252 q 161 230 161 237 q 160 222 160 226 q 160 216 160 219 q 160 208 160 212 q 160 202 160 205 l 160 205 l 160 205 m 419 916 l 468 849 l 269 727 l 236 777 l 419 916 l 419 916 "},"×":{"x_min":0,"x_max":0,"ha":386},"İ":{"x_min":0,"x_max":0,"ha":386},"Ě":{"x_min":0,"x_max":0,"ha":386},"K":{"x_min":87,"x_max":849.9375,"ha":837,"o":"m 193 926 l 193 522 l 284 522 l 662 926 l 799 926 l 376 477 l 849 0 l 708 0 l 284 429 l 193 429 l 193 0 l 87 0 l 87 926 l 193 926 l 193 926 "},"7":{"x_min":67,"x_max":742,"ha":852,"o":"m 742 927 l 742 794 l 293 0 l 169 0 l 655 839 l 67 839 l 67 927 l 742 927 l 742 927 "},"¨":{"x_min":169,"x_max":525,"ha":694,"o":"m 277 806 l 277 714 l 169 714 l 169 806 l 277 806 l 277 806 m 525 806 l 525 714 l 415 714 l 415 806 l 525 806 l 525 806 "},"Y":{"x_min":-7.265625,"x_max":787,"ha":780,"o":"m 787 926 l 437 387 l 437 0 l 333 0 l 333 387 l -7 926 l 113 926 l 388 492 l 663 926 l 787 926 l 787 926 "},"E":{"x_min":51,"x_max":645.046875,"ha":691,"o":"m 152 833 l 152 520 l 624 520 l 624 432 l 152 432 l 152 89 l 645 89 l 645 0 l 51 0 l 51 926 l 645 926 l 645 833 l 152 833 l 152 833 "},"Ô":{"x_min":51,"x_max":774,"ha":827,"o":"m 51 446 l 51 501 q 60 672 51 594 q 88 810 70 749 q 173 903 107 872 q 352 935 239 935 l 398 935 q 563 922 492 935 q 681 886 634 909 q 751 795 729 862 q 774 620 774 729 q 774 578 774 599 q 774 538 774 558 q 774 497 774 517 q 774 455 774 476 q 774 372 774 413 q 774 291 774 331 q 755 146 774 206 q 704 53 737 87 q 611 4 670 20 q 463 -11 551 -11 q 457 -11 460 -11 q 452 -11 455 -11 q 449 -11 450 -11 q 448 -11 448 -11 q 445 -11 446 -11 q 442 -11 443 -11 q 437 -11 439 -11 q 431 -11 434 -11 q 428 -11 430 -11 q 427 -11 427 -11 q 424 -11 425 -11 q 421 -11 423 -11 q 410 -10 416 -10 q 400 -10 405 -10 q 390 -10 395 -10 q 381 -10 385 -10 q 242 1 302 -10 q 142 37 182 12 q 78 117 102 60 q 54 262 54 173 q 54 308 54 285 q 54 353 54 331 q 54 376 54 364 q 54 399 54 387 q 54 421 54 410 q 54 444 54 433 l 54 446 l 51 446 m 158 451 l 158 302 q 168 187 158 232 q 198 120 178 142 q 263 87 217 98 q 379 76 308 76 q 513 83 457 76 q 602 107 568 91 q 652 175 634 124 q 670 310 670 226 q 670 348 670 330 q 670 385 670 367 q 670 405 670 395 q 673 424 670 414 q 673 444 673 434 q 673 463 673 453 q 673 483 673 473 q 673 502 673 492 q 673 520 673 510 q 673 539 673 530 q 673 559 673 549 q 673 578 673 569 q 673 596 673 587 q 673 616 673 606 q 657 752 673 702 q 611 816 642 802 q 529 839 581 831 q 403 847 477 847 l 369 847 q 266 837 307 847 q 203 808 224 827 q 170 742 182 790 q 158 619 158 694 l 158 451 l 158 451 m 417 1168 l 629 1036 l 600 983 l 417 1068 l 226 983 l 199 1036 l 417 1168 l 417 1168 "},"‹":{"x_min":69.4375,"x_max":323.609375,"ha":392,"o":"m 236 709 l 306 666 l 161 356 l 323 44 l 255 0 l 69 356 l 236 709 l 236 709 "},"Ï":{"x_min":-37,"x_max":319,"ha":280,"o":"m 194 926 l 194 0 l 88 0 l 88 926 l 194 926 l 194 926 m 71 1097 l 71 1005 l -37 1005 l -37 1097 l 71 1097 l 71 1097 m 319 1097 l 319 1005 l 209 1005 l 209 1097 l 319 1097 l 319 1097 "},"╘":{"x_min":0,"x_max":0,"ha":386},"↔":{"x_min":0,"x_max":0,"ha":386},"±":{"x_min":32,"x_max":663,"ha":695,"o":"m 32 136 l 663 136 l 663 78 l 32 78 l 32 136 l 32 136 m 32 520 l 317 520 l 317 786 l 377 786 l 377 520 l 663 520 l 663 462 l 377 462 l 377 197 l 317 197 l 317 462 l 32 462 l 32 520 l 32 520 "},"ì":{"x_min":16.34375,"x_max":248.671875,"ha":265,"o":"m 182 649 l 182 0 l 83 0 l 83 649 l 182 649 l 182 649 m 64 917 l 248 778 l 216 728 l 16 850 l 64 917 l 64 917 "},"|":{"x_min":293,"x_max":401,"ha":694,"o":"m 293 925 l 401 925 l 401 -232 l 293 -232 l 293 925 l 293 925 "},"§":{"x_min":104,"x_max":747,"ha":851,"o":"m 726 691 l 634 691 q 625 774 634 742 q 598 821 616 807 q 544 841 580 834 q 456 849 509 849 l 390 849 q 382 847 386 847 q 376 847 379 847 q 368 847 372 847 q 362 847 365 847 q 340 844 351 844 q 319 843 330 844 q 299 839 309 842 q 280 833 288 836 q 258 820 267 828 q 245 801 249 812 q 237 780 239 792 q 234 757 234 768 q 233 749 233 753 q 233 740 233 745 q 233 732 233 736 q 233 724 233 728 q 236 668 233 690 q 246 635 239 646 q 268 614 253 623 q 305 598 283 605 q 310 596 308 597 q 316 596 313 596 q 322 593 319 594 q 329 591 326 593 q 342 588 335 590 q 358 583 349 586 l 564 523 q 570 519 567 521 q 577 517 573 518 q 582 515 580 517 q 588 514 585 514 q 593 511 591 512 q 599 511 596 511 q 604 509 602 509 q 610 507 607 508 q 672 482 647 497 q 713 451 698 468 q 737 401 729 433 q 746 320 746 369 q 741 268 746 293 q 727 222 736 243 q 700 184 717 201 q 655 157 683 168 q 706 124 687 143 q 733 82 726 105 q 743 31 740 58 q 747 -26 747 4 q 730 -144 747 -97 q 681 -216 713 -191 q 599 -252 649 -240 q 480 -265 549 -265 l 423 -265 q 287 -255 346 -265 q 189 -226 228 -245 q 128 -153 148 -208 q 108 -8 108 -98 l 202 -8 l 202 -46 q 202 -49 202 -48 q 202 -52 202 -51 q 202 -53 202 -52 q 202 -56 202 -55 q 202 -62 202 -59 q 202 -67 202 -64 q 204 -89 202 -78 q 209 -109 206 -99 q 216 -127 211 -119 q 230 -142 221 -135 q 248 -154 237 -149 q 273 -162 259 -159 q 303 -167 288 -165 q 333 -172 317 -170 q 343 -172 338 -172 q 354 -173 348 -172 q 363 -173 358 -173 q 373 -173 367 -173 q 382 -173 377 -173 q 391 -175 387 -173 q 401 -175 397 -175 q 409 -175 405 -175 l 422 -175 q 427 -175 424 -175 q 433 -175 430 -175 q 438 -175 436 -175 q 445 -175 441 -175 q 451 -173 448 -173 q 456 -173 454 -173 q 462 -173 459 -173 q 468 -173 465 -173 q 535 -168 504 -173 q 595 -153 566 -163 q 638 -116 623 -144 q 653 -42 653 -88 q 648 13 653 -9 q 636 48 644 36 q 611 71 627 61 q 570 89 595 80 q 561 92 566 90 q 551 94 556 93 q 545 96 548 96 q 540 99 543 97 q 533 99 536 99 q 527 101 530 100 l 242 179 q 170 205 198 189 q 129 244 141 222 q 110 299 116 265 q 104 376 104 332 q 108 434 104 408 q 123 481 113 461 q 155 517 134 502 q 209 539 176 532 q 173 573 187 554 q 151 615 158 593 q 142 662 145 639 q 139 712 139 686 q 154 832 139 786 q 202 896 170 878 q 283 925 234 915 q 395 935 331 935 l 430 935 q 564 925 508 935 q 655 897 620 915 q 708 827 691 879 q 726 688 726 775 l 726 691 l 726 691 m 297 263 l 507 204 q 509 200 508 201 q 512 200 511 200 q 515 199 514 199 q 518 199 516 199 q 531 195 525 197 q 544 191 537 193 q 558 189 551 190 q 572 189 565 189 q 615 198 598 189 q 640 227 632 208 q 652 269 648 247 q 657 316 657 291 q 657 319 657 318 q 657 322 657 321 q 657 327 657 325 q 657 330 657 329 q 648 372 657 355 q 624 399 640 389 q 588 416 607 408 q 551 429 570 424 q 551 429 551 429 q 551 431 551 429 q 549 431 549 431 q 549 431 549 431 q 549 431 549 431 q 549 431 549 431 q 548 431 548 431 q 548 431 548 431 q 546 431 547 431 q 546 431 546 431 q 546 431 546 431 q 546 432 546 431 q 544 432 544 432 q 544 432 544 432 l 344 493 q 333 494 338 493 q 323 497 329 495 q 312 500 317 498 q 303 503 308 501 q 300 503 302 503 q 297 505 298 503 q 292 505 294 505 q 290 505 291 505 q 286 505 288 505 q 283 506 284 505 q 278 506 280 506 q 276 506 277 506 q 236 496 252 506 q 212 468 220 487 q 200 430 204 450 q 196 389 196 410 q 196 387 196 387 q 196 386 196 386 q 196 386 196 386 q 196 386 196 386 q 196 385 196 385 q 196 385 196 385 q 200 334 196 354 q 212 303 204 314 q 237 282 220 292 q 277 265 253 272 q 282 263 280 264 q 285 263 284 263 q 291 260 288 261 q 297 260 294 260 l 297 263 l 297 263 "},"q":{"x_min":68,"x_max":630,"ha":709,"o":"m 630 647 l 630 -278 l 533 -278 l 533 73 q 505 34 521 49 q 467 10 488 18 q 425 -3 446 1 q 380 -8 403 -8 q 373 -8 377 -8 q 367 -9 370 -8 q 361 -9 364 -9 q 355 -9 357 -9 q 348 -9 352 -9 q 342 -11 345 -9 q 336 -11 339 -11 q 330 -11 332 -11 q 187 10 242 -11 q 111 76 133 32 q 78 181 88 120 q 68 319 68 242 q 78 451 68 392 q 110 557 88 510 q 185 627 131 603 q 323 651 238 651 q 385 646 355 651 q 442 635 416 642 q 494 610 470 628 q 534 564 517 592 l 534 647 l 630 647 l 630 647 m 169 338 l 169 288 q 176 189 169 231 q 198 119 184 146 q 251 78 213 92 q 353 65 289 65 q 454 81 416 65 q 505 131 492 98 q 523 208 517 164 q 530 303 530 252 l 530 319 q 523 430 530 382 q 505 509 517 478 q 451 557 492 541 q 338 573 409 573 q 241 556 278 573 q 192 506 205 539 q 174 430 180 473 q 169 335 169 388 l 169 338 l 169 338 "},"b":{"x_min":83,"x_max":644,"ha":709,"o":"m 83 0 l 83 926 l 179 926 l 179 565 q 207 604 190 588 q 247 629 225 620 q 294 645 270 639 q 343 652 318 652 q 348 652 345 652 q 351 655 350 652 q 356 655 354 655 q 359 655 358 655 q 368 655 363 655 q 376 655 372 655 q 517 634 462 655 q 596 571 573 613 q 632 470 620 529 q 644 332 644 410 q 633 196 644 257 q 603 86 623 135 q 527 16 583 39 q 380 -6 472 -6 q 377 -6 379 -6 q 374 -6 376 -6 q 372 -6 373 -6 q 370 -6 372 -6 q 314 -2 341 -6 q 259 10 287 1 q 211 36 233 19 q 176 78 190 53 l 176 0 l 83 0 l 83 0 m 181 342 l 181 306 q 188 200 181 245 q 209 126 195 156 q 265 83 225 97 q 372 70 305 70 q 441 76 412 70 q 489 96 470 82 q 519 135 508 108 q 536 204 530 163 q 539 235 539 220 q 541 267 539 251 q 541 283 541 275 q 543 299 541 290 q 543 314 543 306 q 543 331 543 322 q 536 435 543 389 q 519 513 530 481 q 468 561 508 545 q 359 577 429 577 q 259 561 297 577 q 208 514 220 546 q 188 440 194 483 q 182 339 181 396 l 182 342 l 181 342 "},"╬":{"x_min":0,"x_max":0,"ha":386},"®":{"x_min":65,"x_max":1022,"ha":1087,"o":"m 544 940 q 726 904 642 940 q 881 798 810 869 q 986 643 951 727 q 1022 460 1022 558 q 986 276 1022 361 q 881 122 951 191 q 726 17 810 51 q 544 -17 642 -17 q 360 17 445 -17 q 205 121 276 51 q 99 276 134 191 q 65 459 65 360 q 99 643 65 558 q 205 798 134 727 q 360 903 276 868 q 544 939 445 939 l 544 941 l 544 940 m 544 886 q 381 853 456 886 q 245 759 306 821 q 153 621 184 696 q 123 459 123 546 q 153 297 123 372 q 245 159 184 221 q 381 64 306 95 q 544 33 456 33 q 706 64 632 33 q 841 159 780 95 q 933 298 902 223 q 964 459 964 373 q 933 620 964 545 q 841 757 902 695 q 705 852 780 820 q 544 884 631 884 l 544 887 l 544 886 m 339 732 l 567 732 q 572 729 570 729 q 575 729 574 729 q 578 729 577 729 q 581 729 580 729 q 582 726 581 726 q 585 726 584 726 q 648 717 617 726 q 705 692 678 707 q 747 649 733 676 q 761 582 761 622 q 754 534 761 556 q 734 496 747 513 q 702 466 720 479 q 660 445 684 453 q 712 418 693 435 q 737 381 731 402 q 747 335 744 360 q 751 282 751 310 q 751 280 751 281 q 751 277 751 278 q 751 274 751 275 q 751 271 751 273 q 751 269 751 270 q 751 267 751 268 q 751 264 751 266 q 753 263 751 263 q 753 260 753 262 q 753 257 753 259 q 753 255 753 256 q 754 253 753 255 q 754 234 754 244 q 756 216 754 224 q 760 198 758 206 q 767 184 763 189 l 700 184 q 696 189 698 185 q 692 198 694 194 q 690 208 691 203 q 690 219 690 213 q 687 224 688 221 q 687 230 687 227 q 687 236 687 232 q 687 242 687 239 q 687 250 687 246 q 687 259 687 255 q 687 264 687 262 q 687 267 687 266 q 684 272 684 270 q 684 275 684 274 q 679 339 684 312 q 664 384 674 366 q 624 413 654 403 q 541 423 593 423 l 408 423 l 408 185 l 339 185 l 339 732 l 339 732 m 408 684 l 408 470 l 544 470 q 546 469 545 469 q 549 469 548 469 q 550 469 549 469 q 553 469 552 469 q 601 473 578 469 q 645 488 624 478 q 680 521 669 499 q 692 578 692 544 q 681 630 692 609 q 649 660 670 650 q 604 677 628 671 q 555 683 581 683 l 408 683 l 408 684 "},"₧":{"x_min":0,"x_max":0,"ha":386},"╩":{"x_min":0,"x_max":0,"ha":386},"L":{"x_min":89,"x_max":669.84375,"ha":674,"o":"m 199 926 l 199 96 l 669 96 l 669 0 l 89 0 l 89 926 l 199 926 l 199 926 "},"σ":{"x_min":0,"x_max":0,"ha":386},"ď":{"x_min":0,"x_max":0,"ha":386}," ":{"x_min":0,"x_max":0,"ha":386},"ʺ":{"x_min":137.5,"x_max":556.9375,"ha":694,"o":"m 305 923 l 361 862 l 175 719 l 137 766 l 305 923 l 305 923 m 501 923 l 556 862 l 370 719 l 333 766 l 501 923 l 501 923 "},"♪":{"x_min":0,"x_max":0,"ha":386},"À":{"x_min":6.9375,"x_max":838.890625,"ha":846,"o":"m 656 196 l 188 196 l 118 0 l 6 0 l 344 926 l 493 926 l 838 0 l 729 0 l 656 196 l 656 196 m 626 281 l 420 850 l 216 281 l 626 281 l 626 281 m 355 1175 l 538 1036 l 506 986 l 306 1108 l 355 1175 l 355 1175 "},"┬":{"x_min":0,"x_max":0,"ha":386},"+":{"x_min":32,"x_max":663,"ha":695,"o":"m 32 501 l 317 501 l 317 769 l 377 769 l 377 501 l 663 501 l 663 444 l 377 444 l 377 176 l 317 176 l 317 444 l 32 444 l 32 501 l 32 501 "},"▐":{"x_min":0,"x_max":0,"ha":386},"½":{"x_min":0,"x_max":0,"ha":386},"╛":{"x_min":0,"x_max":0,"ha":386},"╜":{"x_min":0,"x_max":0,"ha":386},"Ë":{"x_min":51,"x_max":645.046875,"ha":691,"o":"m 152 833 l 152 520 l 624 520 l 624 432 l 152 432 l 152 89 l 645 89 l 645 0 l 51 0 l 51 926 l 645 926 l 645 833 l 152 833 l 152 833 m 276 1097 l 276 1005 l 168 1005 l 168 1097 l 276 1097 l 276 1097 m 523 1097 l 523 1005 l 413 1005 l 413 1097 l 523 1097 l 523 1097 "},"'":{"x_min":76,"x_max":176,"ha":254,"o":"m 167 556 l 76 556 l 76 927 l 176 927 l 176 556 l 167 556 "},"Š":{"x_min":0,"x_max":0,"ha":386},"╟":{"x_min":0,"x_max":0,"ha":386},"˛":{"x_min":250,"x_max":444,"ha":694,"o":"m 344 0 l 414 0 q 411 -2 413 -1 q 407 -4 409 -2 q 403 -6 405 -5 q 399 -8 402 -7 q 396 -11 398 -9 q 392 -14 394 -12 q 388 -15 389 -14 q 385 -18 387 -16 q 360 -36 371 -26 q 337 -59 348 -47 q 320 -84 326 -71 q 315 -114 315 -98 q 320 -139 315 -129 q 335 -157 326 -150 q 358 -168 346 -164 q 382 -175 369 -173 q 383 -175 382 -175 q 385 -176 384 -175 q 386 -176 385 -176 q 388 -176 387 -176 q 390 -176 389 -176 q 392 -176 391 -176 q 393 -176 392 -176 q 395 -176 394 -176 q 398 -176 396 -176 q 402 -176 399 -176 q 405 -175 403 -175 q 407 -175 406 -175 q 410 -175 409 -175 q 413 -175 412 -175 q 416 -174 414 -174 q 420 -174 419 -174 q 425 -173 423 -174 q 431 -171 428 -172 q 437 -169 434 -169 q 444 -167 441 -168 l 444 -227 q 435 -229 439 -229 q 427 -231 431 -230 q 419 -233 423 -233 q 412 -236 414 -234 q 408 -236 410 -236 q 403 -237 406 -236 q 400 -237 402 -237 q 395 -237 398 -237 q 391 -237 394 -237 q 387 -239 389 -237 q 383 -239 385 -239 q 378 -239 381 -239 q 376 -239 377 -239 q 376 -239 376 -239 q 376 -239 376 -239 q 376 -239 376 -239 q 374 -239 374 -239 q 374 -239 374 -239 q 329 -232 351 -239 q 288 -211 308 -225 q 259 -176 269 -197 q 250 -131 250 -156 q 256 -88 250 -109 q 277 -53 263 -68 q 309 -23 292 -36 q 344 0 326 -11 l 344 0 "},"♂":{"x_min":0,"x_max":0,"ha":386},"ð":{"x_min":0,"x_max":0,"ha":386},"Φ":{"x_min":0,"x_max":0,"ha":386},"╨":{"x_min":0,"x_max":0,"ha":386},"☼":{"x_min":0,"x_max":0,"ha":386},"┌":{"x_min":0,"x_max":0,"ha":386},"ş":{"x_min":0,"x_max":0,"ha":386},"ı":{"x_min":83,"x_max":182,"ha":265,"o":"m 182 649 l 182 0 l 83 0 l 83 649 l 182 649 l 182 649 "},"Ć":{"x_min":0,"x_max":0,"ha":386},"ä":{"x_min":60,"x_max":620,"ha":705,"o":"m 182 461 l 82 461 q 100 565 82 526 q 155 619 118 605 q 237 640 191 633 q 339 647 283 647 q 458 637 406 647 q 546 609 510 628 q 601 543 582 591 q 620 419 620 495 l 620 0 l 531 0 l 531 66 q 488 22 513 38 q 435 0 462 5 q 377 -8 407 -5 q 315 -11 347 -11 q 208 -3 255 -11 q 127 22 161 4 q 76 82 93 40 q 60 191 60 125 q 78 297 60 257 q 130 354 96 337 q 212 379 166 371 q 312 388 257 388 q 320 388 316 388 q 328 388 323 388 q 336 386 332 386 q 344 386 340 386 q 353 386 348 386 q 361 386 357 386 q 369 385 365 385 q 378 385 374 385 q 390 384 385 385 q 403 382 396 383 q 415 380 408 380 q 426 378 421 379 q 451 373 439 376 q 474 365 463 369 q 488 358 481 362 q 500 347 495 354 q 510 335 506 342 q 520 321 515 328 l 520 401 q 511 496 520 458 q 486 547 503 533 q 431 569 470 562 q 333 576 393 576 q 327 576 330 576 q 321 576 323 576 q 314 574 318 574 q 307 574 311 574 q 298 574 302 574 q 291 574 294 574 q 284 574 287 574 q 277 574 280 574 q 257 571 268 572 q 238 567 247 569 q 222 560 229 564 q 208 551 215 555 q 196 539 201 546 q 188 526 191 533 q 184 511 186 519 q 182 495 182 504 q 181 493 182 494 q 181 491 181 491 q 181 488 181 490 q 181 486 181 487 q 181 482 181 484 q 181 477 181 480 q 181 474 181 476 q 181 473 181 473 q 181 470 181 472 q 181 467 181 469 q 181 465 181 466 q 181 463 181 463 q 181 461 181 462 q 182 458 182 459 l 182 461 l 182 461 m 160 205 q 168 132 160 160 q 194 90 176 103 q 240 70 211 76 q 309 64 269 64 q 323 64 316 64 q 339 64 330 64 q 353 64 346 64 q 369 65 361 64 q 425 71 399 65 q 476 90 451 78 q 513 125 500 101 q 525 186 525 149 q 512 257 525 230 q 472 293 499 283 q 414 308 446 303 q 346 313 382 313 l 322 315 q 316 313 319 314 q 309 313 312 313 q 302 313 305 313 q 295 313 298 313 q 288 313 291 313 q 282 313 284 313 q 274 311 277 311 q 268 311 270 311 q 243 306 255 309 q 220 301 231 304 q 200 293 209 298 q 183 281 190 288 q 173 272 178 277 q 166 259 169 266 q 163 244 165 252 q 161 230 161 237 q 160 222 160 226 q 160 216 160 219 q 160 208 160 212 q 160 202 160 205 l 160 205 l 160 205 m 282 807 l 282 715 l 174 715 l 174 807 l 282 807 l 282 807 m 530 807 l 530 715 l 420 715 l 420 807 l 530 807 l 530 807 "},"¹":{"x_min":0,"x_max":0,"ha":386},"£":{"x_min":64,"x_max":806,"ha":852,"o":"m 545 449 l 545 361 l 282 361 q 282 329 282 344 q 282 300 282 315 q 282 271 282 286 q 283 241 282 257 q 279 191 283 214 q 269 150 276 168 q 247 114 262 132 q 212 82 233 97 q 210 80 211 81 q 208 79 209 79 q 206 80 206 80 q 205 81 205 81 l 806 81 l 806 0 l 88 0 l 88 79 q 118 88 104 81 q 142 105 132 96 q 160 130 153 117 q 171 161 167 143 q 174 180 174 171 q 176 200 174 190 q 176 221 176 211 q 179 241 176 232 q 179 250 179 245 q 179 261 179 255 q 179 271 179 266 q 179 282 179 276 l 179 361 l 64 361 l 64 449 l 179 449 l 179 590 q 179 593 179 591 q 179 597 179 595 q 179 599 179 598 q 179 602 179 601 q 179 604 179 602 q 179 606 179 605 q 178 609 179 608 q 178 612 178 611 q 178 613 178 612 q 178 616 178 615 q 178 619 178 617 q 178 622 178 620 q 178 623 178 622 q 178 626 178 624 q 192 776 178 716 q 236 866 206 836 q 325 913 265 898 q 473 929 384 929 q 596 919 540 929 q 698 890 652 909 q 766 820 743 870 q 789 690 789 770 q 789 684 789 687 q 789 678 789 681 q 789 673 789 676 q 789 667 789 670 q 789 665 789 666 q 789 662 789 663 q 787 659 787 660 q 787 656 787 658 q 787 651 787 653 q 787 647 787 648 l 688 647 q 680 737 688 699 q 657 798 672 775 q 605 831 642 820 q 510 843 568 843 l 473 843 q 457 840 465 840 q 440 840 448 840 q 421 840 430 840 q 404 838 412 840 q 377 834 390 837 q 352 829 365 831 q 330 820 340 824 q 313 808 320 815 q 299 790 305 799 q 291 770 294 781 q 286 747 288 759 q 283 724 284 735 q 283 719 283 722 q 283 715 283 716 q 282 710 282 712 q 282 705 282 708 q 282 697 282 701 q 282 688 282 692 q 282 685 282 687 q 282 683 282 684 q 282 681 282 681 q 282 678 282 680 q 282 676 282 677 q 282 676 282 676 q 282 674 282 674 q 282 672 282 673 q 282 669 282 670 q 282 666 282 667 l 282 636 l 282 449 l 545 449 l 545 449 "},"ů":{"x_min":0,"x_max":0,"ha":386},"W":{"x_min":1.390625,"x_max":1383.328125,"ha":1386,"o":"m 1383 926 l 1091 0 l 933 0 l 690 832 l 441 0 l 286 0 l 1 926 l 108 926 l 362 80 l 612 926 l 766 926 l 1015 80 l 1275 926 l 1383 926 l 1383 926 "},"╥":{"x_min":0,"x_max":0,"ha":386},"Ğ":{"x_min":0,"x_max":0,"ha":386},"v":{"x_min":-5.5625,"x_max":562.5,"ha":558,"o":"m 562 649 l 345 0 l 209 0 l -5 649 l 93 649 l 279 73 l 456 649 l 562 649 l 562 649 "},">":{"x_min":47,"x_max":648,"ha":694,"o":"m 47 134 l 47 241 l 532 465 l 47 688 l 47 795 l 648 511 l 648 418 l 47 134 l 47 134 "},"τ":{"x_min":0,"x_max":0,"ha":386},"û":{"x_min":83,"x_max":621,"ha":704,"o":"m 621 649 l 621 0 l 530 0 l 530 86 q 485 32 509 52 q 434 4 462 12 q 376 -5 408 -1 q 308 -10 344 -10 q 207 3 249 -10 q 137 43 165 16 q 96 113 110 70 q 83 213 83 155 l 83 648 l 182 648 l 182 216 q 189 142 182 172 q 211 98 197 113 q 255 75 226 83 q 329 68 284 68 q 424 78 386 68 q 483 111 463 88 q 512 169 502 131 q 522 263 522 208 l 522 649 l 621 649 l 621 649 m 354 908 l 566 776 l 537 724 l 354 808 l 162 724 l 135 776 l 354 908 l 354 908 "},"Ź":{"x_min":0,"x_max":0,"ha":386},"╒":{"x_min":0,"x_max":0,"ha":386},"Ð":{"x_min":0,"x_max":0,"ha":386},"ˉ":{"x_min":172,"x_max":514,"ha":695,"o":"m 172 800 l 514 800 l 514 721 l 172 721 l 172 800 l 172 800 "},"Ĺ":{"x_min":0,"x_max":0,"ha":386},"r":{"x_min":83,"x_max":540,"ha":546,"o":"m 83 649 l 174 649 l 174 573 q 207 613 188 595 q 248 640 225 630 q 297 656 271 651 q 351 661 323 661 q 436 649 399 661 q 494 613 472 637 q 529 553 518 589 q 540 469 540 517 q 540 458 540 463 q 540 449 540 454 q 540 445 540 448 q 540 440 540 443 q 539 436 539 438 q 539 432 539 433 l 444 432 q 444 436 444 433 q 446 441 444 438 q 446 447 446 444 q 446 454 446 451 q 446 467 446 461 q 446 479 446 473 q 438 528 446 508 q 416 559 431 549 q 380 575 402 570 q 331 580 359 580 q 265 571 293 580 q 217 542 236 562 q 189 495 199 524 q 180 429 180 466 l 180 397 l 180 0 l 83 0 l 83 649 l 83 649 "},"┐":{"x_min":0,"x_max":0,"ha":386},"Č":{"x_min":0,"x_max":0,"ha":386},"x":{"x_min":-4.171875,"x_max":566.671875,"ha":561,"o":"m 541 649 l 334 337 l 566 0 l 448 0 l 280 261 l 112 0 l -4 0 l 230 337 l 20 649 l 130 649 l 280 411 l 427 649 l 541 649 l 541 649 "},"è":{"x_min":67,"x_max":634,"ha":698,"o":"m 534 198 l 634 198 q 614 80 634 124 q 557 21 595 36 q 468 -1 518 5 q 357 -8 418 -8 q 207 8 265 -8 q 121 60 148 25 q 80 155 94 94 q 67 305 67 217 q 77 455 67 390 q 108 565 87 519 q 187 633 129 610 q 343 656 246 656 q 492 640 433 656 q 577 594 551 625 q 618 503 605 564 q 632 352 632 443 l 632 307 l 167 307 q 172 206 167 250 q 189 131 178 163 q 239 81 200 97 q 343 66 278 66 l 369 68 q 383 66 376 66 q 398 66 390 66 q 415 66 407 66 q 433 68 423 67 q 443 69 439 68 q 454 70 448 70 q 463 72 458 71 q 473 75 468 74 q 491 81 483 78 q 507 90 500 85 q 518 101 513 95 q 525 115 523 107 q 529 132 527 124 q 532 149 530 140 q 532 152 532 150 q 534 154 532 153 q 534 158 534 156 q 534 161 534 160 q 534 168 534 164 q 534 174 534 171 l 534 198 l 534 198 m 536 382 q 529 480 536 440 q 506 540 522 519 q 454 570 493 560 q 351 581 415 581 q 258 570 296 581 q 203 539 221 560 q 176 478 185 518 q 168 381 168 438 l 536 381 l 536 382 m 283 917 l 466 778 l 434 728 l 235 850 l 283 917 l 283 917 "},"Ø":{"x_min":14,"x_max":860,"ha":893,"o":"m 860 928 l 860 820 l 811 774 q 819 749 815 762 q 825 721 823 737 q 827 708 826 715 q 829 694 827 701 q 831 678 830 685 q 832 665 832 671 q 833 653 832 659 q 834 641 834 646 q 832 628 832 634 q 832 616 832 623 q 832 593 832 603 q 832 573 832 583 q 832 504 832 538 q 832 437 832 470 q 832 370 832 403 q 832 303 832 337 q 821 198 832 248 q 791 104 811 149 q 730 32 772 60 q 625 -1 688 5 q 564 -4 594 -4 q 505 -4 534 -4 q 476 -4 491 -4 q 447 -4 461 -4 q 417 -4 432 -4 q 387 -4 403 -4 q 308 -4 347 -4 q 233 4 269 -4 q 163 29 196 11 q 103 81 130 48 l 14 1 l 14 101 l 69 155 q 60 178 64 165 q 54 205 57 191 q 51 235 53 220 q 49 266 49 251 q 46 279 47 273 q 46 292 46 285 q 46 305 46 298 q 46 317 46 312 q 46 342 46 330 q 46 366 46 355 l 46 499 q 46 499 46 498 q 46 502 46 501 q 46 504 46 503 q 46 506 46 505 q 46 507 46 506 q 46 509 46 508 q 46 539 46 524 q 46 569 46 553 q 47 599 46 584 q 52 631 49 615 q 63 727 52 681 q 95 816 75 773 q 153 885 114 859 q 251 919 193 911 q 274 920 262 920 q 297 923 286 920 q 319 924 308 924 q 343 928 330 924 q 354 928 348 928 q 365 931 360 928 q 376 931 371 931 q 387 931 382 931 q 410 931 398 931 q 433 931 422 931 l 514 931 q 519 928 516 928 q 525 928 522 928 q 530 928 527 928 q 537 928 533 928 q 602 923 569 928 q 665 911 634 919 q 724 886 697 902 q 774 842 752 869 l 860 928 l 860 928 m 178 155 q 205 119 189 133 q 239 98 221 105 q 278 86 258 90 q 319 81 297 81 q 351 79 335 79 q 383 79 366 79 q 416 79 400 79 q 447 79 432 79 q 595 90 537 79 q 677 126 652 102 q 715 206 702 149 q 729 349 729 262 q 729 372 729 360 q 729 397 729 384 q 729 420 729 408 q 729 445 729 433 q 729 468 729 456 q 729 492 729 480 q 729 503 729 498 q 730 516 729 509 q 730 528 730 522 q 730 540 730 534 q 730 557 730 548 q 730 576 730 566 q 726 593 726 584 q 726 612 726 602 q 726 650 726 631 q 726 687 726 669 l 178 155 l 178 155 m 702 774 q 676 802 691 790 q 645 823 662 815 q 609 835 627 831 q 569 840 590 840 q 561 840 565 840 q 552 840 557 840 q 543 840 547 840 q 534 840 538 840 q 526 840 530 840 q 518 842 522 840 q 508 842 512 842 q 500 842 504 842 q 481 842 490 842 q 464 842 472 842 q 447 842 455 842 q 430 842 439 842 q 266 827 326 842 q 188 785 206 813 q 160 685 170 759 q 150 490 150 610 l 150 345 q 150 328 150 335 q 150 315 150 322 q 150 307 150 310 q 152 301 150 303 q 152 294 152 298 q 152 288 152 291 q 152 274 152 281 q 152 260 152 267 q 152 247 152 253 q 152 233 152 240 l 702 774 l 702 774 "},"Ń":{"x_min":0,"x_max":0,"ha":386},"÷":{"x_min":0,"x_max":0,"ha":386},"h":{"x_min":83,"x_max":629,"ha":712,"o":"m 179 926 l 179 574 q 216 620 194 602 q 266 644 238 638 q 324 654 294 651 q 384 658 353 658 q 500 645 452 658 q 574 607 548 632 q 615 534 602 582 q 629 417 629 487 l 629 0 l 530 0 l 530 420 q 530 419 530 419 q 530 421 530 420 q 530 424 530 423 q 530 427 530 425 q 530 428 530 427 q 530 431 530 430 q 530 432 530 431 q 532 434 530 432 q 532 435 532 434 q 532 435 532 435 q 522 509 532 480 q 495 552 513 538 q 447 573 477 566 q 376 580 418 580 q 275 567 315 580 q 216 531 235 555 q 188 465 198 506 q 179 367 179 424 l 179 0 l 83 0 l 83 926 l 179 926 l 179 926 "},".":{"x_min":83,"x_max":193,"ha":276,"o":"m 193 126 l 193 0 l 83 0 l 83 126 l 193 126 l 193 126 "},"f":{"x_min":10,"x_max":378,"ha":374,"o":"m 378 648 l 378 569 l 207 569 l 207 0 l 108 0 l 108 569 l 10 569 l 10 648 l 108 648 l 108 743 q 120 835 108 797 q 159 894 133 873 q 224 924 184 914 q 316 935 263 935 q 320 935 319 935 q 325 935 322 935 q 328 933 326 933 q 332 933 330 933 q 336 933 334 933 q 340 933 337 933 q 343 933 341 933 q 347 933 346 933 q 350 933 348 933 q 354 933 351 933 q 357 931 355 931 q 361 931 359 931 q 369 931 365 931 q 378 931 373 931 l 378 854 q 368 852 373 852 q 359 854 364 852 q 350 854 354 854 q 341 854 346 854 q 333 854 337 854 q 325 854 329 854 q 315 854 319 854 q 307 854 311 854 q 258 846 277 854 q 227 827 238 839 q 212 795 218 814 q 207 749 207 775 l 207 648 l 378 648 l 378 648 "},"“":{"x_min":58,"x_max":376,"ha":443,"o":"m 58 682 l 58 817 q 62 866 58 844 q 74 906 66 888 q 103 932 83 923 q 154 942 123 942 q 156 942 155 942 q 158 942 156 942 q 158 942 158 942 q 161 942 159 942 q 163 942 162 942 q 165 942 163 942 q 165 942 165 942 q 168 942 166 942 q 170 940 169 940 q 173 940 172 940 q 178 940 176 940 q 182 940 180 940 l 182 890 q 151 882 163 887 q 133 870 140 877 q 124 851 127 863 q 120 822 120 838 q 120 820 120 820 q 120 818 120 819 q 120 815 120 816 q 122 814 120 814 q 122 811 122 812 q 122 808 122 810 q 122 806 122 807 q 122 806 122 806 l 168 806 l 168 682 l 58 682 l 58 682 m 252 682 l 252 817 q 256 866 252 844 q 268 906 260 888 q 297 932 277 923 q 348 942 317 942 q 350 942 349 942 q 352 942 350 942 q 352 942 352 942 q 355 942 353 942 q 357 942 356 942 q 359 942 357 942 q 359 942 359 942 q 362 942 360 942 q 364 940 363 940 q 367 940 366 940 q 372 940 370 940 q 376 940 374 940 l 376 890 q 345 882 357 887 q 327 870 334 877 q 318 851 321 863 q 314 822 314 838 q 314 820 314 820 q 314 818 314 819 q 314 815 314 816 q 316 814 314 814 q 316 811 316 812 q 316 808 316 810 q 316 806 316 807 q 316 806 316 806 l 362 806 l 362 682 l 252 682 l 252 682 "},"A":{"x_min":6.9375,"x_max":838.890625,"ha":846,"o":"m 656 196 l 188 196 l 118 0 l 6 0 l 344 926 l 493 926 l 838 0 l 729 0 l 656 196 l 656 196 m 626 281 l 420 850 l 216 281 l 626 281 l 626 281 "},"‘":{"x_min":58,"x_max":182,"ha":249,"o":"m 58 682 l 58 817 q 62 866 58 844 q 74 906 66 888 q 103 932 83 923 q 154 942 123 942 q 156 942 155 942 q 158 942 156 942 q 158 942 158 942 q 161 942 159 942 q 163 942 162 942 q 165 942 163 942 q 165 942 165 942 q 168 942 166 942 q 170 940 169 940 q 173 940 172 940 q 178 940 176 940 q 182 940 180 940 l 182 890 q 151 882 163 887 q 133 870 140 877 q 124 851 127 863 q 120 822 120 838 q 120 820 120 820 q 120 818 120 819 q 120 815 120 816 q 122 814 120 814 q 122 811 122 812 q 122 808 122 810 q 122 806 122 807 q 122 806 122 806 l 168 806 l 168 682 l 58 682 l 58 682 "},"π":{"x_min":0,"x_max":0,"ha":386},"O":{"x_min":51,"x_max":774,"ha":827,"o":"m 51 446 l 51 501 q 60 672 51 594 q 88 810 70 749 q 173 903 107 872 q 352 935 239 935 l 398 935 q 563 922 492 935 q 681 886 634 909 q 751 795 729 862 q 774 620 774 729 q 774 578 774 599 q 774 538 774 558 q 774 497 774 517 q 774 455 774 476 q 774 372 774 413 q 774 291 774 331 q 755 146 774 206 q 704 53 737 87 q 611 4 670 20 q 463 -11 551 -11 q 457 -11 460 -11 q 452 -11 455 -11 q 449 -11 450 -11 q 448 -11 448 -11 q 445 -11 446 -11 q 442 -11 443 -11 q 437 -11 439 -11 q 431 -11 434 -11 q 428 -11 430 -11 q 427 -11 427 -11 q 424 -11 425 -11 q 421 -11 423 -11 q 410 -10 416 -10 q 400 -10 405 -10 q 390 -10 395 -10 q 381 -10 385 -10 q 242 1 302 -10 q 142 37 182 12 q 78 117 102 60 q 54 262 54 173 q 54 308 54 285 q 54 353 54 331 q 54 376 54 364 q 54 399 54 387 q 54 421 54 410 q 54 444 54 433 l 54 446 l 51 446 m 158 451 l 158 302 q 168 187 158 232 q 198 120 178 142 q 263 87 217 98 q 379 76 308 76 q 513 83 457 76 q 602 107 568 91 q 652 175 634 124 q 670 310 670 226 q 670 348 670 330 q 670 385 670 367 q 670 405 670 395 q 673 424 670 414 q 673 444 673 434 q 673 463 673 453 q 673 483 673 473 q 673 502 673 492 q 673 520 673 510 q 673 539 673 530 q 673 559 673 549 q 673 578 673 569 q 673 596 673 587 q 673 616 673 606 q 657 752 673 702 q 611 816 642 802 q 529 839 581 831 q 403 847 477 847 l 369 847 q 266 837 307 847 q 203 808 224 827 q 170 742 182 790 q 158 619 158 694 l 158 451 l 158 451 "},"Đ":{"x_min":0,"x_max":0,"ha":386},"║":{"x_min":0,"x_max":0,"ha":386},"3":{"x_min":71,"x_max":763,"ha":852,"o":"m 339 429 l 339 518 q 353 515 345 515 q 368 515 361 515 q 382 515 375 515 q 398 517 390 515 q 413 517 405 517 q 428 517 421 517 q 442 517 434 517 q 458 517 450 517 q 551 524 515 517 q 604 546 587 532 q 629 595 621 560 q 638 686 638 630 q 632 753 638 725 q 615 800 626 782 q 579 829 606 819 q 512 840 553 840 q 493 840 503 840 q 473 840 483 840 q 464 840 469 840 q 455 843 459 840 q 445 843 450 843 q 436 843 440 843 q 416 843 426 843 q 397 843 407 843 q 378 843 387 843 q 359 843 369 843 q 349 843 354 843 q 340 843 344 843 q 336 843 339 843 q 332 843 333 843 q 327 842 329 842 q 322 842 325 842 q 291 838 305 840 q 261 831 276 836 q 234 821 247 827 q 214 807 222 815 q 202 789 207 798 q 194 768 197 779 q 191 757 193 762 q 189 747 190 751 q 188 736 189 742 q 188 725 188 730 q 188 722 188 724 q 188 721 188 721 q 188 718 188 719 q 188 715 188 717 q 188 712 188 714 q 188 711 188 711 q 188 708 188 710 q 188 706 188 707 q 188 697 188 701 q 188 689 188 693 q 188 681 188 685 q 188 672 188 676 q 186 664 186 668 q 186 656 186 660 q 186 647 186 652 q 186 641 186 643 l 89 641 q 102 779 89 722 q 144 868 116 836 q 227 916 172 900 q 365 933 282 933 l 409 933 q 543 924 483 933 q 650 901 603 916 q 722 836 698 887 q 746 697 746 784 q 746 681 746 689 q 746 667 746 674 q 746 658 746 663 q 746 652 746 654 q 744 643 744 647 q 744 635 744 639 q 740 606 743 621 q 733 576 737 592 q 723 549 729 562 q 708 525 716 536 q 686 502 698 511 q 658 489 674 493 q 629 480 644 483 q 599 474 614 476 q 598 474 599 474 q 597 474 597 474 q 595 472 596 472 q 594 472 594 472 q 592 472 593 472 q 589 472 590 472 q 674 450 640 465 q 726 413 708 436 q 753 354 744 391 q 763 266 763 318 q 755 177 763 219 q 736 94 748 135 q 688 28 723 54 q 596 -4 653 3 q 551 -4 574 -4 q 504 -4 528 -4 q 459 -4 482 -4 q 412 -4 436 -4 q 276 4 337 -4 q 166 30 215 12 q 95 101 119 48 q 71 244 71 155 q 71 258 71 251 q 71 272 71 265 q 71 286 71 279 q 72 300 71 293 l 174 300 l 174 247 q 179 173 174 204 q 197 123 185 143 q 236 92 208 103 q 311 81 265 81 q 320 81 315 81 q 330 81 325 81 q 339 79 334 79 q 348 79 344 79 q 366 79 357 79 q 386 79 376 79 q 394 79 390 79 q 404 79 398 79 q 413 78 408 78 q 422 78 418 78 q 441 78 432 78 q 459 78 450 78 q 561 86 521 78 q 619 111 601 94 q 646 166 637 127 q 656 264 656 204 q 644 353 656 319 q 612 400 633 387 q 554 420 590 413 q 466 428 518 428 l 339 428 l 339 429 "},"╣":{"x_min":0,"x_max":0,"ha":386},"9":{"x_min":69,"x_max":759,"ha":851,"o":"m 70 236 l 169 236 q 169 231 169 233 q 169 227 169 229 q 169 224 169 226 q 169 222 169 223 q 168 219 168 220 q 168 216 168 217 q 168 213 168 215 q 168 211 168 212 q 175 149 168 174 q 198 109 183 124 q 240 87 213 95 q 301 79 266 79 q 309 79 305 79 q 319 79 313 79 q 327 78 323 78 q 335 78 331 78 q 353 78 344 78 q 371 78 362 78 q 388 78 380 78 q 405 78 396 78 q 422 78 413 78 q 441 78 431 78 q 544 85 502 78 q 609 108 587 92 q 643 162 632 123 q 655 265 655 201 l 655 441 q 643 421 649 430 q 631 405 638 412 q 617 392 625 398 q 599 384 609 387 q 585 379 592 381 q 571 373 578 376 q 556 370 563 372 q 542 366 549 367 q 528 363 535 365 q 513 361 520 362 q 497 360 505 361 q 482 360 489 360 q 462 357 473 357 q 441 357 452 357 q 421 357 431 357 q 399 357 410 357 q 255 368 316 357 q 153 401 194 379 q 95 481 114 423 q 76 632 76 539 q 94 788 76 726 q 148 878 112 850 q 247 920 184 906 q 398 934 309 934 q 558 920 490 934 q 669 882 626 907 q 736 791 714 856 q 759 624 759 726 l 759 461 l 759 282 q 743 132 759 191 q 691 44 727 73 q 593 2 656 15 q 442 -11 531 -11 l 381 -11 q 264 -4 319 -11 q 162 16 209 2 q 92 78 115 32 q 69 205 69 125 q 69 207 69 206 q 69 209 69 208 q 69 210 69 209 q 69 212 69 211 q 69 214 69 213 q 69 216 69 215 q 69 217 69 216 q 70 219 70 217 q 70 222 70 220 q 70 224 70 223 q 70 229 70 227 q 70 233 70 231 l 70 236 l 70 236 m 179 649 q 187 544 179 584 q 213 484 195 504 q 271 456 230 466 q 377 447 313 447 l 409 450 q 429 447 419 447 q 449 447 439 447 q 471 447 460 447 q 491 449 481 447 q 511 450 500 449 q 531 453 521 451 q 541 453 537 453 q 552 455 546 454 q 561 457 556 457 q 571 459 566 458 q 620 480 602 466 q 643 514 638 494 q 653 555 650 533 q 656 604 656 578 q 647 722 656 674 q 621 794 638 769 q 559 832 605 819 q 439 845 513 845 l 403 845 q 292 838 337 845 q 224 815 248 831 q 190 758 202 801 q 179 646 179 716 l 179 649 l 179 649 "},"l":{"x_min":83,"x_max":182,"ha":265,"o":"m 182 926 l 182 0 l 83 0 l 83 926 l 182 926 l 182 926 "},"":{"x_min":0,"x_max":0,"ha":386},"4":{"x_min":36.390625,"x_max":797.890625,"ha":852,"o":"m 659 927 l 659 302 l 797 302 l 797 214 l 659 214 l 659 0 l 560 0 l 560 214 l 36 214 l 36 336 l 503 927 l 659 927 l 659 927 m 560 302 l 560 858 l 123 302 l 560 302 l 560 302 "},"Ü":{"x_min":89,"x_max":822,"ha":910,"o":"m 718 926 l 822 926 l 822 277 q 808 151 822 203 q 767 65 795 98 q 688 14 741 31 q 558 -2 636 -2 q 544 -2 551 -2 q 532 -5 537 -2 q 519 -5 525 -5 q 505 -5 512 -5 q 493 -5 500 -5 q 480 -7 486 -5 q 467 -7 473 -7 q 454 -7 461 -7 q 302 2 369 -7 q 186 31 234 11 q 113 113 137 52 q 89 274 89 173 l 89 926 l 195 926 l 195 277 q 205 176 195 216 q 236 117 215 137 q 297 91 257 100 q 395 83 337 83 l 497 83 q 601 90 558 83 q 669 114 644 98 q 705 171 693 131 q 718 274 718 210 l 718 926 l 718 926 m 386 1099 l 386 1007 l 278 1007 l 278 1099 l 386 1099 l 386 1099 m 634 1099 l 634 1007 l 524 1007 l 524 1099 l 634 1099 l 634 1099 "},"à":{"x_min":60,"x_max":620,"ha":705,"o":"m 182 461 l 82 461 q 100 565 82 526 q 155 619 118 605 q 237 640 191 633 q 339 647 283 647 q 458 637 405 647 q 546 609 510 628 q 601 543 582 591 q 620 419 620 495 l 620 0 l 531 0 l 531 66 q 488 22 513 38 q 435 0 462 5 q 377 -8 407 -5 q 315 -11 347 -11 q 208 -3 255 -11 q 127 22 161 4 q 76 82 93 40 q 60 191 60 125 q 78 297 60 257 q 130 354 96 337 q 212 379 166 371 q 312 388 257 388 q 320 388 316 388 q 328 388 323 388 q 336 386 332 386 q 344 386 340 386 q 353 386 348 386 q 361 386 357 386 q 369 385 365 385 q 378 385 373 385 q 390 384 385 385 q 403 382 396 383 q 414 380 408 380 q 426 378 421 379 q 451 373 439 376 q 474 365 462 369 q 488 358 481 362 q 500 347 494 354 q 510 335 506 342 q 520 321 515 328 l 520 401 q 511 496 520 458 q 486 547 503 533 q 431 569 469 562 q 333 576 393 576 q 327 576 330 576 q 321 576 323 576 q 314 574 318 574 q 307 574 311 574 q 298 574 303 574 q 291 574 294 574 q 284 574 287 574 q 277 574 280 574 q 257 571 268 572 q 239 567 247 569 q 222 560 229 564 q 208 551 215 555 q 196 539 201 546 q 188 526 191 533 q 184 511 186 519 q 182 495 182 504 q 181 493 182 494 q 181 491 181 491 q 181 488 181 490 q 181 486 181 487 q 181 482 181 484 q 181 477 181 480 q 181 474 181 476 q 181 473 181 473 q 181 470 181 472 q 181 467 181 469 q 181 465 181 466 q 181 463 181 463 q 181 461 181 462 q 182 458 182 459 l 182 461 l 182 461 m 160 205 q 168 132 160 160 q 194 90 176 103 q 240 70 211 76 q 309 64 269 64 q 323 64 316 64 q 339 64 330 64 q 353 64 346 64 q 369 65 361 64 q 425 71 398 65 q 476 90 451 78 q 513 125 500 101 q 525 186 525 149 q 512 257 525 230 q 472 293 499 283 q 414 308 446 303 q 346 313 382 313 l 322 315 q 316 313 319 314 q 309 313 312 313 q 302 313 305 313 q 296 313 298 313 q 288 313 291 313 q 282 313 284 313 q 274 311 277 311 q 268 311 271 311 q 243 306 255 309 q 220 301 232 304 q 200 293 209 298 q 183 281 190 288 q 173 272 178 277 q 166 259 169 266 q 163 244 165 252 q 161 230 161 237 q 160 222 160 226 q 160 216 160 219 q 160 208 160 212 q 160 202 160 205 l 160 205 l 160 205 m 284 916 l 468 777 l 436 727 l 236 849 l 284 916 l 284 916 "},"Ś":{"x_min":0,"x_max":0,"ha":386},"Ť":{"x_min":0,"x_max":0,"ha":386},"ó":{"x_min":75,"x_max":649,"ha":705,"o":"m 75 341 q 86 482 75 422 q 123 580 98 541 q 205 637 148 618 q 351 657 262 657 q 505 640 444 657 q 593 591 565 623 q 635 498 621 559 q 649 344 649 436 q 639 199 649 264 q 614 86 630 134 q 539 12 597 36 q 380 -11 480 -11 q 233 2 293 -11 q 140 41 173 15 q 90 127 106 69 q 75 277 75 186 l 75 341 l 75 341 m 175 343 l 175 289 q 175 279 175 283 q 175 272 175 275 q 175 264 175 268 q 175 255 175 259 q 175 239 175 247 q 176 225 175 232 q 179 185 176 204 q 186 148 182 166 q 196 116 190 130 q 212 93 203 102 q 229 81 219 86 q 250 73 239 76 q 273 68 262 70 q 298 66 285 66 q 301 66 299 66 q 304 66 302 66 q 305 68 304 68 q 308 68 306 68 q 313 68 311 68 q 319 68 316 68 l 363 68 q 367 68 365 68 q 370 68 369 68 q 374 68 372 68 q 377 68 376 68 q 443 73 413 68 q 493 90 472 79 q 529 130 516 101 q 543 205 543 159 q 543 214 543 209 q 546 225 543 219 q 546 234 546 229 q 546 243 546 239 q 546 251 546 247 q 547 261 546 255 q 547 270 547 265 q 547 280 547 275 q 547 289 547 284 q 549 298 547 293 q 549 307 549 302 q 549 316 549 312 q 549 335 549 326 q 549 354 549 344 q 543 456 549 414 q 526 525 537 498 q 479 563 515 550 q 384 576 444 576 l 363 578 q 260 568 299 578 q 205 538 220 558 q 182 475 190 519 q 175 361 175 431 l 175 343 l 175 343 m 429 916 l 477 850 l 279 728 l 245 778 l 429 916 l 429 916 "}}}
